<svg width="13" height="13" fill="none" xmlns="http://www.w3.org/2000/svg"><g clip-path="url('#clip0_337_945')"><path fill-rule="evenodd" clip-rule="evenodd" d="M12.223 1.14a.51.51 0 0 1 .12.53L8.773 11.874a.51.51 0 0 1-.948.039L5.862 7.5 1.45 5.539a.51.51 0 0 1 .039-.948L11.694 1.02a.51.51 0 0 1 .529.121ZM6.858 7.227l1.376 3.096 2.408-6.88-3.784 3.784ZM9.92 2.721 3.04 5.13l3.096 1.376L9.92 2.721Z" fill="#fff"/></g><defs><clipPath id="clip0_337_945"><path fill="#fff" transform="translate(.636 .48)" d="M0 0h12.247v12.247H0z"/></clipPath></defs></svg>