<svg width="58" height="52" fill="none" xmlns="http://www.w3.org/2000/svg"><path d="M54.572 35.36c0 7.123-5.774 12.897-12.898 12.897H22.327a3.583 3.583 0 0 1-3.583-3.582V20.312a7.166 7.166 0 0 1 7.166-7.166h25.08a3.583 3.583 0 0 1 3.582 3.583v18.63Z" fill="#E8F5E9"/><path d="M44.666 29.45c0 5.588-6.588 11.41-8.235 11.41-1.647 0-8.236-5.822-8.236-11.41 0-4.5 3.687-8.149 8.236-8.149 4.548 0 8.235 3.649 8.235 8.15Z" stroke="#717171" stroke-width="1.544"/><circle cx="3.088" cy="3.088" r="3.088" transform="matrix(-1 0 0 1 39.519 25.934)" stroke="#717171" stroke-width="1.544"/></svg>