<svg width="48" height="41" fill="none" xmlns="http://www.w3.org/2000/svg"><path d="M47.135 27.36c0 7.123-5.774 12.897-12.898 12.897H14.89a3.583 3.583 0 0 1-3.583-3.582V12.312a7.166 7.166 0 0 1 7.166-7.166h25.08a3.583 3.583 0 0 1 3.582 3.583v18.63Z" fill="#E8F5E9"/><path d="M20.758 16.904a4.118 4.118 0 0 1 4.118-4.117H31.118c.61 0 1.19.271 1.581.74l4.053 4.864c.308.37.477.836.477 1.318v9.549a4.118 4.118 0 0 1-4.117 4.117h-8.236a4.118 4.118 0 0 1-4.118-4.117V16.904Z" stroke="#717171" stroke-width="1.544"/><path d="M32.082 13.301v3.603c0 1.137.922 2.06 2.059 2.06h2.574M24.876 23.08h8.235M24.876 28.228h4.118" stroke="#717171" stroke-width="1.544" stroke-linecap="round"/></svg>