<svg width="21" height="21" fill="none" xmlns="http://www.w3.org/2000/svg"><path fill-rule="evenodd" clip-rule="evenodd" d="M6.924 3.014A4.194 4.194 0 0 1 10.63.8a4.258 4.258 0 0 1 3.779 2.235l6.004 11.114a4.258 4.258 0 0 1-3.747 6.28H4.593a4.258 4.258 0 0 1-3.736-6.301L6.924 3.013Zm6.047.777a2.64 2.64 0 0 0-4.652-.01L2.262 14.873A2.65 2.65 0 0 0 4.593 18.8h12.072a2.672 2.672 0 0 0 2.341-3.928L12.971 3.79Z" fill="#717171"/><path d="M10.629 13.574a.798.798 0 0 0 0 1.597.788.788 0 0 0 .798-.798.787.787 0 0 0-.798-.788v-.01ZM10.629 12.116a.809.809 0 0 1-.799-.799v-3.3a.798.798 0 1 1 1.597 0v3.3c0 .441-.357.799-.798.799Z" fill="#717171"/></svg>