<svg width="48" height="41" fill="none" xmlns="http://www.w3.org/2000/svg"><path d="M47.135 27.51c0 7.124-5.775 12.898-12.898 12.898H14.89a3.583 3.583 0 0 1-3.583-3.582V12.463a7.166 7.166 0 0 1 7.166-7.166h25.079a3.583 3.583 0 0 1 3.583 3.583v18.63Z" fill="#E8F5E9"/><circle cx="3.504" cy="3.504" r="3.504" transform="matrix(-1 0 0 1 32.717 16.026)" stroke="#717171" stroke-width="1.544"/><path d="M23.08 28.235c0-.754.473-1.427 1.183-1.68a14.714 14.714 0 0 1 9.898 0c.71.253 1.184.926 1.184 1.68v1.152a1.71 1.71 0 0 1-1.951 1.692l-.343-.049a27.14 27.14 0 0 0-7.677 0l-.343.05a1.71 1.71 0 0 1-1.951-1.693v-1.152Z" stroke="#717171" stroke-width="1.544"/><path d="M34.47 23.132a2.754 2.754 0 0 0 0-5.507M37.485 29.414l.27.038a1.343 1.343 0 0 0 1.532-1.33v-.905c0-.592-.372-1.12-.93-1.32a11.567 11.567 0 0 0-1.698-.464M23.517 23.132a2.754 2.754 0 0 1 0-5.507M20.502 29.414l-.27.038a1.343 1.343 0 0 1-1.533-1.33v-.905c0-.592.372-1.12.93-1.32a11.562 11.562 0 0 1 1.698-.464" stroke="#717171" stroke-width="1.544" stroke-linecap="round"/></svg>