<svg width="285" height="297" fill="none" xmlns="http://www.w3.org/2000/svg"><path d="M244.785 286.016c21.92 0 39.69-10.257 39.69-22.91s-17.77-22.91-39.69-22.91c-21.921 0-39.691 10.257-39.691 22.91s17.77 22.91 39.691 22.91ZM108.391 296.121a2.85 2.85 0 0 1-2.758-2.277l-.641-3.376a36.432 36.432 0 0 1-4.284-1.055h-.111l-5.943 2.757a3.508 3.508 0 0 1-3.067-.14l-5.899-3.42a2.34 2.34 0 0 1-1.232-1.949 2.342 2.342 0 0 1 1.033-2.061l3.584-2.58a13.017 13.017 0 0 1-.892-1.356l-7.55-.472a2.705 2.705 0 0 1-2.537-2.691v-4.422a2.706 2.706 0 0 1 2.529-2.698l7.55-.479c.27-.468.567-.919.892-1.349l-3.598-2.558a2.35 2.35 0 0 1-1.033-2.061 2.347 2.347 0 0 1 1.232-1.949l5.899-3.42a3.374 3.374 0 0 1 1.681-.428c.478-.007.95.091 1.386.288l5.951 2.757h.073a36.7 36.7 0 0 1 4.336-1.062l.641-3.376a2.844 2.844 0 0 1 2.758-2.278h8.708a2.84 2.84 0 0 1 1.781.652c.502.414.847.988.976 1.626l.642 3.376c1.445.265 2.873.615 4.277 1.047h.11l5.95-2.757a3.263 3.263 0 0 1 1.379-.288 3.382 3.382 0 0 1 1.689.428l5.898 3.42a2.35 2.35 0 0 1 .207 4.01l-3.591 2.58c.326.432.626.882.9 1.349l7.55.479a2.705 2.705 0 0 1 2.529 2.698v4.423a2.712 2.712 0 0 1-2.529 2.698l-7.55.471c-.272.471-.572.924-.9 1.357l3.591 2.58a2.348 2.348 0 0 1 .663 3.197 2.35 2.35 0 0 1-.87.813l-5.898 3.42a3.46 3.46 0 0 1-1.689.427 3.363 3.363 0 0 1-1.379-.287l-5.95-2.757h-.074a36.551 36.551 0 0 1-4.328 1.069l-.641 3.369a2.847 2.847 0 0 1-2.758 2.285l-8.693-.03Zm4.358-24.826a18.387 18.387 0 0 0-9.048 2.138c-2.027 1.172-3.192 2.668-3.192 4.12s1.165 2.949 3.192 4.121a20.24 20.24 0 0 0 18.102 0c2.028-1.172 3.185-2.669 3.185-4.121 0-1.452-1.157-2.948-3.185-4.12a18.437 18.437 0 0 0-9.054-2.138ZM140.979 169.959l-2.471-1.423a6.701 6.701 0 0 0-6.06 0L2.05 243.833c-1.667.959-1.667 2.536 0 3.494l2.462 1.423a6.72 6.72 0 0 0 6.069 0l39.61-22.851 16.051 9.258c4.542 2.625 11.982 2.625 16.524 0l27.326-15.774c3.878-2.211 3.878-5.897 0-8.108l-17.247-10.033 48.141-27.782c1.659-.966 1.659-2.536-.007-3.501Z" fill="#E0E0E0"/><path opacity=".1" d="M146.03 42.274 28.056 110.362v66.732c-.01.386.099.767.31 1.091a.826.826 0 0 0 .67.398.965.965 0 0 0 .48-.14l119.323-68.929V43.91c0-1.813-1.261-2.535-2.809-1.636Z" fill="#103E13"/><path d="m85.236 231.236 22.607-13.062c2.33-1.349 3.495-3.111 3.495-4.872v-3.148l-21.28-12.067a4.987 4.987 0 0 1-2.249-3.899v-27.863l-39.47 22.814v27.863a4.96 4.96 0 0 0 2.213 3.892l17.77 10.32c4.697 2.712 12.254 2.712 16.914.022Z" fill="#37474F"/><path d="M57.814 221.933v3.133l-7.233-4.172a5 5 0 0 1-2.249-3.9v-27.855l7.52-4.342c.163 1.909.325 3.885.488 5.808l-5.28 3.052v21.767a4.945 4.945 0 0 0 2.212 3.9l4.542 2.609Z" fill="#263238"/><path d="M51.06 215.432a4.99 4.99 0 0 0 2.213 3.899l15.041 8.765c4.668 2.69 12.225 2.69 16.885 0l22.614-13.062c4.668-2.691 4.668-7.054 0-9.745l-15.056-8.772a4.952 4.952 0 0 1-2.249-3.899v-21.76l-39.447 22.799v21.775Z" fill="#455A64"/><path opacity=".15" d="m97.38 199.163-4.579-2.646a4.951 4.951 0 0 1-2.249-3.899v-21.76L51.06 193.657v21.775a4.99 4.99 0 0 0 2.213 3.899l4.505 2.595 39.602-22.763Z" fill="#103E13"/><path d="M4.018 232.614a6.042 6.042 0 0 0 5.456-.103c19.414-11.204 110.505-63.784 129.919-74.981a6.236 6.236 0 0 0 2.809-4.872V43.895a5.275 5.275 0 0 0-5.393-5.49 5.286 5.286 0 0 0-2.718.824L4.195 114.21a6.231 6.231 0 0 0-2.78 4.872v108.763a6.04 6.04 0 0 0 2.603 4.769Z" fill="#37474F"/><path d="m9.475 232.511 129.919-74.988a6.22 6.22 0 0 0 2.809-4.872V43.895c0-1.798-1.261-2.52-2.809-1.621l-129.92 74.98a6.218 6.218 0 0 0-2.808 4.872v108.763c-.008 1.791 1.253 2.514 2.809 1.622Z" fill="#455A64"/><path d="M10.382 217.768v-94.352a3.826 3.826 0 0 1 1.725-2.992L136.754 48.48c.951-.552 1.725-.103 1.725.995v94.352a3.823 3.823 0 0 1-1.732 3.001l-124.64 71.943c-.951.545-1.725.103-1.725-1.003Z" fill="#2C813F"/><path opacity=".75" d="M10.382 217.768v-94.352a3.826 3.826 0 0 1 1.725-2.992L136.754 48.48c.951-.552 1.725-.103 1.725.995v94.352a3.823 3.823 0 0 1-1.732 3.001l-124.64 71.943c-.951.545-1.725.103-1.725-1.003Z" fill="#fff"/><path d="m2.212 116.311 5.279 3.044a5.932 5.932 0 0 0-.833 2.779V230.89c0 1.636 1.113 2.55 2.816 1.621a5.978 5.978 0 0 1-5.456.104 5.43 5.43 0 0 1-2.64-4.423V119.097a5.814 5.814 0 0 1 .834-2.786Z" fill="#263238"/><path d="m68.69 190.834 11.48-6.634c.576-.325 1.033-.096 1.033.523a2.21 2.21 0 0 1-1.032 1.71l-11.48 6.634c-.568.332-1.033.096-1.033-.516a2.213 2.213 0 0 1 1.032-1.717Z" fill="#2C813F"/><path d="M26.433 175.28a.948.948 0 0 0 .48-.147l126.291-72.975a3.987 3.987 0 0 0 1.791-3.089V3.67c0-.67-.28-1.068-.737-1.068a1.471 1.471 0 0 0-.737.22L27.222 75.77a4.011 4.011 0 0 0-1.792 3.096v94.897c-.006.386.101.766.31 1.091a.85.85 0 0 0 .693.427Z" fill="#F5F7FA"/><path d="M23.447 174.042c.214.11 1.733.973 2.397 1.356a1.977 1.977 0 0 1-.738-1.644V85.226l-2.5-1.475v88.581a1.908 1.908 0 0 0 .841 1.71Z" fill="#F5F7FA"/><path d="M154.243 2.933c.369 0 .421.457.421.738v95.39a3.699 3.699 0 0 1-1.622 2.809L26.751 174.846a.657.657 0 0 1-.318.095c-.346 0-.648-.538-.648-1.157V78.843a3.634 3.634 0 0 1 1.622-2.809L153.698 3.11c.163-.106.351-.167.545-.177Zm0-.656c-.308.009-.609.1-.87.266L27.075 75.459a4.32 4.32 0 0 0-1.947 3.383v94.92c0 .98.546 1.821 1.305 1.821.23-.005.454-.071.65-.192l126.283-72.975a4.301 4.301 0 0 0 1.961-3.376V3.67c0-.884-.442-1.393-1.084-1.393Z" fill="#E0E0E0"/><path d="M155.321 3.627v6.538L25.13 85.352l-2.5-1.475V77.45c.028-.691.23-1.363.59-1.954a3.958 3.958 0 0 1 1.364-1.422L150.875 1.127a1.384 1.384 0 0 1 1.423-.118 82.898 82.898 0 0 0 2.418 1.37.53.53 0 0 1 .148.104.748.748 0 0 1 .155.155c.05.06.092.127.125.199a.746.746 0 0 1 .096.236c.028.086.048.175.059.265.016.095.023.191.022.288Z" fill="#2C813F"/><path opacity=".15" d="M155.321 3.627v6.538L25.13 85.352l-2.5-1.475V77.45c.028-.691.23-1.363.59-1.954a3.958 3.958 0 0 1 1.364-1.422L150.875 1.127a1.384 1.384 0 0 1 1.423-.118 82.898 82.898 0 0 0 2.418 1.37.53.53 0 0 1 .148.104.748.748 0 0 1 .155.155c.05.06.092.127.125.199a.746.746 0 0 1 .096.236c.028.086.048.175.059.265.016.095.023.191.022.288Z" fill="#103E13"/><path d="M155.32 3.627v6.538L25.129 85.352v-6.457c.005-.417.085-.829.236-1.217.022-.068.049-.135.081-.199.076-.182.165-.36.265-.53a3.907 3.907 0 0 1 1.372-1.438L153.366 2.543a1.3 1.3 0 0 1 1.475-.059.748.748 0 0 1 .155.155c.05.06.092.128.125.2a.723.723 0 0 1 .096.235c.028.086.048.175.059.265.023.095.038.19.044.288Z" fill="#2C813F"/><path d="M142.247 11.462a3.224 3.224 0 0 0-1.216 2.58c0 1.04.545 1.563 1.216 1.172a3.215 3.215 0 0 0 1.217-2.58c-.037-.995-.582-1.562-1.217-1.172ZM146.598 8.926a3.197 3.197 0 0 0-1.217 2.58c0 1.032.546 1.563 1.217 1.172a3.21 3.21 0 0 0 1.224-2.58c0-1.039-.546-1.562-1.224-1.172ZM150.993 6.383a3.213 3.213 0 0 0-1.224 2.58c0 1.04.545 1.563 1.224 1.18a3.238 3.238 0 0 0 1.216-2.58c0-1.04-.546-1.563-1.216-1.18Z" fill="#F5F7FA"/><path d="M153.374 2.543 27.083 75.459a4.025 4.025 0 0 0-1.379 1.475l-2.477-1.475c.32-.586.788-1.079 1.356-1.43L150.874 1.128a1.388 1.388 0 0 1 1.423-.118 95.378 95.378 0 0 0 2.382 1.356 1.423 1.423 0 0 0-1.305.177Z" fill="#2C813F"/><path opacity=".5" d="M153.374 2.543 27.083 75.459a4.025 4.025 0 0 0-1.379 1.475l-2.477-1.475c.32-.586.788-1.079 1.356-1.43L150.874 1.128a1.388 1.388 0 0 1 1.423-.118 95.378 95.378 0 0 0 2.382 1.356 1.423 1.423 0 0 0-1.305.177Z" fill="#fff"/><path d="M56.716 88.477a.177.177 0 0 1-.177-.177v-7.438a.177.177 0 0 1 .244-.163.17.17 0 0 1 .103.163V88.3a.17.17 0 0 1-.17.177Z" fill="#455A64"/><path d="m56.089 87.6.597.597.59-.597v.508l-.59.59-.597-.59V87.6ZM63.005 89.288a.161.161 0 0 1-.155-.089.17.17 0 0 1 .067-.236l4.895-2.83a.176.176 0 0 1 .244.066.176.176 0 0 1-.066.236l-4.904 2.83a.149.149 0 0 1-.08.023Z" fill="#455A64"/><path d="m67.591 87.15.222-.81-.812-.222.435-.25.812.213-.214.811-.443.258ZM62.099 128.363a.16.16 0 0 1-.155-.089.171.171 0 0 1 .014-.192.157.157 0 0 1 .052-.043l4.896-2.831a.186.186 0 0 1 .244.066.192.192 0 0 1-.067.244l-4.903 2.823a.145.145 0 0 1-.081.022Z" fill="#455A64"/><path d="m66.685 126.225.22-.811-.81-.214.435-.258.81.222-.213.81-.442.251ZM79.876 118.102a.164.164 0 0 1-.148-.088.167.167 0 0 1-.02-.134.16.16 0 0 1 .087-.102l4.896-2.831a.165.165 0 0 1 .133-.021.175.175 0 0 1 .06.033.16.16 0 0 1 .043.054.175.175 0 0 1 .02.131.17.17 0 0 1-.08.105l-4.903 2.831a.171.171 0 0 1-.088.022Z" fill="#455A64"/><path d="m84.47 115.965.221-.811-.811-.221.435-.251.811.214-.221.811-.435.258ZM81.048 78.887a.162.162 0 0 1-.148-.088.17.17 0 0 1 .06-.236l4.903-2.83a.17.17 0 0 1 .236.065.169.169 0 0 1-.06.236l-4.903 2.83a.198.198 0 0 1-.088.023Z" fill="#455A64"/><path d="m85.613 76.75.221-.811-.811-.222.435-.25.811.214-.221.818-.435.25ZM80.701 98.539a.176.176 0 0 1-.154-.081.176.176 0 0 1 .066-.244l4.896-2.83a.179.179 0 0 1 .26.201.178.178 0 0 1-.083.108l-4.904 2.824a.147.147 0 0 1-.08.022Z" fill="#455A64"/><path d="m81.004 97.507-.214.81.811.214-.435.251-.811-.214.214-.81.435-.251ZM80.384 135.085a.155.155 0 0 1-.086-.023.158.158 0 0 1-.061-.065.165.165 0 0 1-.031-.149.16.16 0 0 1 .038-.067.16.16 0 0 1 .067-.042l4.571-2.646a.177.177 0 0 1 .256.196.17.17 0 0 1-.079.106l-4.579 2.646a.192.192 0 0 1-.096.044Z" fill="#455A64"/><path d="m80.694 134.046-.22.811.81.221-.435.251-.81-.222.22-.81.435-.251ZM63.087 108.704a.164.164 0 0 1-.148-.088.173.173 0 0 1 .009-.192.164.164 0 0 1 .05-.044l4.903-2.831a.181.181 0 0 1 .132-.014.174.174 0 0 1 .127.147.174.174 0 0 1-.036.131.18.18 0 0 1-.053.046l-4.896 2.823-.088.022Z" fill="#455A64"/><path d="m63.396 107.672-.221.811.81.213-.434.251-.811-.214.22-.811.436-.25ZM90.958 85.53a.177.177 0 0 1-.177-.178v-5.668a.177.177 0 0 1 .354 0v5.668a.177.177 0 0 1-.177.177Z" fill="#455A64"/><path d="m90.368 84.66.59.589.597-.59v.501l-.598.59-.59-.59v-.5ZM56.716 121.751a.148.148 0 0 1-.088 0 .164.164 0 0 1-.089-.147v-4.173a.177.177 0 0 1 .244-.163c.02.009.04.022.056.039a.166.166 0 0 1 .047.124v3.863l33.917-19.578v-2.595a.177.177 0 0 1 .354 0v2.698a.177.177 0 0 1-.088.148l-34.28 19.784a.154.154 0 0 1-.073 0Z" fill="#455A64"/><path d="m57.276 118.102-.59-.589-.597.589v-.501l.597-.597.59.597v.501ZM56.716 141.1a.148.148 0 0 1-.088 0 .16.16 0 0 1-.088-.154v-2.691a.176.176 0 0 1 .299-.125.17.17 0 0 1 .047.125v2.381l33.917-19.578v-4.084a.177.177 0 1 1 .354 0v4.172c0 .03-.01.06-.025.086a.183.183 0 0 1-.063.062l-34.301 19.784a.141.141 0 0 1-.052.022Z" fill="#455A64"/><path d="m91.555 117.668-.598-.59-.59.59v-.502l.59-.589.598.589v.502ZM48.842 136.014a.19.19 0 0 1-.089 0 .175.175 0 0 1-.088-.154v-19.107a.177.177 0 0 1 .088-.147l1.858-1.076a.175.175 0 0 1 .207.044.178.178 0 0 1-.014.198.175.175 0 0 1-.053.045l-1.762 1.017v18.679l1.947-1.12a.167.167 0 0 1 .068-.037.173.173 0 0 1 .202.084.177.177 0 0 1-.1.255l-2.213 1.275a.18.18 0 0 1-.051.044Z" fill="#455A64"/><path d="m50.744 135.432.214-.811-.811-.221.442-.251.804.222-.214.803-.435.258ZM97.601 125.156a.156.156 0 0 1-.086-.023.158.158 0 0 1-.061-.065.176.176 0 0 1 .066-.243l1.843-1.062v-16.88l-1.592.914a.16.16 0 0 1-.063.023.153.153 0 0 1-.068-.003.156.156 0 0 1-.06-.029.179.179 0 0 1-.066-.184.173.173 0 0 1 .029-.062.173.173 0 0 1 .05-.047l1.859-1.069a.183.183 0 0 1 .177 0 .174.174 0 0 1 .06.067.174.174 0 0 1 .02.088v17.278a.167.167 0 0 1-.08.147l-1.94 1.15a.166.166 0 0 1-.088 0Z" fill="#455A64"/><path d="m97.911 124.11-.214.811.811.213-.442.258-.811-.221.221-.811.435-.25Z" fill="#455A64"/><path d="M61.973 73.196c0 1.983-2.367 4.954-5.286 6.634-2.92 1.681-5.294 1.475-5.294-.538 0-2.012 2.366-4.953 5.294-6.634 2.927-1.68 5.286-1.445 5.286.538ZM75.935 140.835c2.726-2.281 4.09-5.14 3.048-6.385-1.043-1.246-4.099-.406-6.825 1.875s-4.09 5.14-3.047 6.385c1.042 1.246 4.098.407 6.824-1.875ZM61.502 93.158l-9.637 5.558c-.288.162-.516 0-.516-.398v-4.961a1.246 1.246 0 0 1 .516-.995l9.637-5.536c.287-.162.516 0 .516.398v4.953a1.253 1.253 0 0 1-.516.98Z" fill="#2C813F"/><path opacity=".6" d="m61.502 93.158-9.637 5.558c-.288.162-.516 0-.516-.398v-4.961a1.246 1.246 0 0 1 .516-.995l9.637-5.536c.287-.162.516 0 .516.398v4.953a1.253 1.253 0 0 1-.516.98Z" fill="#fff"/><path d="m78.836 83.14-9.585 5.55c-.288.17-.523 0-.523-.39v-4.96a1.247 1.247 0 0 1 .523-.996l9.585-5.558c.288-.17.524 0 .524.39v4.962a1.246 1.246 0 0 1-.524 1.002Z" fill="#2C813F"/><path opacity=".6" d="m78.836 83.14-9.585 5.55c-.288.17-.523 0-.523-.39v-4.96a1.247 1.247 0 0 1 .523-.996l9.585-5.558c.288-.17.524 0 .524.39v4.962a1.246 1.246 0 0 1-.524 1.002Z" fill="#fff"/><path d="m78.836 102.6-9.585 5.558c-.288.17-.524 0-.524-.391v-4.96a1.253 1.253 0 0 1 .524-.996l9.585-5.558c.288-.169.523 0 .523.391v4.961a1.249 1.249 0 0 1-.523.995Z" fill="#2C813F"/><path opacity=".6" d="m78.836 102.6-9.585 5.558c-.288.17-.524 0-.524-.391v-4.96a1.253 1.253 0 0 1 .524-.996l9.585-5.558c.288-.169.523 0 .523.391v4.961a1.249 1.249 0 0 1-.523.995Z" fill="#fff"/><path d="m78.836 121.692-9.585 5.558c-.288.162-.523 0-.523-.398v-4.961a1.248 1.248 0 0 1 .523-.995l9.585-5.558c.288-.162.524 0 .524.398v4.954a1.26 1.26 0 0 1-.524 1.002Z" fill="#2C813F"/><path opacity=".6" d="m78.836 121.692-9.585 5.558c-.288.162-.523 0-.523-.398v-4.961a1.248 1.248 0 0 1 .523-.995l9.585-5.558c.288-.162.524 0 .524.398v4.954a1.26 1.26 0 0 1-.524 1.002Z" fill="#fff"/><path d="m95.795 111.925-9.63 5.558c-.287.169-.523 0-.523-.391v-4.961a1.253 1.253 0 0 1 .524-.995l9.63-5.558c.287-.169.523 0 .523.391v4.961a1.247 1.247 0 0 1-.524.995Z" fill="#2C813F"/><path opacity=".6" d="m95.795 111.925-9.63 5.558c-.287.169-.523 0-.523-.391v-4.961a1.253 1.253 0 0 1 .524-.995l9.63-5.558c.287-.169.523 0 .523.391v4.961a1.247 1.247 0 0 1-.524.995Z" fill="#fff"/><path d="m95.795 129.203-9.652 5.536c-.287.17-.523 0-.523-.391v-4.961a1.24 1.24 0 0 1 .523-.995l9.652-5.535c.287-.17.523 0 .523.39v4.961a1.256 1.256 0 0 1-.523.995Z" fill="#2C813F"/><path opacity=".6" d="m95.795 129.203-9.652 5.536c-.287.17-.523 0-.523-.391v-4.961a1.24 1.24 0 0 1 .523-.995l9.652-5.535c.287-.17.523 0 .523.39v4.961a1.256 1.256 0 0 1-.523.995Z" fill="#fff"/><path d="m61.502 112.625-9.637 5.558c-.288.17-.516 0-.516-.398v-4.953a1.259 1.259 0 0 1 .516-1.003l9.637-5.558c.287-.162.516 0 .516.398v4.961a1.246 1.246 0 0 1-.516.995Z" fill="#2C813F"/><path opacity=".6" d="m61.502 112.625-9.637 5.558c-.288.17-.516 0-.516-.398v-4.953a1.259 1.259 0 0 1 .516-1.003l9.637-5.558c.287-.162.516 0 .516.398v4.961a1.246 1.246 0 0 1-.516.995Z" fill="#fff"/><path d="m90.471 78.18-4.07-5.684a1.563 1.563 0 0 1 .487-1.82l8.11-4.696c.517-.302.804.443.487 1.254l-4.07 10.386c-.214.633-.693.906-.944.56Z" fill="#455A64"/><path d="m95.102 90.814-3.775 6.509c-.221.376-.516.553-.738.427l-3.775-2.152c-.331-.192-.331-.951 0-1.526l3.775-6.502c.222-.375.517-.552.738-.427l3.775 2.152c.332.185.332.951 0 1.519ZM60.823 129.683l-3.768 6.531c-.22.376-.523.553-.737.427l-3.775-2.152c-.332-.184-.332-.951 0-1.526l3.775-6.501c.214-.376.516-.553.737-.428l3.768 2.152c.317.163.317.929 0 1.497Z" fill="#C8E6C9"/><path d="M42.404 106.728a.19.19 0 0 1-.155-.081.185.185 0 0 1 .067-.243l11.37-6.56a.177.177 0 0 1 .243.058.184.184 0 0 1-.067.244l-11.37 6.582a.19.19 0 0 1-.088 0Z" fill="#455A64"/><path d="M42.404 108.409a.186.186 0 0 1-.155-.089.176.176 0 0 1 .067-.236l11.37-6.567a.18.18 0 0 1 .134-.015.182.182 0 0 1 .109.081.178.178 0 0 1-.066.236l-11.37 6.568a.208.208 0 0 1-.089.022ZM42.404 110.06a.208.208 0 0 1-.088-.026.204.204 0 0 1-.067-.063.184.184 0 0 1 .067-.243l11.37-6.56a.173.173 0 0 1 .197.013.166.166 0 0 1 .046.053.176.176 0 0 1-.067.236l-11.37 6.568-.088.022ZM42.404 111.704a.203.203 0 0 1-.087-.022.198.198 0 0 1-.068-.059.185.185 0 0 1 .067-.244l11.37-6.56a.179.179 0 0 1 .243.059.184.184 0 0 1-.067.243l-11.37 6.561a.209.209 0 0 1-.088.022Z" fill="#E0E0E0"/><path d="M37.404 87.467a.161.161 0 0 1-.147-.088.178.178 0 0 1 .059-.243l11.377-6.56a.177.177 0 0 1 .17.301l-11.37 6.568a.2.2 0 0 1-.089.022Z" fill="#455A64"/><path d="M37.404 89.111a.17.17 0 0 1-.17-.146.178.178 0 0 1 .082-.178l11.377-6.56a.168.168 0 0 1 .191.008.17.17 0 0 1 .067.117.176.176 0 0 1-.089.177l-11.37 6.56a.2.2 0 0 1-.088.022ZM37.405 90.762a.163.163 0 0 1-.148-.088.169.169 0 0 1 .06-.236l11.376-6.56a.177.177 0 0 1 .259.13.169.169 0 0 1-.089.172l-11.37 6.567a.2.2 0 0 1-.088.015ZM37.405 92.413a.177.177 0 0 1-.089-.331l11.377-6.56a.17.17 0 0 1 .236.066.169.169 0 0 1-.066.235l-11.37 6.568-.088.022Z" fill="#E0E0E0"/><path d="M68.359 91.58a.176.176 0 0 1-.166-.246.177.177 0 0 1 .078-.085l11.377-6.56a.17.17 0 0 1 .236.065.168.168 0 0 1-.014.193.169.169 0 0 1-.053.043l-11.37 6.56a.14.14 0 0 1-.088.03Z" fill="#455A64"/><path d="M68.358 93.224a.163.163 0 0 1-.147-.088.168.168 0 0 1 .009-.191.166.166 0 0 1 .05-.045l11.377-6.568a.177.177 0 0 1 .17.31l-11.37 6.56-.089.022ZM68.358 94.875a.161.161 0 0 1-.147-.088.169.169 0 0 1 .059-.236l11.377-6.568a.177.177 0 0 1 .258.13.17.17 0 0 1-.088.172l-11.37 6.568a.2.2 0 0 1-.089.022ZM68.359 96.526a.176.176 0 0 1-.166-.246.177.177 0 0 1 .077-.085l11.377-6.56a.17.17 0 0 1 .259.124.176.176 0 0 1-.09.177l-11.369 6.56a.14.14 0 0 1-.088.03Z" fill="#E0E0E0"/><path d="M84.808 63.385a.163.163 0 0 1-.147-.088.162.162 0 0 1 .066-.236l11.37-6.568a.176.176 0 0 1 .236.066.169.169 0 0 1-.059.236l-11.377 6.568a.178.178 0 0 1-.089.022Z" fill="#455A64"/><path d="M84.808 65.036a.178.178 0 0 1-.147-.088.177.177 0 0 1 .074-.236l11.37-6.56a.164.164 0 0 1 .193.01.163.163 0 0 1 .042.056.168.168 0 0 1-.008.19.168.168 0 0 1-.05.045l-11.378 6.56a.126.126 0 0 1-.096.023ZM84.808 66.68a.162.162 0 0 1-.147-.089.17.17 0 0 1 .066-.236l11.37-6.56a.17.17 0 0 1 .236.059.178.178 0 0 1-.06.243l-11.376 6.56a.176.176 0 0 1-.089.023ZM84.808 68.332a.163.163 0 0 1-.147-.089.162.162 0 0 1 .066-.236l11.37-6.568a.177.177 0 0 1 .236.067.169.169 0 0 1-.059.236l-11.377 6.567a.178.178 0 0 1-.089.023Z" fill="#E0E0E0"/><path d="M95.345 81.843a.163.163 0 0 1-.147-.089.162.162 0 0 1 .066-.236l11.37-6.567a.178.178 0 0 1 .243.066c.024.041.03.09.017.135a.176.176 0 0 1-.083.108l-11.377 6.56a.178.178 0 0 1-.089.023Z" fill="#455A64"/><path d="M95.345 83.494a.161.161 0 0 1-.147-.088.178.178 0 0 1 .066-.244l11.37-6.56a.159.159 0 0 1 .133-.02.166.166 0 0 1 .103.086c.012.02.02.041.023.063a.153.153 0 0 1-.003.068.168.168 0 0 1-.079.106l-11.377 6.567a.177.177 0 0 1-.089.022ZM95.345 85.138a.17.17 0 0 1-.147-.08.178.178 0 0 1 .066-.244l11.37-6.56a.169.169 0 0 1 .191.008.18.18 0 0 1 .066.184.18.18 0 0 1-.08.11l-11.377 6.56a.178.178 0 0 1-.089.022ZM95.345 86.826a.161.161 0 0 1-.147-.089.162.162 0 0 1 .066-.236l11.37-6.568a.176.176 0 0 1 .236.067c.012.02.02.04.023.063a.153.153 0 0 1-.003.067.156.156 0 0 1-.029.061.182.182 0 0 1-.05.045l-11.377 6.567a.177.177 0 0 1-.089.023Z" fill="#E0E0E0"/><path d="M95.345 98.237a.162.162 0 0 1-.147-.089.162.162 0 0 1 .066-.236l11.37-6.567a.176.176 0 0 1 .236.066c.012.02.02.04.023.063a.153.153 0 0 1-.003.067.156.156 0 0 1-.029.061.18.18 0 0 1-.05.045l-11.377 6.568a.177.177 0 0 1-.089.022Z" fill="#455A64"/><path d="M95.345 99.888a.177.177 0 0 1-.165-.224.177.177 0 0 1 .084-.108l11.37-6.56a.162.162 0 0 1 .236.066c.012.02.02.041.023.063a.153.153 0 0 1-.003.068.168.168 0 0 1-.079.105l-11.377 6.568a.178.178 0 0 1-.089.022ZM95.345 101.569a.174.174 0 0 1-.087-.023.167.167 0 0 1-.06-.066.171.171 0 0 1 .014-.192.157.157 0 0 1 .052-.043l11.369-6.56a.175.175 0 0 1 .131-.021.17.17 0 0 1 .105.08c.013.019.021.04.024.064a.16.16 0 0 1-.003.069.165.165 0 0 1-.029.063.168.168 0 0 1-.051.046l-11.377 6.561a.181.181 0 0 1-.088.022ZM95.345 103.183a.165.165 0 0 1-.147-.089.159.159 0 0 1-.021-.133.16.16 0 0 1 .087-.103l11.37-6.568a.176.176 0 0 1 .236.067c.012.019.02.04.023.063a.153.153 0 0 1-.003.067.156.156 0 0 1-.029.06.18.18 0 0 1-.05.046l-11.377 6.567a.183.183 0 0 1-.089.023Z" fill="#E0E0E0"/><path d="M41.843 143.975a.184.184 0 0 1-.155-.081.176.176 0 0 1 .067-.243l11.37-6.561a.168.168 0 0 1 .065-.023.178.178 0 0 1 .069.002.18.18 0 0 1 .11.08.186.186 0 0 1-.067.244l-11.333 6.56a.195.195 0 0 1-.126.022Z" fill="#455A64"/><path d="M41.843 145.626a.177.177 0 0 1-.172-.221.17.17 0 0 1 .084-.103l11.37-6.568a.186.186 0 0 1 .243.066.177.177 0 0 1-.066.236l-11.333 6.568-.126.022ZM41.843 147.27a.195.195 0 0 1-.154-.088.182.182 0 0 1-.018-.136.178.178 0 0 1 .084-.108l11.37-6.56a.172.172 0 0 1 .066-.022.164.164 0 0 1 .07.004.181.181 0 0 1 .107.084.175.175 0 0 1-.066.236l-11.333 6.59a.192.192 0 0 1-.126 0ZM41.843 148.921a.18.18 0 0 1-.102-.038.177.177 0 0 1 .014-.286l11.37-6.56a.17.17 0 0 1 .064-.024.16.16 0 0 1 .07.003.165.165 0 0 1 .062.029.167.167 0 0 1 .047.051.184.184 0 0 1-.066.243l-11.333 6.56-.126.022Z" fill="#E0E0E0"/><path d="M174.174 21.222v89.848a4.768 4.768 0 0 1-.632 2.128 4.737 4.737 0 0 1-1.529 1.609l-57.438 33.171a1.383 1.383 0 0 1-.738.206c-.09.011-.182.011-.273 0a.764.764 0 0 1-.184-.066l-.118-.059-.125-.088a.778.778 0 0 1-.118-.104 1.733 1.733 0 0 1-.398-.567 2.716 2.716 0 0 1-.229-1.091V56.803a4.798 4.798 0 0 1 2.16-3.737l57.439-33.104a1.57 1.57 0 0 1 1.475-.185c.064.032.126.069.184.11a1.522 1.522 0 0 1 .524 1.335Z" fill="#455A64"/><path d="M172.972 20.411a.39.39 0 0 1 .199.044h.037s.228.192.228.737v89.878a4.005 4.005 0 0 1-1.791 3.096l-57.432 33.17a.722.722 0 0 1-.346.111h-.162l-.059-.044h-.045l-.036-.037a1.16 1.16 0 0 1-.222-.324 2 2 0 0 1-.162-.789v-89.45a4.1 4.1 0 0 1 1.792-3.096l57.438-33.104c.177-.115.38-.18.59-.192h-.029Zm.029-.737a1.94 1.94 0 0 0-.958.287l-57.439 33.105a4.794 4.794 0 0 0-2.16 3.737v89.339c0 .376.078.747.228 1.091.094.214.229.407.399.568a.727.727 0 0 0 .118.103l.125.088.118.059c.058.03.12.053.184.067.091.011.182.011.273 0 .242-.01.478-.081.686-.207l57.438-33.17a4.75 4.75 0 0 0 2.161-3.737V21.222a1.537 1.537 0 0 0-.524-1.305 1.082 1.082 0 0 0-.678-.214l.029-.03Z" fill="#455A64"/><path opacity=".8" d="M174.174 21.222v89.848a4.755 4.755 0 0 1-2.16 3.737l-57.439 33.171a1.38 1.38 0 0 1-.737.206 1.133 1.133 0 0 1-.273 0 .749.749 0 0 1-.184-.066l-.118-.059-.126-.088a.83.83 0 0 1-.118-.104 1.748 1.748 0 0 1-.398-.567 2.715 2.715 0 0 1-.228-1.091V56.803a4.785 4.785 0 0 1 2.16-3.737l57.438-33.104a1.573 1.573 0 0 1 1.475-.185c.065.032.126.069.184.11a1.525 1.525 0 0 1 .524 1.334Z" fill="#455A64"/><path d="M173.466 19.747a1.572 1.572 0 0 0-1.475.185l-57.438 33.104a4.786 4.786 0 0 0-2.161 3.737v7.054l-2.75-1.614V55.21a4.743 4.743 0 0 1 2.153-3.73l57.446-33.104a1.473 1.473 0 0 1 1.563-.125c.413.258 2.205 1.29 2.662 1.496Z" fill="#2C813F"/><path d="M174.174 21.222c0-1.364-.973-1.91-2.161-1.224l-57.438 33.104a4.774 4.774 0 0 0-2.153 3.73v7.054l61.752-35.61v-7.054Z" fill="#2C813F"/><path opacity=".4" d="m172.013 19.961-57.438 33.104c-.632.401-1.155.954-1.519 1.607l-2.736-1.592c.35-.64.857-1.181 1.475-1.57l57.439-33.104a1.524 1.524 0 0 1 1.57-.133c.383.243 2.175 1.26 2.632 1.474a1.554 1.554 0 0 0-1.423.214Z" fill="#fff"/><path opacity=".15" d="M109.657 62.25v-7.01c.03-.765.259-1.51.663-2.16l2.743 1.585a4.376 4.376 0 0 0-.641 2.145v7.047l-2.765-1.607Z" fill="#103E13"/><path d="M161.175 29.227a3.207 3.207 0 0 0-1.217 2.58c0 1.032.546 1.562 1.217 1.172a3.23 3.23 0 0 0 1.216-2.58c0-1.07-.545-1.563-1.216-1.172ZM165.562 26.684a3.23 3.23 0 0 0-1.217 2.58c0 1.039.546 1.562 1.217 1.179a3.21 3.21 0 0 0 1.224-2.58c0-1.04-.546-1.563-1.224-1.18ZM169.949 24.17a3.228 3.228 0 0 0-1.217 2.58c0 1.04.546 1.563 1.217 1.172a3.19 3.19 0 0 0 1.223-2.58c0-1.054-.545-1.584-1.223-1.171Z" fill="#455A64"/><path d="m113.21 147.956-.272-.155a7.49 7.49 0 0 0-.664-.376l-.361-.207-.561-.324-.479-.273-.265-.147a1.09 1.09 0 0 1-.369-.295 1.604 1.604 0 0 1-.295-.442 2.679 2.679 0 0 1-.243-1.135v-82.36l2.75 1.615v82.285c.013.374.091.743.229 1.091.093.214.228.407.398.568.03.043.071.079.118.103l.014.052Z" fill="#37474F"/><path d="M117.819 66.85a.675.675 0 0 1 .081-.295l1.151-2.389a.186.186 0 0 1 .073-.081.065.065 0 0 1 .052 0 .059.059 0 0 1 .022.015c.026.03.04.07.037.11v.804c.009.083.009.167 0 .25 0 .06-.044.133-.081.215l-.612 1.26.612.56a.45.45 0 0 1 .081.125.745.745 0 0 1 0 .222v.751a.433.433 0 0 1-.037.163.288.288 0 0 1-.096.11h-.051l-1.136-1.01a.229.229 0 0 1-.081-.2l-.015-.61ZM122.037 60.872c.018-.081.045-.16.081-.236a.43.43 0 0 1 .17-.177l.435-.25h.088a.118.118 0 0 1 .032.05c.007.02.008.04.005.06a.327.327 0 0 1 0 .088l-1.983 8.426a1.093 1.093 0 0 1-.082.228.404.404 0 0 1-.176.192l-.413.243a.074.074 0 0 1-.089 0 .166.166 0 0 1-.035-.054.171.171 0 0 1-.009-.064.435.435 0 0 1 0-.088l1.976-8.418ZM125.09 63.238a.695.695 0 0 1-.082.302l-1.15 2.381-.051.074a.088.088 0 0 1-.096 0 .17.17 0 0 1 0-.118v-.804a.99.99 0 0 1 0-.243c.022-.076.052-.15.088-.221l.605-1.26-.605-.553a.45.45 0 0 1-.088-.126.745.745 0 0 1 0-.22v-.804a.442.442 0 0 1 0-.162.288.288 0 0 1 .096-.11.041.041 0 0 1 .025-.01c.01 0 .019.004.026.01l1.15 1.053a.243.243 0 0 1 .082.206v.605ZM128.289 62.693a.097.097 0 0 1 .118 0 .206.206 0 0 1 .044.147v.877a.472.472 0 0 1-.044.2.38.38 0 0 1-.118.14l-.538.309a.081.081 0 0 1-.111 0 .164.164 0 0 1-.043-.064.153.153 0 0 1-.008-.076v-.885a.396.396 0 0 1 .051-.199.261.261 0 0 1 .111-.132l.538-.317ZM130.111 61.646a.088.088 0 0 1 .111 0 .206.206 0 0 1 .044.147v.877a.505.505 0 0 1-.044.2.261.261 0 0 1-.111.132l-.546.317a.086.086 0 0 1-.055.02.086.086 0 0 1-.055-.02.206.206 0 0 1-.044-.147v-.877c0-.07.015-.137.044-.2a.312.312 0 0 1 .11-.14l.546-.31ZM131.925 60.599a.088.088 0 0 1 .059-.023c.022 0 .043.008.059.023.016.019.029.041.037.065.007.024.01.05.007.075v.884a.472.472 0 0 1-.044.2.3.3 0 0 1-.118.132l-.538.317a.089.089 0 0 1-.111 0 .182.182 0 0 1-.043-.068c-.009-.025-.012-.053-.009-.08v-.877c0-.07.018-.138.052-.199a.307.307 0 0 1 .111-.14l.538-.31ZM118.306 73.278l37.214-21.466c.309-.176.568-.051.568.288a1.226 1.226 0 0 1-.568.944l-37.192 21.465c-.317.184-.567.058-.567-.288a1.209 1.209 0 0 1 .545-.944Z" fill="#2C813F"/><path d="m126.852 83.14 37.191-21.465c.31-.177.568-.051.568.288a1.229 1.229 0 0 1-.568.95L126.852 84.38c-.317.177-.568.051-.568-.288a1.218 1.218 0 0 1 .568-.95ZM126.852 88.08l23.3-13.446c.317-.184.568-.059.568.288a1.227 1.227 0 0 1-.568.943l-23.3 13.445c-.317.177-.568.052-.568-.287a1.205 1.205 0 0 1 .568-.944ZM126.852 93.01l23.3-13.445c.317-.184.568-.051.568.288a1.222 1.222 0 0 1-.568.944l-23.3 13.444c-.317.185-.568.052-.568-.287a1.205 1.205 0 0 1 .568-.944Z" fill="#C8E6C9"/><path d="m157.731 50.537 10.611-6.147c.317-.177.567-.052.567.287a1.204 1.204 0 0 1-.567.951l-10.611 6.148c-.317.176-.567.051-.567-.288a1.204 1.204 0 0 1 .567-.95ZM127.5 122.289l28.019-16.217c.31-.184.568-.052.568.288a1.243 1.243 0 0 1-.568.943L127.5 123.52c-.317.177-.567.051-.567-.288a1.222 1.222 0 0 1 .567-.943ZM157.731 104.79l10.581-6.17c.317-.184.568-.052.568.287a1.205 1.205 0 0 1-.568.944l-10.581 6.14c-.317.184-.567.052-.567-.287.018-.186.078-.365.177-.523.098-.159.232-.293.39-.391ZM132.256 104.657l36.056-20.787c.317-.177.568-.052.568.288a1.218 1.218 0 0 1-.568.95l-36.056 20.787c-.309.177-.568.052-.568-.294a1.242 1.242 0 0 1 .568-.944ZM123.209 114.984l45.103-26.183c.317-.177.568-.051.568.288a1.223 1.223 0 0 1-.568.95l-45.103 26.176c-.309.184-.567.051-.567-.288a1.229 1.229 0 0 1 .567-.943Z" fill="#2C813F"/><path d="m125.333 118.603 30.186-17.47c.31-.177.568-.051.568.288a1.239 1.239 0 0 1-.568.951l-30.164 17.469c-.317.177-.568.052-.568-.287a1.21 1.21 0 0 1 .546-.951Z" fill="#E8F5E9"/><path d="m123.209 109.868 5.965-3.442c.31-.184.568-.052.568.288a1.217 1.217 0 0 1-.568.943l-5.965 3.442c-.309.185-.567.052-.567-.287a1.193 1.193 0 0 1 .567-.944ZM118.306 78.224l26.087-15.067c.317-.184.575-.052.575.288a1.209 1.209 0 0 1-.575.943l-26.087 15.067c-.317.184-.568.052-.568-.288a1.205 1.205 0 0 1 .568-.943Z" fill="#2C813F"/><path opacity=".6" d="m118.306 78.224 26.087-15.067c.317-.184.575-.052.575.288a1.209 1.209 0 0 1-.575.943l-26.087 15.067c-.317.184-.568.052-.568-.288a1.205 1.205 0 0 1 .568-.943Z" fill="#fff"/><path d="m118.306 83.14 5.272-3.044c.31-.185.568-.06.568.287a1.244 1.244 0 0 1-.568.944l-5.272 3.044c-.317.184-.568.051-.568-.288a1.205 1.205 0 0 1 .568-.943Z" fill="#2C813F"/><path opacity=".6" d="m118.306 83.14 5.272-3.044c.31-.185.568-.06.568.287a1.244 1.244 0 0 1-.568.944l-5.272 3.044c-.317.184-.568.051-.568-.288a1.205 1.205 0 0 1 .568-.943Z" fill="#fff"/><path d="m118.306 88.079 5.272-3.044c.31-.185.568-.052.568.287a1.246 1.246 0 0 1-.568.944l-5.272 3.044c-.317.184-.568.051-.568-.288a1.205 1.205 0 0 1 .568-.943Z" fill="#2C813F"/><path opacity=".6" d="m118.306 88.079 5.272-3.044c.31-.185.568-.052.568.287a1.246 1.246 0 0 1-.568.944l-5.272 3.044c-.317.184-.568.051-.568-.288a1.205 1.205 0 0 1 .568-.943Z" fill="#fff"/><path d="m118.306 93.01 5.272-3.044c.31-.184.568-.051.568.288a1.244 1.244 0 0 1-.568.944l-5.272 3.043c-.317.185-.568.052-.568-.287a1.227 1.227 0 0 1 .568-.944Z" fill="#2C813F"/><path opacity=".6" d="m118.306 93.01 5.272-3.044c.31-.184.568-.051.568.288a1.244 1.244 0 0 1-.568.944l-5.272 3.043c-.317.185-.568.052-.568-.287a1.227 1.227 0 0 1 .568-.944Z" fill="#fff"/><path d="m118.306 97.942 5.272-3.045c.31-.184.568-.051.568.288a1.246 1.246 0 0 1-.568.944l-5.272 3.044c-.317.184-.568.051-.568-.288a1.222 1.222 0 0 1 .568-.944Z" fill="#2C813F"/><path opacity=".6" d="m118.306 97.942 5.272-3.045c.31-.184.568-.051.568.288a1.246 1.246 0 0 1-.568.944l-5.272 3.044c-.317.184-.568.051-.568-.288a1.222 1.222 0 0 1 .568-.944Z" fill="#fff"/><path d="m126.852 127.707 23.3-13.445c.317-.185.568-.052.568.287a1.226 1.226 0 0 1-.568.944l-23.3 13.445c-.317.184-.568.051-.568-.288a1.202 1.202 0 0 1 .568-.943ZM126.852 132.638l23.3-13.445c.317-.184.568-.051.568.288a1.202 1.202 0 0 1-.568.943l-23.3 13.445c-.317.185-.568.052-.568-.287a1.216 1.216 0 0 1 .568-.944ZM153.543 112.301l14.643-8.426c.317-.176.568-.051.568.288a1.223 1.223 0 0 1-.568.951l-14.643 8.418c-.31.184-.568.051-.568-.288a1.217 1.217 0 0 1 .568-.943ZM153.543 117.232l14.643-8.425c.317-.177.568-.052.568.295a1.212 1.212 0 0 1-.568.943l-14.643 8.418c-.31.184-.568.052-.568-.287.016-.191.075-.375.173-.539.099-.163.234-.302.395-.405Z" fill="#C8E6C9"/><path d="m118.306 132.638 5.272-3.044c.31-.184.568-.052.568.288a1.23 1.23 0 0 1-.568.943l-5.272 3.044c-.317.185-.568.059-.568-.287a1.226 1.226 0 0 1 .568-.944Z" fill="#2C813F"/><path opacity=".6" d="m118.306 132.638 5.272-3.044c.31-.184.568-.052.568.288a1.23 1.23 0 0 1-.568.943l-5.272 3.044c-.317.185-.568.059-.568-.287a1.226 1.226 0 0 1 .568-.944Z" fill="#fff"/><path d="m118.306 137.57 5.272-3.045c.31-.177.568-.051.568.288a1.226 1.226 0 0 1-.568.943l-5.272 3.052c-.317.177-.568.052-.568-.287a1.214 1.214 0 0 1 .568-.951Z" fill="#2C813F"/><path opacity=".6" d="m118.306 137.57 5.272-3.045c.31-.177.568-.051.568.288a1.226 1.226 0 0 1-.568.943l-5.272 3.052c-.317.177-.568.052-.568-.287a1.214 1.214 0 0 1 .568-.951Z" fill="#fff"/><path d="m146.605 61.882 6.754-3.885c.31-.184.568-.052.568.287a1.228 1.228 0 0 1-.568.944l-6.754 3.884c-.317.185-.575.06-.575-.287a1.22 1.22 0 0 1 .575-.944Z" fill="#2C813F"/><path opacity=".6" d="m146.605 61.882 6.754-3.885c.31-.184.568-.052.568.287a1.228 1.228 0 0 1-.568.944l-6.754 3.884c-.317.185-.575.06-.575-.287a1.22 1.22 0 0 1 .575-.944Z" fill="#fff"/><path d="m126.446 98.133 32.907-18.966c.31-.184.568-.052.568.287a1.226 1.226 0 0 1-.568.944l-32.907 18.959c-.31.184-.568.051-.568-.288a1.226 1.226 0 0 1 .568-.936ZM118.306 107.886l50.006-28.94c.317-.184.568-.052.568.288a1.207 1.207 0 0 1-.568.944l-50.006 28.939c-.317.184-.568.051-.568-.288a1.202 1.202 0 0 1 .568-.943ZM161.558 77.892l6.754-3.884c.318-.185.568-.052.568.287a1.191 1.191 0 0 1-.568.944l-6.754 3.892c-.317.177-.567.051-.567-.295a1.21 1.21 0 0 1 .567-.944Z" fill="#E8F5E9"/><path d="m126.852 78.216 26.087-15.067c.317-.184.575-.051.575.288a1.221 1.221 0 0 1-.575.943l-26.087 15.074c-.317.185-.575.052-.575-.287a1.212 1.212 0 0 1 .575-.95Z" fill="#2C813F"/><path opacity=".6" d="m126.852 78.216 26.087-15.067c.317-.184.575-.051.575.288a1.221 1.221 0 0 1-.575.943l-26.087 15.074c-.317.185-.575.052-.575-.287a1.212 1.212 0 0 1 .575-.95Z" fill="#fff"/><path d="m155.151 61.874 6.754-3.885c.309-.184.568-.058.568.288a1.24 1.24 0 0 1-.568.944l-6.754 3.884c-.317.184-.575.052-.575-.287a1.22 1.22 0 0 1 .575-.944Z" fill="#2C813F"/><path opacity=".6" d="m155.151 61.874 6.754-3.885c.309-.184.568-.058.568.288a1.24 1.24 0 0 1-.568.944l-6.754 3.884c-.317.184-.575.052-.575-.287a1.22 1.22 0 0 1 .575-.944Z" fill="#fff"/><path opacity=".1" d="M36.845 166.045 15.728 178.23a1.87 1.87 0 0 0-.848 1.474v25.453c0 .538.383.737.848.487l21.117-12.163a1.884 1.884 0 0 0 .848-1.474v-25.475c0-.538-.383-.752-.848-.487ZM30.858 115.508l-15.587 8.978a.859.859 0 0 0-.391.671v8.698c0 .25.177.346.39.221l15.588-8.978a.841.841 0 0 0 .39-.664v-8.705c0-.243-.176-.347-.39-.221ZM30.858 133.589l-15.587 8.978a.859.859 0 0 0-.391.671v8.698c0 .243.177.346.39.221l15.588-8.978a.858.858 0 0 0 .39-.671v-8.698c0-.243-.176-.347-.39-.221ZM30.858 151.693l-15.587 8.956a.838.838 0 0 0-.391.671v8.698c0 .243.177.346.39.221l15.588-8.964a.859.859 0 0 0 .39-.67v-8.698c0-.266-.176-.362-.39-.214Z" fill="#103E13"/><path d="m39.463 167.062-21.088 12.162a1.88 1.88 0 0 0-.848 1.474v25.453a1.852 1.852 0 0 0 .848 1.475l1.607.906a1.878 1.878 0 0 0 1.696 0l21.117-12.162a1.872 1.872 0 0 0 .848-1.475v-25.512a1.85 1.85 0 0 0-.855-1.474l-1.6-.906a1.88 1.88 0 0 0-1.725.059Z" fill="#2C813F"/><path opacity=".2" d="M21.649 208.488a1.932 1.932 0 0 1-1.696 0l-1.578-.907a1.819 1.819 0 0 1-.848-1.474v-25.423c.014-.307.108-.604.273-.863l3.28 1.902a1.7 1.7 0 0 0-.25.833v25.446c-.03.493.317.774.819.486Z" fill="#103E13"/><path opacity=".5" d="M43.599 169.265c-.067-.427-.413-.582-.834-.339l-21.117 12.17c-.25.154-.456.37-.597.627l-3.289-1.902c.141-.245.341-.45.583-.597l21.117-12.163a1.891 1.891 0 0 1 1.696 0l1.6.907a1.871 1.871 0 0 1 .84 1.297Z" fill="#fff"/><path d="m42.765 168.927-21.117 12.17a1.866 1.866 0 0 0-.848 1.474v25.445c0 .538.383.737.848.487l21.117-12.163a1.862 1.862 0 0 0 .84-1.474v-25.482c0-.509-.375-.737-.84-.457Z" fill="#2C813F"/><path d="M22.201 194.269a1.363 1.363 0 0 1 .089-.523c.079-.171.17-.336.273-.494l4.977-8.05a.661.661 0 0 1 .08-.095l.06-.045a.141.141 0 0 1 .184 0 .337.337 0 0 1 .061.115c.013.041.017.085.013.129v3.11c.008.225-.04.448-.14.649a4.094 4.094 0 0 1-.258.42l-2.212 3.347 2.212.855c.09.028.177.067.258.118.096.059.14.221.14.479v3.111a.736.736 0 0 1-.074.331.506.506 0 0 1-.184.221h-.06a.14.14 0 0 1-.08 0l-4.977-2.299a.753.753 0 0 1-.273-.185.685.685 0 0 1-.089-.413v-.781ZM33.062 180.617c.043-.173.105-.341.184-.501a.891.891 0 0 1 .362-.391l1.666-.965a.151.151 0 0 1 .1-.036c.036 0 .071.012.1.036a.339.339 0 0 1 .08.25c.006.062.006.123 0 .185l-4.21 17.941c-.037.17-.097.333-.177.487a.893.893 0 0 1-.369.405l-1.636.944a.146.146 0 0 1-.096.035.146.146 0 0 1-.096-.035.336.336 0 0 1-.081-.251.63.63 0 0 1 0-.184l4.173-17.92ZM42.213 183.522c.004.178-.026.356-.089.523-.08.168-.171.33-.272.486l-4.985 8.05a.451.451 0 0 1-.073.096l-.06.044c-.073.044-.14.044-.184 0a.326.326 0 0 1-.073-.243v-3.104a1.29 1.29 0 0 1 .14-.641c.096-.17.177-.31.25-.42l2.212-3.361-2.212-.833a.949.949 0 0 1-.25-.133c-.096-.066-.14-.229-.14-.479v-3.111a.74.74 0 0 1 .073-.332.47.47 0 0 1 .185-.221h.132l4.985 2.3c.103.04.197.103.273.184.069.126.1.27.088.413v.782Z" fill="#fff"/><path d="m33.497 116.488-15.587 8.985a.841.841 0 0 0-.391.664v8.705a.838.838 0 0 0 .39.664l1.542.877a.87.87 0 0 0 .737 0l15.632-9.015a.868.868 0 0 0 .383-.671v-8.698a.838.838 0 0 0-.39-.664l-1.534-.877a.919.919 0 0 0-.394-.074.92.92 0 0 0-.388.104Z" fill="#2C813F"/><path opacity=".4" d="m33.497 116.488-15.587 8.985a.841.841 0 0 0-.391.664v8.705a.838.838 0 0 0 .39.664l1.542.877a.87.87 0 0 0 .737 0l15.632-9.015a.868.868 0 0 0 .383-.671v-8.698a.838.838 0 0 0-.39-.664l-1.534-.877a.919.919 0 0 0-.394-.074.92.92 0 0 0-.388.104Z" fill="#103E13"/><path d="M36.196 117.955c0-.192-.185-.258-.384-.148l-15.587 8.979a.79.79 0 0 0-.273.287l-2.315-1.327a.738.738 0 0 1 .265-.28l15.587-8.978a.882.882 0 0 1 .782 0l1.534.877a.812.812 0 0 1 .39.59Z" fill="#2C813F"/><path d="m35.82 117.785-15.594 9.001a.845.845 0 0 0-.384.671v8.698c0 .243.17.346.384.221l15.594-9.008a.84.84 0 0 0 .384-.671v-8.698c0-.214-.133-.317-.384-.214Z" fill="#2C813F"/><path opacity=".2" d="m35.82 117.785-15.595 9.001a.845.845 0 0 0-.383.671v8.698c0 .243.17.346.383.221l15.595-9.008a.84.84 0 0 0 .383-.671v-8.698c0-.214-.132-.317-.383-.214Z" fill="#103E13"/><path d="M23.69 129.011v1.29c.007.104.022.208.045.31a.45.45 0 0 0 .11.221.29.29 0 0 0 .192.088c.1-.006.197-.04.28-.095a.846.846 0 0 0 .28-.222c.07-.074.13-.159.178-.25.046-.082.083-.168.11-.258 0-.089.044-.162.06-.229a.733.733 0 0 1 .05-.206.304.304 0 0 1 .119-.118l.649-.376h.073a.127.127 0 0 1 .037.096 3.197 3.197 0 0 1-.125.811 3.876 3.876 0 0 1-.819 1.474 2.427 2.427 0 0 1-.612.501 1.26 1.26 0 0 1-.641.199.74.74 0 0 1-.48-.169 1.008 1.008 0 0 1-.302-.487 2.588 2.588 0 0 1-.125-.737V129.49a4.55 4.55 0 0 1 .118-.869 4.09 4.09 0 0 1 .31-.841c.127-.265.288-.513.479-.737.183-.213.4-.394.641-.538.186-.114.396-.182.612-.199a.809.809 0 0 1 .487.118.88.88 0 0 1 .332.405c.084.212.126.437.125.664a.302.302 0 0 1-.037.14.201.201 0 0 1-.073.096l-.65.376c-.058 0-.095.036-.117 0a.292.292 0 0 1-.052-.14c0-.052 0-.111-.059-.17a.392.392 0 0 0-.11-.133.323.323 0 0 0-.177-.044.629.629 0 0 0-.28.103.88.88 0 0 0-.28.236 1.18 1.18 0 0 0-.192.302 1.476 1.476 0 0 0-.111.347 3.009 3.009 0 0 0-.044.405ZM27.96 124.456c.176-.113.376-.181.583-.199a.861.861 0 0 1 .465.096.833.833 0 0 1 .302.317.943.943 0 0 1 .11.45c.01.043.01.089 0 .132a.175.175 0 0 1-.073.096l-.65.376a.236.236 0 0 1-.117 0l-.081-.044-.052-.052a.28.28 0 0 0-.088-.059.367.367 0 0 0-.155 0 .446.446 0 0 0-.214.081c-.064.038-.126.08-.184.126a.993.993 0 0 0-.155.147.951.951 0 0 0-.11.184.524.524 0 0 0-.038.214.22.22 0 0 0 .045.162.187.187 0 0 0 .075.045.198.198 0 0 0 .087.007c.1-.004.198-.019.295-.044l.457-.118c.155-.046.317-.066.48-.059a.574.574 0 0 1 .338.125c.1.094.172.214.207.347.05.19.072.386.066.582-.002.25-.041.499-.118.737a3.345 3.345 0 0 1-.317.737c-.137.225-.303.43-.494.612a2.885 2.885 0 0 1-.612.472 1.478 1.478 0 0 1-.62.221.783.783 0 0 1-.796-.413 1.227 1.227 0 0 1-.117-.508.366.366 0 0 1 .036-.141.18.18 0 0 1 .067-.088l.656-.376a.199.199 0 0 1 .11-.037.117.117 0 0 1 .074.037l.067.059a.223.223 0 0 0 .103.081.306.306 0 0 0 .17 0 .514.514 0 0 0 .25-.088c.165-.092.314-.209.443-.347a.596.596 0 0 0 .177-.42.168.168 0 0 0-.067-.155.476.476 0 0 0-.192 0 1.875 1.875 0 0 0-.331.067l-.48.125a.734.734 0 0 1-.737-.133 1.333 1.333 0 0 1-.236-.914c0-.232.033-.462.096-.685.065-.242.16-.474.28-.693.124-.223.272-.43.443-.619.161-.174.348-.323.553-.443ZM31.536 122.37c.177-.109.376-.174.583-.192a.834.834 0 0 1 .457.096.74.74 0 0 1 .31.317c.07.14.109.293.11.45a.29.29 0 0 1 0 .133.258.258 0 0 1-.074.095l-.656.376a.174.174 0 0 1-.11 0 .147.147 0 0 1-.089-.037l-.044-.051a.25.25 0 0 0-.089-.059.337.337 0 0 0-.154 0 .553.553 0 0 0-.214.088.996.996 0 0 0-.185.126.948.948 0 0 0-.154.147.75.75 0 0 0-.111.184.536.536 0 0 0-.044.214.234.234 0 0 0 .051.162.184.184 0 0 0 .155.052c.102-.003.204-.018.303-.044l.457-.118c.152-.05.312-.07.472-.059a.554.554 0 0 1 .346.125c.096.093.165.21.2.339.051.192.076.391.073.59a2.63 2.63 0 0 1-.118.737 3.197 3.197 0 0 1-1.423 1.799c-.19.115-.4.19-.62.221a.846.846 0 0 1-.479-.089.815.815 0 0 1-.317-.331 1.073 1.073 0 0 1-.118-.502.318.318 0 0 1 0-.14.235.235 0 0 1 .074-.088l.656-.376c.044 0 .081-.044.103 0a.16.16 0 0 1 .081 0l.06.066c.032.033.07.06.11.081a.306.306 0 0 0 .17 0 .641.641 0 0 0 .25-.088c.164-.094.313-.211.443-.347a.597.597 0 0 0 .177-.42.17.17 0 0 0-.067-.155.367.367 0 0 0-.191 0 1.875 1.875 0 0 0-.332.067l-.48.118a.745.745 0 0 1-.737-.126 1.355 1.355 0 0 1-.243-.921c.003-.232.038-.463.103-.686.062-.24.156-.47.28-.685.121-.226.27-.437.443-.627.172-.174.368-.323.582-.442Z" fill="#F5F7FA"/><path d="m33.497 134.57-15.587 9.015a.868.868 0 0 0-.391.671v8.698a.85.85 0 0 0 .39.671l1.542.87a.84.84 0 0 0 .737 0l15.595-8.978a.893.893 0 0 0 .383-.671v-8.698a.859.859 0 0 0-.39-.671l-1.534-.87a.894.894 0 0 0-.745-.037Z" fill="#2C813F"/><path opacity=".4" d="m33.497 134.57-15.587 9.015a.868.868 0 0 0-.391.671v8.698a.85.85 0 0 0 .39.671l1.542.87a.84.84 0 0 0 .737 0l15.595-8.978a.893.893 0 0 0 .383-.671v-8.698a.859.859 0 0 0-.39-.671l-1.534-.87a.894.894 0 0 0-.745-.037Z" fill="#103E13"/><path d="M36.196 136.037c0-.192-.185-.266-.384-.155l-15.587 8.985a.784.784 0 0 0-.273.288l-2.315-1.327a.738.738 0 0 1 .265-.28l15.587-8.978a.856.856 0 0 1 .782 0l1.541.906a.835.835 0 0 1 .384.561Z" fill="#2C813F"/><path d="m35.82 135.882-15.594 8.985a.838.838 0 0 0-.384.664v8.705c0 .243.17.347.384.221l15.594-8.978a.863.863 0 0 0 .384-.671v-8.698c0-.25-.133-.346-.384-.228Z" fill="#2C813F"/><path opacity=".2" d="m35.82 135.882-15.594 8.985a.838.838 0 0 0-.384.664v8.705c0 .243.17.347.384.221l15.594-8.978a.863.863 0 0 0 .384-.671v-8.698c0-.25-.133-.346-.384-.228Z" fill="#103E13"/><path d="M23.765 145.015a.068.068 0 0 1 .021-.016.077.077 0 0 1 .026-.005c.01 0 .018.002.026.005a.068.068 0 0 1 .022.016.147.147 0 0 1 .044.118v4.953a.396.396 0 0 1-.044.17.236.236 0 0 1-.095.11l-.65.376a.053.053 0 0 1-.021.015.06.06 0 0 1-.052 0 .053.053 0 0 1-.022-.015V148.744l-1.106.642v1.872a.343.343 0 0 1-.044.17.259.259 0 0 1-.089.118l-.656.375a.071.071 0 0 1-.048.018.071.071 0 0 1-.048-.018.184.184 0 0 1 0-.125v-4.953a.476.476 0 0 1 0-.17.323.323 0 0 1 .096-.118l.656-.376a.077.077 0 0 1 .089 0 .173.173 0 0 1 .035.058c.008.022.01.045.009.068v1.842l1.106-.634v-1.85a.366.366 0 0 1 0-.169.285.285 0 0 1 .096-.111l.649-.368ZM27.407 142.914a.068.068 0 0 1 .022-.016.077.077 0 0 1 .026-.005c.009 0 .018.002.026.005a.068.068 0 0 1 .022.016.167.167 0 0 1 0 .117v.811a.434.434 0 0 1 0 .17.264.264 0 0 1-.096.118l-.878.508v3.929a.467.467 0 0 1-.044.177.314.314 0 0 1-.096.118l-.656.376a.09.09 0 0 1-.096 0 .19.19 0 0 1 0-.125v-3.929l-.877.501a.07.07 0 0 1-.048.018.07.07 0 0 1-.048-.018.214.214 0 0 1-.037-.125v-.811a.44.44 0 0 1 .037-.17.276.276 0 0 1 .096-.118l2.647-1.547ZM29.692 145.604a.345.345 0 0 1-.066-.088l-.472-.995v2.535a.355.355 0 0 1-.037.17.264.264 0 0 1-.096.118l-.648.376a.075.075 0 0 1-.096 0 .161.161 0 0 1 0-.126v-4.946a.35.35 0 0 1 0-.169.263.263 0 0 1 .096-.118l.575-.332h.147a.389.389 0 0 1 .067.081l.81 1.659.804-2.588a.927.927 0 0 1 .067-.162.328.328 0 0 1 .147-.169l.575-.332a.065.065 0 0 1 .048-.02.065.065 0 0 1 .048.02.14.14 0 0 1 0 .118v4.953a.354.354 0 0 1 0 .17.322.322 0 0 1-.096.118l-.649.376a.09.09 0 0 1-.095 0 .163.163 0 0 1 0-.125v-2.544l-.472 1.534c-.018.058-.04.114-.067.169a.291.291 0 0 1-.118.133l-.317.177c-.088.029-.125.037-.155.007ZM35.09 142.619h.088a.147.147 0 0 1 .044.118v.847a.34.34 0 0 1-.044.17.222.222 0 0 1-.088.118l-2.308 1.327a.076.076 0 0 1-.096 0 .194.194 0 0 1 0-.126v-4.953a.433.433 0 0 1 0-.162.264.264 0 0 1 .096-.118l.649-.376a.054.054 0 0 1 .022-.015.06.06 0 0 1 .052 0 .054.054 0 0 1 .022.015.146.146 0 0 1 .044.118v3.936l1.519-.899Z" fill="#F5F7FA"/><path d="m33.497 152.651-15.587 8.978a.853.853 0 0 0-.391.671v8.698a.859.859 0 0 0 .39.671l1.542.87a.87.87 0 0 0 .737 0l15.632-8.978a.884.884 0 0 0 .383-.671v-8.698a.859.859 0 0 0-.39-.671l-1.534-.87a.87.87 0 0 0-.782 0Z" fill="#2C813F"/><path opacity=".4" d="m33.497 152.651-15.587 8.978a.853.853 0 0 0-.391.671v8.698a.859.859 0 0 0 .39.671l1.542.87a.87.87 0 0 0 .737 0l15.632-8.978a.884.884 0 0 0 .383-.671v-8.698a.859.859 0 0 0-.39-.671l-1.534-.87a.87.87 0 0 0-.782 0Z" fill="#103E13"/><path d="M36.196 154.118c0-.191-.185-.265-.384-.154l-15.587 8.978a.883.883 0 0 0-.273.295l-2.315-1.335a.777.777 0 0 1 .265-.272l15.595-8.979a.896.896 0 0 1 .781 0l1.534.878a.824.824 0 0 1 .384.589Z" fill="#2C813F"/><path d="m35.82 153.963-15.594 8.978a.872.872 0 0 0-.384.671v8.72c0 .251.17.347.384.229l15.594-9a.866.866 0 0 0 .384-.671v-8.698c0-.251-.133-.347-.384-.229Z" fill="#2C813F"/><path opacity=".2" d="m35.82 153.963-15.594 8.978a.872.872 0 0 0-.384.671v8.72c0 .251.17.347.384.229l15.594-9a.866.866 0 0 0 .384-.671v-8.698c0-.251-.133-.347-.384-.229Z" fill="#103E13"/><path d="M23.993 164.998v1.297c.006.104.02.208.044.31.021.08.06.155.11.221.052.051.12.082.192.088.1-.007.197-.04.28-.095.105-.058.2-.133.28-.222.07-.078.13-.162.185-.25.042-.083.077-.169.103-.258 0-.089.044-.162.06-.236.01-.068.028-.134.05-.199a.258.258 0 0 1 .119-.118l.649-.376a.066.066 0 0 1 .08 0v.096a2.895 2.895 0 0 1-.125.811 3.857 3.857 0 0 1-.324.788 3.68 3.68 0 0 1-.494.679c-.173.201-.38.371-.612.501a1.27 1.27 0 0 1-.634.206.74.74 0 0 1-.48-.169 1.07 1.07 0 0 1-.31-.487 2.692 2.692 0 0 1-.125-.737V165.484c.01-.293.052-.585.126-.869.091-.291.215-.57.368-.833.129-.265.29-.513.48-.738.183-.212.4-.394.641-.538.186-.113.395-.181.612-.199a.788.788 0 0 1 .494.118c.148.099.26.24.325.406.087.21.13.436.125.663.01.046.01.094 0 .14a.264.264 0 0 1-.081.096l-.649.376h-.118a.4.4 0 0 1-.052-.14c0-.052 0-.111-.059-.17a.27.27 0 0 0-.103-.132.37.37 0 0 0-.184-.045.714.714 0 0 0-.28.096c-.106.063-.2.143-.28.236-.075.096-.14.2-.192.31a2.345 2.345 0 0 0-.11.346 3.012 3.012 0 0 0-.111.391ZM28.565 163.981v1.26c.01.057.01.114 0 .17a.264.264 0 0 1-.096.118l-.627.361a.071.071 0 0 1-.048.018.071.071 0 0 1-.048-.018.163.163 0 0 1 0-.125v-1.261l-.737.443a.083.083 0 0 1-.022.015.076.076 0 0 1-.026.005.077.077 0 0 1-.026-.005.085.085 0 0 1-.022-.015.17.17 0 0 1 0-.118v-.774a.438.438 0 0 1 0-.17.264.264 0 0 1 .096-.118l.737-.442v-1.312a.37.37 0 0 1 0-.17.245.245 0 0 1 .096-.11l.627-.369a.09.09 0 0 1 .096 0 .194.194 0 0 1 0 .126v1.26l.737-.442a.09.09 0 0 1 .096 0 .163.163 0 0 1 .037.125v.774a.356.356 0 0 1-.037.17.31.31 0 0 1-.096.117l-.737.487ZM31.868 162.071v1.268a.395.395 0 0 1-.044.17.273.273 0 0 1-.089.11l-.634.362a.055.055 0 0 1-.02.014.052.052 0 0 1-.049 0 .055.055 0 0 1-.02-.014.151.151 0 0 1-.044-.118v-1.268l-.737.449a.071.071 0 0 1-.048.018.071.071 0 0 1-.048-.018.158.158 0 0 1-.044-.125v-.774a.387.387 0 0 1 .044-.169.205.205 0 0 1 .096-.111l.737-.45v-1.26c0-.059.015-.118.045-.17a.26.26 0 0 1 .088-.118l.634-.361a.055.055 0 0 1 .02-.014.052.052 0 0 1 .049 0 .055.055 0 0 1 .02.014.15.15 0 0 1 .044.118v1.268l.737-.442a.053.053 0 0 1 .022-.015.06.06 0 0 1 .052 0 .054.054 0 0 1 .022.015.184.184 0 0 1 0 .125v.737c.01.054.01.109 0 .162a.264.264 0 0 1-.096.118l-.737.479Z" fill="#F5F7FA"/><path d="m205.429 50.397-12.911 7.46a1.03 1.03 0 0 0-.457.803v15.775a.985.985 0 0 0 .465.789l1.828 1.046a1.057 1.057 0 0 0 .929 0l12.911-7.467a1.015 1.015 0 0 0 .457-.796V52.232a1.01 1.01 0 0 0-.464-.796l-1.792-1.046a1.036 1.036 0 0 0-.966.007Z" fill="#333"/><path d="M195.283 76.263a1.076 1.076 0 0 1-.929 0l-1.828-1.046a.986.986 0 0 1-.465-.79V58.654a.954.954 0 0 1 .148-.471l2.75 1.577c-.089.148-.14.31-.14.06v15.773c0 .671.191.826.464.671Z" fill="#333"/><path opacity=".4" d="M208.644 52.18c-.037-.235-.221-.316-.45-.184l-12.91 7.467a.962.962 0 0 0-.325.34l-2.757-1.578a.99.99 0 0 1 .324-.332l12.911-7.467a1.02 1.02 0 0 1 .922 0l1.828 1.04a.998.998 0 0 1 .457.715Z" fill="#fff"/><path d="M190.801 70.359c-.295-.177-2.5-1.416-2.566-1.475a.432.432 0 0 1-.204-.305.432.432 0 0 1 .108-.35l3.922-4.497 2.758 1.585-4.099 4.378a.433.433 0 0 0 .081.664Z" fill="#37474F"/><path opacity=".4" d="M190.801 70.359c-.295-.177-2.5-1.416-2.566-1.475a.432.432 0 0 1-.204-.305.432.432 0 0 1 .108-.35l3.922-4.497 2.758 1.585-4.099 4.378a.433.433 0 0 0 .081.664Z" fill="#fff"/><path d="m208.194 51.96-12.911 7.467a1.01 1.01 0 0 0-.464.796v5.109l-4.1 4.378a.415.415 0 0 0 .022.665.416.416 0 0 0 .244.072l3.834-.28v5.86c0 .295.206.413.464.266l12.911-7.467a1.016 1.016 0 0 0 .457-.796V52.255c0-.324-.206-.442-.457-.295Z" fill="#37474F"/><path d="m205.658 65.958-2.647-1.983 2.728-5.219a.992.992 0 0 0-1.755-.921l-2.581 4.931-2.359-1.784a.994.994 0 0 0-1.098-.064.983.983 0 0 0-.457.603 1.001 1.001 0 0 0 .104.75c.066.112.153.21.256.289l2.625 1.983-2.617 4.997a.995.995 0 0 0 .42 1.342.99.99 0 0 0 1.335-.42l2.462-4.703 2.367 1.784a.997.997 0 0 0 1.386-.192.993.993 0 0 0-.169-1.393Z" fill="#F5F7FA"/><path d="M266.043 254.357a6.409 6.409 0 0 1 .678 3.34c-.051 1.009-.656 2.322-.383 4.599.273 2.278.796 3 1.04 4.607a5.68 5.68 0 0 1-.016 2.231 5.644 5.644 0 0 1-.877 2.052c-.943 1.533-3.023 2.749-7.137 2.602-3.318-.118-4.66-1.821-4.734-3.774l11.429-15.657Z" fill="#263238"/><path d="M265.099 249.654c.102.424.168.856.199 1.29.125.774.354 1.475.538 2.263.052.199.096.398.14.598.317 1.525 0 3.103 0 4.658a25.81 25.81 0 0 0 .966 5.425c.738 3.229.863 5.389-1.961 7.622-1.475 1.18-3.119 1.217-5.007 1.268a7.978 7.978 0 0 1-4.158-1.002c-1.209-.892-1.195-1.644-1.202-1.932-.111-3.427 1.128-7.415 1.379-10.835.093-.921.113-1.848.059-2.772-.118-1.135-.509-2.263-.634-3.406a1.984 1.984 0 0 1 .154-1.26 2.018 2.018 0 0 1 1.527-.686 75.306 75.306 0 0 1 4.52-.457 1.39 1.39 0 0 1 1.025.207c.294.265.302.737.383 1.098.081.361.361.826.737.737a.665.665 0 0 0 .457-.575c.037-.25.148-2.211.14-2.499.03.015.561-.066.738.258Z" fill="#37474F"/><path d="M215.167 261.028a2.533 2.533 0 0 0 0 1.887c.243.56 3.052 2.3 6.938 2.212a16.228 16.228 0 0 0 8.111-2.477c1.511-.922 3.06-1.04 4.984-1.076 1.924-.037 4.181-.738 4.837-1.6a4.609 4.609 0 0 0 0-2.587l-24.87 3.641Z" fill="#263238"/><path d="M229.235 249.552a8.092 8.092 0 0 0-.398.855 6.848 6.848 0 0 1-2.138 2.661 22.146 22.146 0 0 1-4.291 2.314c-.959.428-1.962.546-2.95.885-1.095.35-2.15.815-3.148 1.385-1.563.959-1.858 3.531-.17 4.622 1.475.936 5.361 2.049 9.534 1.047 2.278-.545 4.866-2.853 7.831-2.949 1.88-.066 5.456-.449 6.724-1.828.465-2.056-.044-2.638-.464-4.422a14.168 14.168 0 0 1-.354-3.008c0-.531.354-2.056-.738-2.211l-.11 1.142s-.214.384-1.379.59c-.376.066-.671.56-.87 1.01-.199.45-.325.796-.738.789a.738.738 0 0 1-.582-.457 5.442 5.442 0 0 1-.214-.737 2.943 2.943 0 0 0-1.762-1.747 8.947 8.947 0 0 0-2.065-.435c-.531-.081-.973-.31-1.474.147a1.62 1.62 0 0 0-.244.347Z" fill="#37474F"/><path d="M259.488 161.878c.737 11.255 1.128 17.808 3.141 48.524a80.298 80.298 0 0 1 2.809 16.099c.398 6.797 1.364 27.274 1.364 27.274s-5.478 4.496-11.797 2.418c0 0-5.736-30.105-7.742-39.496-1.917-9.015-3.392-18.87-3.392-18.87l-1.423 12.575s.251 5.595.074 13.947c-.089 4.467-2.212 28.644-2.212 28.644s-7.691 3.494-12.881-.995c0 0-.376-39.207-.458-43.247-.088-4.614.738-51.016.738-51.016l31.779 4.143Z" fill="#455A64"/><path d="m243.842 197.835-3.93-20.588s-6.076-.531-9.431-3.922c0 0 .597 3.325 8.236 5.315l3.797 18.959-.066 12.804 1.394-12.568ZM266.625 250.082a12.461 12.461 0 0 1-8.427 3.037s5.235-.782 8.376-4.231l.051 1.194ZM240.553 250.141s-5.36 1.872-9.88.442c0 0 3.487 2.344 9.799.421l.081-.863Z" fill="#37474F"/><path d="M184.014 119.994a1.276 1.276 0 0 0-.222-.487 2.211 2.211 0 0 1 .045-2.211c.13-.162.239-.341.324-.531.147-.405-.037-.862 0-1.297.133-1.939 3.642-1.091 4.756-.737.324.11 2.212.597 2.949.855a10 10 0 0 1 .31-3.162c.501-2.013 2.16-1.806 2.256-.575.091 1.114.299 2.216.619 3.287.207.789.738 1.57 1.04 2.735.435 1.474.325 2.3 1.799 3.686 2.212 2.086 13.567 9.781 13.567 9.781 2.832-1.82 13.788-8.558 17.895-10.784 3.975-2.16 6.002-.42 6.002-.42l-3.465 12.76s-13.663 7.047-18.588 9.199c-3.436 1.474-4.955.649-8.745-2.727-3.009-2.846-6.975-6.959-11.259-10.748-1.711-1.518-2.95-2.292-4.159-2.351-.457 0-.914-.052-1.364-.096-1.018-.118-2.212-.368-2.706-1.378-.17-.339-.251-.737-.391-1.077-.214-.545-.553-1.032-.737-1.577a2.213 2.213 0 0 1-.148-1.157c0-.317.266-.634.222-.988Z" fill="#E8F5E9"/><path d="M236.076 119.153c-3.495 0-4.851 0-9.29 2.521-4.439 2.521-13.095 8.249-13.095 8.249s3.878 2.159 4.653 9.826l14.009-6.576 3.723-14.02Z" fill="#455A64"/><path d="M190.516 116.758c1.158.28 1.519 1.01 1.6 2.639.045.965.45 2.727 1.549 3.368a2.51 2.51 0 0 1-1.408-.493c-.531-.48-.671-.524-.929-.214a1.766 1.766 0 0 1-.694.464 1.242 1.242 0 0 1 .214 1.474c-.45.87-2.713 1.04-4.63.207 0 0 3.074.737 3.686-.266.612-1.002-1.039-2.093-2.212-2.336 0 0 2.95.494 3.333-.487.384-.98-.87-1.621-2.61-1.938 0 0 2.433.272 2.787-.575a1.47 1.47 0 0 0-.686-1.843ZM211.427 131.36a9.127 9.127 0 0 1 3.407 4.202s.243-3.236-2.419-4.829l-.988.627Z" fill="#C8E6C9"/><path d="M227.288 131.758c.435-8.676 3.93-12.177 8.789-12.605l10.92-.737c2.949.686 10.617 2.16 10.617 2.16 3.178.951 5.412 9.236 4.668 13.954-.745 4.717-2.301 8.314-2.736 16.253.126 7.519.236 9.008.236 11.956-6.791 4.313-25.032 5.212-32.207.885 0 0-.125-7.268-.273-11.897-.25-7.939-.162-16.984-.014-19.969Z" fill="#2C813F"/><path d="M230.156 94.954a2.807 2.807 0 0 0-1.416 2.499c-.017.756.199 1.5.62 2.13a4.712 4.712 0 0 0 2.507 1.636c.427.102.844.243 1.246.42.5.357.969.757 1.401 1.194.671.516 1.334 1.047 2.02 1.548a41.318 41.318 0 0 0 4.254 2.787 30.373 30.373 0 0 0 4.424 2.078c1.615.597 2.95.074 4.675.229l-.251 4.673s.575-1.076 1.232-2.359c.567-1.105 2.949-6.737 2.949-6.737.929-2.211 2.109-4.526 1.969-6.995-.118-1.998-.516-3.752-2.035-4.6-.126-2.3-.649-3.42-2.264-4.651a8.928 8.928 0 0 0-3.989-1.474 16.224 16.224 0 0 0-4.844.17c-2.389.383-4.778.994-7.197.869a11.504 11.504 0 0 0-3.863.243 3.914 3.914 0 0 0-2.706 3.826c-.052.877.649 2.322 1.268 2.514Z" fill="#37474F"/><path d="M245.286 95.55c0 1.475 1.356 3.56 3.421 5.359a10.16 10.16 0 0 0 .111 4.113c.126.42.321.816.575 1.172a1.188 1.188 0 0 0 .862.546c.48 0 .671-.251.819-.627.218-.476.464-.939.737-1.386a3.41 3.41 0 0 1 .42-.53c.738-.671 2.869-1.474 3.864.796.996 2.27-.87 5.484-2.595 5.963-2.95.833-3.621-1.194-3.621-1.194l.052 9.833c-.833 2.492-5.449 4.917-9.165 4.423-3.716-.494-2.537-2.735-1.025-4.253l-.192-3.413a14.69 14.69 0 0 1-3.967-.147c-1.541-.295-2.809-1.74-3.45-4.092a35.822 35.822 0 0 1-.443-13.651c.561-2.772 1.246-3.966 1.578-4.29 0 .604 1.158 2.454 4.159 2.867 3.17.457 5.574-.545 7.86-1.489Z" fill="#E8F5E9"/><path d="M239.535 116.367c2.743-.251 4.969-.627 6.518-1.474 1.135-.598 2.116-2.462 2.411-3.126 0 0-.074 2.551-1.6 3.966-2.153 1.997-7.248 1.997-7.248 1.997l-.081-1.363Z" fill="#C8E6C9"/><path d="M240.973 103.851a.989.989 0 0 0 .611.91.993.993 0 0 0 1.078-.205.995.995 0 0 0-.657-1.708 1.027 1.027 0 0 0-.724.288 1.012 1.012 0 0 0-.308.715ZM241.334 100.6l2.411.995a1.363 1.363 0 0 0-.737-1.74 1.273 1.273 0 0 0-1.41.311 1.273 1.273 0 0 0-.264.434Z" fill="#263238"/><path d="m242.278 109.217-3.687 1.475a1.93 1.93 0 0 0 1.033 1.122 1.93 1.93 0 0 0 1.525.027 2.072 2.072 0 0 0 1.129-2.624Z" fill="#388E3B"/><path d="M240.132 111.804a1.882 1.882 0 0 0 0 .184 1.9 1.9 0 0 0 1.025-.118 2.045 2.045 0 0 0 1.239-1.901 1.788 1.788 0 0 0-.399-.045 1.883 1.883 0 0 0-1.865 1.88Z" fill="#C8E6C9"/><path d="m232.309 101.536 2.381-.922a1.239 1.239 0 0 0-1.13-.823 1.229 1.229 0 0 0-.484.086 1.294 1.294 0 0 0-.767 1.659ZM232.921 103.637a1.013 1.013 0 0 0 .579.974.996.996 0 0 0 .387.094 1.034 1.034 0 0 0 1.008-.581 1.046 1.046 0 0 0-.164-1.152 1.034 1.034 0 0 0-1.129-.279 1.042 1.042 0 0 0-.681.944Z" fill="#263238"/><path d="m238.214 108.73-3.672-.693 3.466-5.867.206 6.56Z" fill="#C8E6C9"/><path d="M258.249 120.753c4.593.796 7.373 2.27 8.553 5.897 1.673 5.16 6.355 19.777 7.321 24.974.59 3.191 1.512 5.211-1.194 7.312a191.737 191.737 0 0 1-20.159 12.752c-6.135 3.214-15.395 3.848-15.395 3.848l6.717-4.062 1.194-2.277 17.954-15.9-6.783-20.035s-1.711-10.298 1.792-12.509Z" fill="#E8F5E9"/><path d="M263.24 153.297a10.232 10.232 0 0 1 4.719-1.135s-1.593-1.371-5.11 0l.391 1.135Z" fill="#C8E6C9"/><path d="M257.615 120.576c2.101.39 4.424.619 6.562 1.975s2.529 3 4.173 8.064c1.645 5.064 3.584 12.531 3.584 12.531s-4.026 3.406-10.957 3.502c0 0-3.414-9.472-4.255-11.58-.84-2.109-2.956-8.905.893-14.492Z" fill="#455A64"/><path d="M250.212 166.079v.634a1.788 1.788 0 0 1-.856 1.563l-16.737 10.157a1.813 1.813 0 0 1-1.777 0l-31.529-17.263a1.811 1.811 0 0 1-.921-1.526v-.428l33.32 18.266 18.5-11.403Z" fill="#2C813F"/><path opacity=".5" d="M250.212 166.079v.634a1.788 1.788 0 0 1-.855 1.563l-16.738 10.157a1.806 1.806 0 0 1-1.777 0l-31.528-17.263a1.805 1.805 0 0 1-.922-1.526v-.428l33.32 18.266 18.5-11.403Z" fill="#fff"/><path opacity=".1" d="M250.212 166.079v.634a1.788 1.788 0 0 1-.855 1.563l-16.738 10.157a1.806 1.806 0 0 1-1.777 0l-31.528-17.263a1.805 1.805 0 0 1-.922-1.526v-.428l33.32 18.266 18.5-11.403Z" fill="#103E13"/><path d="m198.384 159.216 18.22-11.057a1.076 1.076 0 0 1 1.062 0l32.442 17.78a.234.234 0 0 1 0 .405l-18.396 11.167-33.328-18.295Z" fill="#2C813F"/><path opacity=".85" d="m198.384 159.216 18.22-11.056a1.066 1.066 0 0 1 1.062 0l32.442 17.779a.234.234 0 0 1 .085.319.229.229 0 0 1-.085.087l-18.396 11.167-33.328-18.296Z" fill="#fff"/><path d="m231.549 175.75 9.829-5.963-29.184-15.996-9.88 5.934 29.235 16.025Z" fill="#2C813F"/><path opacity=".6" d="m231.549 175.75 9.829-5.963-29.184-15.995-9.88 5.933 29.235 16.025Z" fill="#fff"/><path d="m236.386 159.835-.184.111-4.815 2.926-8.789-4.821-.184-.096 4.999-3.037 8.973 4.917Z" fill="#2C813F"/><path d="m236.202 159.946-4.815 2.926-8.789-4.821 4.822-2.919 8.782 4.814Z" fill="#2C813F"/><path opacity=".6" d="m236.202 159.946-4.815 2.926-8.789-4.821 4.822-2.919 8.782 4.814Z" fill="#fff"/><path d="M231.704 177.482v1.18a1.736 1.736 0 0 1-.892-.214l-31.499-17.278a1.811 1.811 0 0 1-.921-1.526v-.428l33.312 18.266Z" fill="#2C813F"/><path opacity=".03" d="M231.705 177.482v1.18a1.736 1.736 0 0 1-.892-.214l-31.499-17.278a1.805 1.805 0 0 1-.922-1.526v-.428l33.313 18.266Z" fill="#fff"/><path opacity=".2" d="M231.705 177.482v1.18a1.736 1.736 0 0 1-.892-.214l-31.499-17.278a1.805 1.805 0 0 1-.922-1.526v-.428l33.313 18.266Z" fill="#103E13"/><path d="M231.21 177.755a2.083 2.083 0 0 1-1.821-.103l-31.381-17.205a2.117 2.117 0 0 1-1.062-1.474l-3.834-20.153a1.828 1.828 0 0 1 0-.347 2.096 2.096 0 0 1 .59-1.511l32.575 17.883c.202.108.377.261.512.446.136.185.228.398.27.623l4.151 21.841Z" fill="#2C813F"/><path opacity=".4" d="M231.21 177.755a2.083 2.083 0 0 1-1.821-.103l-31.381-17.205a2.117 2.117 0 0 1-1.062-1.474l-3.834-20.153a1.828 1.828 0 0 1 0-.347 2.096 2.096 0 0 1 .59-1.511l32.575 17.883c.202.108.377.261.512.446.136.185.228.398.27.623l4.151 21.841Z" fill="#fff"/><path d="m231.704 177.482-.206.125a2.06 2.06 0 0 1-.288.148l-4.151-21.812a1.535 1.535 0 0 0-.782-1.068l-32.612-17.883c.123-.133.265-.247.42-.339l32.686 17.912a1.58 1.58 0 0 1 .782 1.076l4.151 21.841Z" fill="#2C813F"/><path opacity=".6" d="m231.704 177.483-.206.125a2.054 2.054 0 0 1-.288.147l-4.151-21.811a1.535 1.535 0 0 0-.782-1.069l-32.612-17.883c.123-.132.265-.246.42-.339l32.686 17.912a1.595 1.595 0 0 1 .782 1.077l4.151 21.841Z" fill="#fff"/><path d="m226.757 155.28.486-.295c.154.191.261.416.31.656l4.151 21.841-.206.125a2.06 2.06 0 0 1-.288.148l-4.151-21.812a1.554 1.554 0 0 0-.302-.663Z" fill="#2C813F"/><path opacity=".5" d="m226.757 155.28.486-.295c.154.191.261.416.31.656l4.151 21.841-.206.125a2.06 2.06 0 0 1-.288.148l-4.151-21.812a1.554 1.554 0 0 0-.302-.663Z" fill="#fff"/><path opacity=".1" d="m226.757 155.28.486-.295c.154.191.261.416.31.656l4.151 21.841-.206.125a2.06 2.06 0 0 1-.288.148l-4.151-21.812a1.554 1.554 0 0 0-.302-.663Z" fill="#103E13"/><path d="M213.344 159.467a6.853 6.853 0 0 0-3.214-3.951c-1.512-.826-2.537-.413-2.279.943.258 1.357 1.696 3.111 3.215 3.944 1.519.833 2.537.413 2.278-.936Z" fill="#455A64"/><path d="M250.824 164.295c-1.755 1.231-4.122.236-6.452.516s-4.321.855-6.194.803c-1.873-.051-2.787.325-1.474 1.821 1.312 1.496 5.065.634 6.083 1.091a2.21 2.21 0 0 1 .471 3.45c-1.098 1.275 6.253-1.187 7.234-2.698.98-1.511 1.659-4.791.332-4.983Z" fill="#E8F5E9"/></svg>