<svg width="411" height="307" fill="none" xmlns="http://www.w3.org/2000/svg"><path d="M205.266 306.099c87.807 0 158.988-4.156 158.988-9.282 0-5.127-71.181-9.282-158.988-9.282-87.806 0-158.988 4.155-158.988 9.282 0 5.126 71.182 9.282 158.988 9.282Z" fill="#F5F5F5"/><path d="m286.65 89.515-8.134-3.28s-10.734 19.574-13.809 20.566c-4.182 1.344-12.841 5.084-17.974 5.74-.697.82-1.837 3.37-1.73 4.296 6.896 2.305 22.05-.754 25.297-3.165 7.388-5.469 16.35-24.157 16.35-24.157Z" fill="#E58A7B"/><path d="M289.152 85.063c1.517 5.6-6.699 16.867-6.699 16.867l-10.767-6.035s2.017-4.633 4.477-9.348c3.944-7.618 11.259-7.872 12.989-1.484Z" fill="#4CAF4F"/><path opacity=".2" d="M289.152 85.063c1.517 5.6-6.699 16.867-6.699 16.867l-10.767-6.035s2.017-4.633 4.477-9.348c3.944-7.618 11.259-7.872 12.989-1.484Z" fill="#000"/><path opacity=".2" d="m275.958 98.305 4.239 2.378.747-13.013c-2.469 1.894-4.207 7.601-4.986 10.635Z" fill="#000"/><path d="M282.067 80.848s-8.381 18.647-3.494 53.365h33.021c.525-5.068-1.213-29.798 5.076-53.677a83.998 83.998 0 0 0-10.971-1.402c-4.673-.27-9.358-.27-14.03 0-3.24.33-6.449.902-9.602 1.714Z" fill="#4CAF4F"/><path opacity=".2" d="M282.067 80.848s-8.381 18.647-3.494 53.365h33.021c.525-5.068-1.213-29.798 5.076-53.677a83.998 83.998 0 0 0-10.971-1.402c-4.673-.27-9.358-.27-14.03 0-3.24.33-6.449.902-9.602 1.714Z" fill="#000"/><path d="M274.408 297.555c-.049.886 12.472 1.599 27.962 1.599s28.101-.713 28.15-1.599c.049-.885-12.464-1.591-27.961-1.591-15.498 0-28.093.714-28.151 1.591Z" fill="#E8ECF1" style="mix-blend-mode:multiply"/><path d="m296.45 274.286-5.857 2.267 5.045 13.033 5.857-2.267-5.045-13.033ZM322.566 291.249h-6.174l-2.264-14.292h6.175l2.263 14.292Z" fill="#E58A7B"/><path d="M315.965 290.536h6.937a.503.503 0 0 1 .5.426l.894 5.486a.964.964 0 0 1-.564 1.015.984.984 0 0 1-.403.084c-2.419-.041-3.584-.189-6.634-.189-1.878 0-5.74.197-8.348.197-2.607 0-2.779-2.559-1.705-2.796 4.821-1.042 6.691-2.46 8.298-3.838a1.546 1.546 0 0 1 1.025-.385ZM295.465 288.42l6.56-1.919a.532.532 0 0 1 .615.263l2.46 4.92a.94.94 0 0 1-.005.795.932.932 0 0 1-.61.509c-2.386.656-3.985 1.057-6.97 1.927-2.058.598-4.157 1.574-6.191 2.222-1.41.451-4.723.467-6.437.467-2.534 0-3.1-2.673-2.009-2.796 2.747-.303 3.116-.164 4.633-.927a21.055 21.055 0 0 0 6.625-4.575 3.082 3.082 0 0 1 1.329-.886Z" fill="#263238"/><path d="m247.767 112.508-6.79-2.845-2.796 7.527c2.783.424 5.614.424 8.397 0l1.189-4.682ZM235.926 109.466l-.18 5.002 2.435 2.706 2.796-7.528-5.051-.18Z" fill="#E58A7B"/><path d="m297.253 275.393-5.875 2.268 2.602 6.739 5.875-2.268-2.602-6.739ZM320.303 276.957h-6.175l1.173 7.371h6.175l-1.173-7.371Z" fill="#CF6F64"/><path opacity=".2" d="M277.524 124.824c.123 1.484.263 3.001.443 4.559l24.551-7.97a17.58 17.58 0 0 0 9.446-6.83c.098-2.19.221-4.494.41-6.897.082-1.164.18-2.361.287-3.575.107-1.213.254-2.558.41-3.854l-35.547 24.567Z" fill="#000"/><path d="m285.544 97.928-.82-.098c.483-4.1 3.542-7.33 6.765-7.249v.82c-2.821-.057-5.511 2.854-5.945 6.527ZM289.914 105.497h-.139v-.82c2.821.106 5.469-2.837 5.904-6.503l.82.099c-.435 4.009-3.395 7.224-6.585 7.224Z" fill="#fff"/><path d="M305.24 63.333c-1.157 4.518-2.518 12.792.459 15.801 0 0-2.083 4.584-10.472 4.584-7.667 0-3.558-4.584-3.558-4.584 5.1-1.197 5.19-4.92 4.518-8.446l9.053-7.355Z" fill="#E58A7B"/><path d="m301.55 66.334-5.355 4.354c.166.81.262 1.633.287 2.46 1.566 1.558 4.707-2.386 5.027-4.403a6.58 6.58 0 0 0 .041-2.411ZM286.987 63.276a5.409 5.409 0 0 0 3.485 2.574c1.968.435 2.952-1.377 2.41-3.198-.483-1.64-2.099-3.846-4.1-3.468a2.747 2.747 0 0 0-1.955 1.582 2.734 2.734 0 0 0 .16 2.51Z" fill="#CF6F64"/><path d="M290.242 48.819c-3.066 1.402-4.149 13.587-.295 15.391 3.854 1.804 6.101-18.056.295-15.391Z" fill="#263238"/><path d="M306.175 56.535c-.738 6.118-.82 9.717-4.1 12.85a7.896 7.896 0 0 1-7.988 2.016 7.885 7.885 0 0 1-5.427-6.198c-.993-5.494.377-14.572 6.51-17.007a7.897 7.897 0 0 1 11.005 8.34Z" fill="#E58A7B"/><path d="M296.096 51.984c4.543-1.156 7.88-1.943 6.683 1.837-1.582 5.051-3.485 9.938-.935 10.16 1.558.139 8.446-2.78 7.569-5.74-.763-2.575 2.46-3.28 3.034-4.584 2.124-4.723-3.952-4.1-2.87-6.97 1.082-2.87-4.92-7.495-8.2-5.19-5.338 3.722-14.497 3.665-9.684-2.46 3.452-4.371-2.706-3.477-2.706-3.477s3.723 2.206-2.542 5.617c-6.625 3.64-.549 13.423 9.651 10.807Z" fill="#263238"/><path d="M308.586 63.276a6.357 6.357 0 0 1-3.781 2.574c-2.025.435-2.804-1.377-2.041-3.198.68-1.64 2.55-3.846 4.485-3.468 1.935.377 2.378 2.484 1.337 4.092Z" fill="#E58A7B"/><path d="M278.574 134.213s-5.543 49.609-5.978 68.436c-.443 19.582 18.786 80.679 18.786 80.679l9.84-4.1s-11.48-55.825-9.84-75.054c1.738-20.967 8.921-69.928 8.921-69.928l-21.729-.033Z" fill="#4CAF4F"/><path opacity=".2" d="M292.35 147.833c-4.42 9.167-1.443 27.297.951 38.039.91-7.585 1.993-15.818 3.018-23.435-.099-11.71-1.009-20.754-3.969-14.604Z" fill="#000"/><path d="M300.787 275.981c.049 0 1.165 3.133 1.165 3.133l-11.349 4.772-1.788-3.329 11.972-4.576ZM290.291 134.213s4.239 47.182 7.044 64.853c3.083 19.36 15.17 83.836 15.17 83.836h11.307s-6.773-62.91-8.052-82.081c-1.394-20.795-4.166-66.608-4.166-66.608h-21.303Z" fill="#4CAF4F"/><path d="M323.985 279.958c.05 0 .378 3.157.378 3.157h-12.432l-.885-3.624 12.939.467Z" fill="#4CAF4F"/><path opacity=".2" d="M319.655 276.219a.113.113 0 0 1-.07-.025.111.111 0 0 1-.036-.065c-.066-.574-6.175-57.4-7.323-74.62-1.246-18.679-3.755-60.113-3.78-60.531a.105.105 0 0 1 .005-.04.1.1 0 0 1 .054-.059.106.106 0 0 1 .146.09c0 .419 2.534 41.82 3.78 60.532 1.148 17.22 7.257 74.004 7.315 74.619a.112.112 0 0 1-.002.041.098.098 0 0 1-.089.074v-.016Z" fill="#000"/><path d="M296.794 58.24c0 .501-.312.903-.64.903s-.566-.402-.533-.902c.033-.5.312-.902.64-.902s.566.41.533.902ZM291.169 58.24c0 .501-.32.903-.64.903s-.566-.402-.541-.902c.025-.5.32-.902.648-.902s.566.41.533.902Z" fill="#263238"/><path d="M292.94 58.495a19.065 19.065 0 0 1-2.624 4.256c.82.82 2.354.443 2.354.443l.27-4.699Z" fill="#DF5753"/><path d="M293.087 65.284a.139.139 0 0 1-.139-.147.155.155 0 0 1 .156-.148 4.2 4.2 0 0 0 3.28-1.541.155.155 0 0 1 .205 0 .15.15 0 0 1 0 .205 4.479 4.479 0 0 1-3.502 1.631ZM297.794 56.732a.277.277 0 0 1-.254 0 2.331 2.331 0 0 0-2.091-.222.279.279 0 0 1-.377-.13.301.301 0 0 1 .156-.394 2.876 2.876 0 0 1 2.648.246.283.283 0 0 1 .121.185.286.286 0 0 1-.047.216.332.332 0 0 1-.156.099ZM288.995 55.092a.237.237 0 0 1-.114-.066.281.281 0 0 1-.087-.205.284.284 0 0 1 .087-.205 3.063 3.063 0 0 1 2.525-1.017.275.275 0 0 1 .188.119.283.283 0 0 1 .042.218.32.32 0 0 1-.345.246 2.463 2.463 0 0 0-1.992.82.304.304 0 0 1-.304.09Z" fill="#263238"/><path d="m319.843 88.605-8.528-2.271s-8.363 20.59-11.324 21.927c-4.018 1.836-14.194 8.199-18.523 11.209-.238 1.025-.049 3.739.492 4.485 7.38-1.345 21.508-6.781 24.46-9.545 6.732-6.305 13.423-25.805 13.423-25.805Z" fill="#E58A7B"/><path d="M313.891 291.618a1.8 1.8 0 0 1-1.173-.319.817.817 0 0 1-.254-.771.488.488 0 0 1 .279-.41c.689-.353 2.616.869 2.837 1.008a.13.13 0 0 1 .053.065.125.125 0 0 1 .004.083.166.166 0 0 1-.041.076.168.168 0 0 1-.073.047 7.752 7.752 0 0 1-1.632.221Zm-.82-1.279a.43.43 0 0 0-.189 0 .182.182 0 0 0-.098.172.556.556 0 0 0 .164.533c.32.287 1.123.32 2.181.115a5.435 5.435 0 0 0-2.083-.82h.025Z" fill="#4CAF4F"/><path d="M315.482 291.397a.106.106 0 0 1-.066 0c-.615-.344-1.771-1.697-1.599-2.386a.508.508 0 0 1 .175-.277.51.51 0 0 1 .309-.109.775.775 0 0 1 .615.189c.68.582.721 2.37.721 2.46a.125.125 0 0 1-.014.078.117.117 0 0 1-.059.053.135.135 0 0 1-.082-.008Zm-1.099-2.501h-.058c-.188 0-.213.107-.221.148-.098.401.631 1.426 1.238 1.91a3.387 3.387 0 0 0-.615-1.935.499.499 0 0 0-.344-.123ZM292.12 290.593a2.354 2.354 0 0 1-1.55 0 .779.779 0 0 1-.402-.623.48.48 0 0 1 .173-.435c.656-.59 3.337 0 3.64.115a.13.13 0 0 1 .099.131.156.156 0 0 1-.09.148 12.05 12.05 0 0 1-1.87.664Zm-1.337-.976a.569.569 0 0 0-.254.123.17.17 0 0 0-.065.172.513.513 0 0 0 .262.419c.435.229 1.443.049 2.747-.501a8.093 8.093 0 0 0-2.69-.213Z" fill="#4CAF4F"/><path d="M293.965 289.929h-.066c-.82-.147-2.46-1.09-2.509-1.796 0-.164.074-.393.468-.524a1.047 1.047 0 0 1 .82.049c.885.434 1.353 2.009 1.377 2.083a.147.147 0 0 1-.041.139.144.144 0 0 1-.049.049Zm-1.943-2.074h-.082c-.255.09-.255.196-.255.229 0 .427 1.189 1.206 2.018 1.468a3.104 3.104 0 0 0-1.148-1.64.752.752 0 0 0-.533-.057Z" fill="#4CAF4F"/><path d="m282.165 118.986-8.552 3.936-.992 2.46 3.157 2.124s5.903-.64 7.584-4.437l-1.197-4.083Z" fill="#E58A7B"/><path d="M282.526 124.094a11.53 11.53 0 0 0-1.591-4.641l1.353-1.017a13.18 13.18 0 0 1 1.902 5.371l-1.664.287Z" fill="#263238"/><path d="M283.985 120.15a1.639 1.639 0 1 1-2-.64 1.494 1.494 0 0 1 2 .64Z" fill="#263238"/><path d="m267.832 126.103 1.14 1.148 7.675-3.28-3.034-1.05-5.781 3.182Z" fill="#E58A7B"/><path opacity=".2" d="M300.787 275.981c.049 0 1.165 3.133 1.165 3.133l-11.349 4.772-1.788-3.329 11.972-4.576ZM323.985 279.958c.05 0 .378 3.157.378 3.157h-12.432l-.885-3.624 12.939.467Z" fill="#000"/><path d="M322.066 86.244c2.255 7.273-6.56 17.219-6.56 17.219l-12.177-4.969a126.29 126.29 0 0 1 4.986-12.357c3.739-8.06 11.471-7.232 13.751.107Z" fill="#4CAF4F"/><path opacity=".2" d="M322.066 86.244c2.255 7.273-6.56 17.219-6.56 17.219l-12.177-4.969a126.29 126.29 0 0 1 4.986-12.357c3.739-8.06 11.471-7.232 13.751.107Z" fill="#000"/><path d="M201.069 13.37h-5.24v.845h5.24v-.844ZM268.896 46.799l-.634 14.073.844.038.634-14.073-.844-.038ZM267.267 17.159h-96.759l-9.004 201.488h96.759l9.004-201.488Z" fill="#4CAF4F"/><path opacity=".56" d="M264.38 19.93h-96.759l-9.003 201.489h96.759l9.003-201.488Z" fill="#FAFAFA"/><path opacity=".07" d="M261.493 22.694h-96.759l-9.011 201.488h96.759l9.011-201.488Z" fill="#4CAF4F"/><path d="M250.481 110.572h-82.589l-.689 15.416h82.59l.688-15.416Z" fill="#fff"/><path d="M213.312 99.322h-44.919l-.304 6.896h44.919l.304-6.896Z" fill="#4CAF4F"/><path d="M248.62 152.178h-82.589l-.689 15.416h82.589l.689-15.416Z" fill="#fff"/><path opacity=".47" d="M233.475 188.414h-55.538l-.829 18.474h55.538l.829-18.474Z" fill="#4CAF4F"/><path d="M229.76 209.758h-55.538a.133.133 0 0 1-.074 0 .117.117 0 0 1 0-.074l.82-18.482a.095.095 0 0 1 .029-.067.09.09 0 0 1 .07-.023h55.538a.072.072 0 0 1 .032-.008c.012 0 .023.003.033.008a.063.063 0 0 1 0 .065l-.803 18.524a.108.108 0 0 1-.107.057Zm-55.44-.197h55.342l.82-18.285H175.14l-.82 18.285Z" fill="#fff"/><path d="M203.61 140.929h-37.08l-.303 6.904h37.072l.311-6.904Z" fill="#4CAF4F"/><path d="M232.416 60.774a21.746 21.746 0 0 1-4.567 12.341 22.042 22.042 0 0 1-17.384 8.667 19.933 19.933 0 0 1-20.057-21.008 22.144 22.144 0 0 1 21.935-21.008 19.913 19.913 0 0 1 18.869 13.014 19.9 19.9 0 0 1 1.204 7.994Z" fill="#fff"/><path d="M234.393 44.161a5.743 5.743 0 0 1-1.214 3.28 5.877 5.877 0 0 1-4.624 2.304 5.316 5.316 0 0 1-4.412-2.304 5.413 5.413 0 0 1-.918-3.28 5.883 5.883 0 0 1 5.83-5.576 5.294 5.294 0 0 1 5.014 3.454c.252.678.362 1.4.324 2.122Z" fill="#4CAF4F"/><path d="M176.789 118.28a2.614 2.614 0 0 1-.808 1.738 2.61 2.61 0 0 1-1.775.722 2.33 2.33 0 0 1-1.714-.719 2.343 2.343 0 0 1-.648-1.741 2.602 2.602 0 0 1 2.583-2.46 2.339 2.339 0 0 1 1.711.721 2.345 2.345 0 0 1 .651 1.739ZM187.842 118.28a2.606 2.606 0 0 1-2.583 2.46 2.33 2.33 0 0 1-1.708-.721 2.351 2.351 0 0 1-.645-1.739 2.603 2.603 0 0 1 2.575-2.46 2.341 2.341 0 0 1 2.218 1.522c.111.3.16.619.143.938ZM198.903 118.28a2.604 2.604 0 0 1-2.583 2.46 2.34 2.34 0 0 1-2.361-2.46 2.611 2.611 0 0 1 2.583-2.46 2.345 2.345 0 0 1 1.714.719 2.332 2.332 0 0 1 .647 1.741ZM174.927 159.886a2.612 2.612 0 0 1-2.583 2.46 2.342 2.342 0 0 1-2.361-2.46 2.611 2.611 0 0 1 2.583-2.46 2.36 2.36 0 0 1 1.711.721 2.341 2.341 0 0 1 .65 1.739ZM185.981 159.886a2.61 2.61 0 0 1-2.575 2.46 2.337 2.337 0 0 1-2.362-2.46 2.61 2.61 0 0 1 2.583-2.46 2.351 2.351 0 0 1 1.709.722 2.337 2.337 0 0 1 .645 1.738ZM197.067 159.886a2.604 2.604 0 0 1-2.583 2.46 2.345 2.345 0 0 1-1.708-.723 2.35 2.35 0 0 1-.653-1.737 2.617 2.617 0 0 1 2.582-2.46 2.346 2.346 0 0 1 1.714.719 2.334 2.334 0 0 1 .648 1.741ZM208.104 159.886a2.619 2.619 0 0 1-2.583 2.46 2.353 2.353 0 0 1-2.362-2.46 2.62 2.62 0 0 1 2.583-2.46 2.356 2.356 0 0 1 1.711.721 2.359 2.359 0 0 1 .651 1.739ZM219.207 159.886a2.617 2.617 0 0 1-2.583 2.46 2.344 2.344 0 0 1-1.714-.718 2.336 2.336 0 0 1-.647-1.742 2.609 2.609 0 0 1 2.582-2.46 2.353 2.353 0 0 1 1.711.721 2.344 2.344 0 0 1 .651 1.739Z" fill="#263238"/><path d="M217.529 59.68c3.432-3.356 3.614-8.736.407-12.016-3.208-3.28-8.59-3.218-12.022.138-3.433 3.357-3.615 8.736-.407 12.016 3.207 3.28 8.59 3.218 12.022-.138ZM227.85 73.115a22.054 22.054 0 0 1-17.384 8.667 19.906 19.906 0 0 1-16.597-8.667c3.985-3.969 10.291-6.56 17.277-6.56 6.987 0 13.071 2.591 16.704 6.56Z" fill="#4CAF4F"/><path opacity=".1" d="M217.529 59.68c3.432-3.356 3.614-8.736.407-12.016-3.208-3.28-8.59-3.218-12.022.138-3.433 3.357-3.615 8.736-.407 12.016 3.207 3.28 8.59 3.218 12.022-.138ZM227.85 73.115a22.054 22.054 0 0 1-17.384 8.667 19.906 19.906 0 0 1-16.597-8.667c3.985-3.969 10.291-6.56 17.277-6.56 6.987 0 13.071 2.591 16.704 6.56Z" fill="#fff"/><path d="M107.204 129.703a108.7 108.7 0 0 0-2.312 5.403c-.714 1.821-1.444 3.698-2.075 5.568a70.716 70.716 0 0 0-2.936 11.316l-.18 1.205c-.017.207.002.415.057.615a6.41 6.41 0 0 0 .902 1.903 24.057 24.057 0 0 0 3.641 4.1 55.423 55.423 0 0 0 4.527 3.78 105.693 105.693 0 0 0 4.862 3.509l-1.533 2.878a58.02 58.02 0 0 1-11.029-6.322 26.55 26.55 0 0 1-4.92-4.657 11.688 11.688 0 0 1-1.96-3.502 7.952 7.952 0 0 1-.394-2.46v-1.025l.082-.82a64.127 64.127 0 0 1 2.682-12.578c.64-2.017 1.32-4.026 2.099-5.986.779-1.96 1.583-3.879 2.575-5.871l5.912 2.944Z" fill="#E58A7B"/><path d="m112.534 166.594 5.797-2.935-1.5 6.363s-3.977 1.115-5.822-.82l1.525-2.608Z" fill="#E58A7B"/><path d="m123.636 164.7-1.541 5.264-5.264.058 1.5-6.363 5.305 1.041Z" fill="#E58A7B"/><path d="M131.82 99.002c.31 1.137.742 2.236 1.287 3.28a1.334 1.334 0 0 1-1.303.419l.016-3.699Z" fill="#DF5753"/><path d="M131.648 99.052c.34 0 .615-.423.615-.944 0-.52-.275-.943-.615-.943-.339 0-.615.423-.615.944 0 .52.276.943.615.943Z" fill="#263238"/><path d="m131.468 97.198 1.247-.352s-.607.967-1.247.352Z" fill="#263238"/><path d="M115.806 105.021c.746 3.813 1.492 10.808-1.181 13.358 0 0 1.05 3.87 8.143 3.87 7.798 0 3.722-3.87 3.722-3.87-4.255-1.017-4.149-4.174-3.403-7.142l-7.281-6.216Z" fill="#E58A7B"/><path d="M113.731 96.33c.394 6.371.426 9.077 3.641 12.348 4.846 4.92 12.587 3.051 14.104-3.28 1.369-5.74.5-15.186-5.74-17.72a8.71 8.71 0 0 0-12.005 8.651Z" fill="#E58A7B"/><path d="M114.362 89.162c-3.198 1.165-7.462.296-5.789 10.16 1.771 10.447-.951 13.883-.951 13.883s12.128 2.583 24.51-.156c0 0-3.781-6.609-2.723-11.48 1.353-6.15.287-8.421.287-8.421s-10.84-5.626-15.334-3.986Z" fill="#263238"/><path d="M127.892 99.65a6.405 6.405 0 0 0 1 3.42c.87 1.328 1.895.82 2.149-.591.229-1.238.057-3.427-1.05-4.28-1.107-.853-2.083-.017-2.099 1.451Z" fill="#E58A7B"/><path d="M111.583 90.237c-.918-2.583 3.46-6.56 12.726-4.92 9.266 1.64 9.668 9.356 9.668 9.356l-1.87-2.23.082 2.345-9.52 1.828-11.086-6.38Z" fill="#263238"/><path d="M112.37 118.813a1.453 1.453 0 0 1 1.189-1.64c2.887-.475 9.446-1.443 12.743-.984 2.46.345 3.099 1.772 3.206 2.944a1.437 1.437 0 0 1-.404 1.124 1.442 1.442 0 0 1-1.113.434l-14.251-.639a1.462 1.462 0 0 1-1.37-1.239Z" fill="#4CAF4F"/><path opacity=".6" d="M112.37 118.813a1.453 1.453 0 0 1 1.189-1.64c2.887-.475 9.446-1.443 12.743-.984 2.46.345 3.099 1.772 3.206 2.944a1.437 1.437 0 0 1-.404 1.124 1.442 1.442 0 0 1-1.113.434l-14.251-.639a1.462 1.462 0 0 1-1.37-1.239Z" fill="#000"/><path d="m120.61 262.066 5.289 3.673 8.848-11.996-5.289-3.665-8.848 11.988ZM108.278 261.828l5.584 3.181 7.831-12.685-5.584-3.181-7.831 12.685Z" fill="#E58A7B"/><path d="m134.739 253.743-4.559 6.183-5.289-3.666 4.559-6.182 5.289 3.665ZM116.101 249.143l5.592 3.189-4.034 6.536-5.593-3.19 4.035-6.535Z" fill="#CF6F64"/><path d="M125.072 158.862s20.647 26.018 16.769 50.905c-3.124 20.098-21.246 47.313-21.246 47.313l-8.52-4.231a278.235 278.235 0 0 0 15.334-37.26 27.554 27.554 0 0 0 1.107-12.309 27.562 27.562 0 0 0-4.387-11.553c-10.463-15.276-27.224-6.183-15.949-32.865h16.892Z" fill="#4CAF4F"/><path opacity=".6" d="M125.072 158.862s20.647 26.018 16.769 50.905c-3.124 20.098-21.246 47.313-21.246 47.313l-8.52-4.231a278.235 278.235 0 0 0 15.334-37.26 27.554 27.554 0 0 0 1.107-12.309 27.562 27.562 0 0 0-4.387-11.553c-10.463-15.276-27.224-6.183-15.949-32.865h16.892Z" fill="#000"/><path opacity=".4" d="m135.198 175.573-3.001-2.985c0 .238 5.814 36.129 7.445 46.215a61.079 61.079 0 0 0 2.206-9.02c1.919-12.21-2.091-24.682-6.65-34.21Z" fill="#000"/><path d="M134.288 158.862s24.862 32.701 25.567 52.307c.582 16.4-27.059 48.174-27.059 48.174l-8.036-5.198s16.178-22.566 20.253-41c-1.574-18.269-34.866-54.283-34.866-54.283h24.141Z" fill="#4CAF4F"/><path opacity=".6" d="M134.288 158.862s24.862 32.701 25.567 52.307c.582 16.4-27.059 48.174-27.059 48.174l-8.036-5.198s16.178-22.566 20.253-41c-1.574-18.269-34.866-54.283-34.866-54.283h24.141Z" fill="#000"/><path d="M103.531 119.838c-2.657.632-5.207 10.291-5.207 10.291l10.389 6.937s3.461-7.642 2.247-10.987c-1.254-3.485-4.091-7.036-7.429-6.241Z" fill="#4CAF4F"/><path opacity=".2" d="m105.565 126.062-.722 8.422 3.862 2.591a34.6 34.6 0 0 0 2.354-7.495l-5.494-3.518Z" fill="#000"/><path d="M137.364 120.027s3.066 1.074-3.075 38.826h-26.125c.443-10.66.451-17.22-4.633-39.015a77.312 77.312 0 0 1 11.094-1.46 83.014 83.014 0 0 1 11.865 0c5.101.468 10.874 1.649 10.874 1.649Z" fill="#4CAF4F"/><path d="M140.02 126.062c.59 1.64 1.213 3.403 1.869 5.1.656 1.698 1.279 3.444 1.944 5.166l2.009 5.15.508 1.287.262.64.123.32v.049a1.678 1.678 0 0 0-.574-.508 2.332 2.332 0 0 0-1.066-.32 2.138 2.138 0 0 0-.91.172c-.377.172-.377.246-.369.238.068-.055.129-.118.181-.189.454-.596.846-1.236 1.172-1.91.386-.755.755-1.558 1.124-2.37.721-1.64 1.385-3.338 2.05-5.051a177.737 177.737 0 0 0 1.91-5.191l1.87-5.231 3.157.82c-.623 3.739-1.427 7.379-2.395 11.086a73.424 73.424 0 0 1-1.64 5.518 41.601 41.601 0 0 1-1.049 2.788 17.656 17.656 0 0 1-1.509 2.936 7.475 7.475 0 0 1-.722.885 4.426 4.426 0 0 1-1.492 1.058 3.651 3.651 0 0 1-3.321-.221 4.412 4.412 0 0 1-1.492-1.55 8.377 8.377 0 0 1-.304-.582l-.155-.312-.312-.639-.623-1.271c-.82-1.706-1.64-3.428-2.354-5.158-.713-1.73-1.467-3.485-2.173-5.248a75.563 75.563 0 0 1-1.935-5.428l6.216-2.034Z" fill="#E58A7B"/><path d="M137.363 120.027c3.141.746 6.675 10.028 6.675 10.028l-9.339 7.946s-6.044-10.119-4.822-13.456c1.271-3.477 3.387-5.494 7.486-4.518Z" fill="#4CAF4F"/><path d="m153.608 120.478 3.28-2.739 2.279 3.551-1.681 2.96s-2.673 2.46-5.035 1.205a4.242 4.242 0 0 1 1.157-4.977Z" fill="#E58A7B"/><path d="m162.808 117.747-.246.894-5.191.869-.508-1.771 5.945.008Z" fill="#E58A7B"/><path d="m133.436 259.762-9.365-6.052 1.681-2.919 10.521 6.47-2.837 2.501Z" fill="#4CAF4F"/><path d="M117.528 264.583a5.635 5.635 0 0 1-2.313-.82.142.142 0 0 1-.071-.054.147.147 0 0 1-.028-.085c0-.031.01-.061.028-.086a.142.142 0 0 1 .071-.054c.254-.082 2.46-.762 3.1-.238a.528.528 0 0 1 .18.501.866.866 0 0 1-.467.705 1.068 1.068 0 0 1-.5.131Zm-1.845-.902c1.025.525 1.845.713 2.238.517a.573.573 0 0 0 .295-.476c0-.131 0-.189-.073-.221-.345-.279-1.575-.066-2.477.18h.017Z" fill="#263238"/><path d="M115.273 263.821a.168.168 0 0 1-.115-.05.159.159 0 0 1 0-.147c0-.074.533-1.853 1.37-2.255a.813.813 0 0 1 .68 0 .536.536 0 0 1 .377.549c-.057.738-1.558 1.755-2.246 1.927l-.066-.024Zm1.591-2.239a.574.574 0 0 0-.23.057c-.508.246-.926 1.206-1.131 1.788.721-.303 1.713-1.107 1.746-1.558 0-.074 0-.164-.188-.246a.628.628 0 0 0-.197-.066v.025ZM129.229 268.125c-.927 0-2.214-1.189-2.92-1.918a.152.152 0 0 1 0-.173.181.181 0 0 1 .067-.062.182.182 0 0 1 .089-.02c.328 0 3.174.427 3.575 1.23a.466.466 0 0 1 0 .476.817.817 0 0 1-.647.459l-.164.008Zm-2.378-1.804c1.033 1.001 1.943 1.558 2.46 1.493a.564.564 0 0 0 .426-.304.173.173 0 0 0 0-.188c-.213-.443-1.73-.82-2.886-1.001Z" fill="#263238"/><path d="M126.942 266.28a2.6 2.6 0 0 1-.55-.041.146.146 0 0 1-.115-.09.175.175 0 0 1 0-.156c.05-.057 1.157-1.394 2.206-1.484.297-.023.592.071.82.263.32.278.304.524.222.68-.205.558-1.624.828-2.583.828Zm-.214-.303c.919.049 2.387-.254 2.575-.656 0 0 .066-.131-.147-.312a.832.832 0 0 0-.624-.196 3.591 3.591 0 0 0-1.804 1.172v-.008Z" fill="#263238"/><path d="m115.494 262.935-6.953-1.968a.506.506 0 0 0-.615.287l-2.346 5.272c-.055.135-.081.28-.075.426a1.022 1.022 0 0 0 .373.76c.112.093.242.161.383.2 2.46.64 3.641.82 6.699 1.697 1.886.525 4.576 1.501 7.175 2.239 2.6.738 3.469-1.796 2.46-2.337-4.559-2.411-4.92-4.1-6.166-5.904a1.682 1.682 0 0 0-.935-.672Z" fill="#4CAF4F"/><path d="m126.499 265.247-5.937-4.1a.512.512 0 0 0-.672.066l-3.936 4.231a1.016 1.016 0 0 0-.246.807 1.017 1.017 0 0 0 .442.718c2.091 1.402 3.174 1.968 5.79 3.78 1.64 1.116 4.813 3.592 7.027 5.133 2.214 1.542 3.862-.574 3.075-1.41-3.526-3.764-4.297-6.125-4.879-8.265a1.694 1.694 0 0 0-.664-.96ZM121.685 257.621l-10.701-5.321 1.107-2.903 11.431 5.609-1.837 2.615ZM107.77 157.32l-.902 2.361c-.091.181.123.369.426.369h27.125c.238 0 .435-.114.451-.262l.23-2.345c0-.156-.189-.295-.443-.295h-26.461a.492.492 0 0 0-.426.172Z" fill="#4CAF4F"/><path opacity=".4" d="m107.77 157.32-.902 2.361c-.091.181.123.369.426.369h27.125c.238 0 .435-.114.451-.262l.23-2.345c0-.156-.189-.295-.443-.295h-26.461a.492.492 0 0 0-.426.172Z" fill="#fff"/><path d="M112.041 160.28h-.713c-.139 0-.246-.073-.238-.164l.336-3.042c0-.082.132-.156.271-.156h.713c.14 0 .246.074.238.156l-.336 3.042c-.008.091-.131.164-.271.164ZM128.77 160.28h-.705c-.139 0-.246-.073-.238-.164l.328-3.042c0-.082.14-.156.279-.156h.705c.139 0 .254.074.238.156l-.328 3.042c-.041.091-.131.164-.279.164Z" fill="#4CAF4F"/><path d="M111.419 299.146c12.132 0 21.967-.712 21.967-1.591 0-.878-9.835-1.591-21.967-1.591-12.133 0-21.968.713-21.968 1.591 0 .879 9.835 1.591 21.968 1.591Z" fill="#F5F5F5" style="mix-blend-mode:multiply"/><path d="M124.801 295.308c-3.887-1.132-8.2-2.583-10.808-4.1-.074-.049-.156-.074-.23-.115v-17.597h7.864a2.343 2.343 0 0 0 1.568-3.949 2.34 2.34 0 0 0-1.568-.733h-7.823v-80.211h-4.723v80.211h-7.814a2.344 2.344 0 0 0-2.292 3.27 2.351 2.351 0 0 0 1.353 1.275c.3.11.62.156.939.137h7.814v17.573c-.073 0-.147.065-.221.114-2.649 1.542-6.929 2.993-10.816 4.1a1.148 1.148 0 0 0 .32 2.247h26.117c.262-.018.51-.125.702-.304a1.142 1.142 0 0 0 .206-1.428 1.146 1.146 0 0 0-.588-.49Z" fill="#E0E0E0"/><path d="M126.007 180.436h-29.16a4.247 4.247 0 0 0-4.247 4.247v8.667a4.248 4.248 0 0 0 4.248 4.248h29.159a4.248 4.248 0 0 0 4.247-4.248v-8.667a4.247 4.247 0 0 0-4.247-4.247ZM96.577 197.606v1.492c0 1.23 1.336 2.231 2.976 2.231h23.78c1.64 0 2.977-1.001 2.977-2.231v-1.492H96.577Z" fill="#4CAF4F"/><path opacity=".3" d="M96.577 197.606v1.492c0 1.23 1.336 2.231 2.976 2.231h23.78c1.64 0 2.977-1.001 2.977-2.231v-1.492H96.577Z" fill="#fff"/></svg>