<svg width="22" height="23" fill="none" xmlns="http://www.w3.org/2000/svg"><path opacity=".1" fill-rule="evenodd" clip-rule="evenodd" d="M.05 11.494C.05 5.48 4.926.607 10.938.607c6.012 0 10.886 4.874 10.886 10.887 0 6.012-4.874 10.886-10.886 10.886S.051 17.506.051 11.494Z" fill="#fff"/><path fill-rule="evenodd" clip-rule="evenodd" d="m10.611 9.456.023.377-.38-.047C8.866 9.61 7.656 9.01 6.628 8.003l-.503-.5-.13.37c-.273.822-.098 1.69.473 2.275.304.323.236.369-.29.177-.182-.062-.342-.108-.357-.085-.054.054.129.753.274 1.03.198.385.601.761 1.043.984l.373.177-.442.008c-.426 0-.441.007-.396.169.153.5.754 1.03 1.424 1.26l.472.162-.41.246a4.287 4.287 0 0 1-2.041.569c-.343.007-.625.038-.625.061 0 .077.93.508 1.47.677 1.622.5 3.548.284 4.995-.569 1.028-.607 2.056-1.814 2.536-2.983.259-.623.518-1.76.518-2.306 0-.354.022-.4.449-.823.251-.246.487-.515.533-.592.076-.146.068-.146-.32-.015-.647.23-.739.2-.419-.146.236-.246.518-.692.518-.823 0-.023-.114.016-.244.085a4.247 4.247 0 0 1-.67.261l-.411.131-.373-.254c-.206-.138-.495-.292-.647-.338-.389-.107-.983-.092-1.333.03-.952.347-1.553 1.239-1.485 2.215Z" fill="#fff"/></svg>