<svg width="23" height="23" fill="none" xmlns="http://www.w3.org/2000/svg"><path opacity=".1" fill-rule="evenodd" clip-rule="evenodd" d="M.71 11.494C.71 5.48 5.582.607 11.595.607c6.012 0 10.886 4.874 10.886 10.887 0 6.012-4.874 10.886-10.886 10.886C5.583 22.38.709 17.506.709 11.494Z" fill="#fff"/><path fill-rule="evenodd" clip-rule="evenodd" d="M16.133 7.751c.5.137.893.541 1.026 1.054.243.93.243 2.87.243 2.87s0 1.94-.243 2.87a1.475 1.475 0 0 1-1.026 1.054c-.906.25-4.537.25-4.537.25s-3.631 0-4.537-.25a1.474 1.474 0 0 1-1.026-1.054c-.243-.93-.243-2.87-.243-2.87s0-1.94.243-2.87a1.474 1.474 0 0 1 1.026-1.054c.906-.25 4.537-.25 4.537-.25s3.631 0 4.537.25Zm-5.626 2.291v3.629l2.903-1.814-2.903-1.815Z" fill="#fff"/></svg>