<svg width="23" height="23" fill="none" xmlns="http://www.w3.org/2000/svg"><path opacity=".1" fill-rule="evenodd" clip-rule="evenodd" d="M.733 11.494C.733 5.48 5.607.607 11.62.607c6.012 0 10.886 4.874 10.886 10.887 0 6.012-4.874 10.886-10.886 10.886C5.607 22.38.733 17.506.733 11.494Z" fill="#fff"/><path fill-rule="evenodd" clip-rule="evenodd" d="M11.62 5.688c-1.576 0-1.774.006-2.394.035-.618.028-1.04.126-1.409.27a2.843 2.843 0 0 0-1.028.669 2.85 2.85 0 0 0-.67 1.028c-.144.37-.242.792-.27 1.41-.028.619-.035.817-.035 2.394 0 1.576.007 1.774.035 2.393.028.618.126 1.04.27 1.41.148.381.347.705.67 1.028.322.323.646.521 1.028.67.369.143.791.241 1.409.27.62.028.817.035 2.394.035 1.577 0 1.774-.007 2.393-.035.618-.029 1.04-.127 1.41-.27a2.841 2.841 0 0 0 1.028-.67c.323-.323.521-.647.67-1.029.143-.369.24-.791.27-1.409.028-.62.035-.817.035-2.393 0-1.577-.007-1.775-.035-2.394-.03-.619-.127-1.04-.27-1.41a2.848 2.848 0 0 0-.67-1.028 2.837 2.837 0 0 0-1.028-.67c-.37-.143-.792-.241-1.41-.27-.62-.028-.817-.035-2.394-.035h.002Zm-.52 1.046h.52c1.55 0 1.734.005 2.347.033.566.026.873.12 1.078.2.27.105.464.231.667.434.203.204.329.397.434.668.08.204.174.512.2 1.078.028.612.034.796.034 2.345 0 1.55-.006 1.734-.034 2.346-.026.566-.12.873-.2 1.077-.105.271-.231.464-.434.667a1.796 1.796 0 0 1-.667.435c-.205.08-.512.174-1.078.2-.612.027-.796.034-2.347.034-1.55 0-1.734-.007-2.346-.034-.566-.026-.873-.121-1.078-.2a1.8 1.8 0 0 1-.667-.435 1.8 1.8 0 0 1-.435-.667c-.08-.204-.174-.512-.2-1.078-.028-.612-.033-.796-.033-2.346s.005-1.734.033-2.346c.026-.566.12-.873.2-1.078a1.8 1.8 0 0 1 .435-.667c.203-.204.396-.33.667-.435.205-.08.512-.174 1.078-.2.536-.024.744-.031 1.826-.033v.002Zm3.62.964a.697.697 0 1 0 0 1.393.697.697 0 0 0 0-1.393Zm-3.1.814a2.982 2.982 0 1 0 0 5.963 2.982 2.982 0 0 0 0-5.963Zm0 1.046a1.935 1.935 0 1 1 0 3.87 1.935 1.935 0 0 1 0-3.87Z" fill="#fff"/></svg>