<svg width="23" height="23" fill="none" xmlns="http://www.w3.org/2000/svg"><path opacity=".1" fill-rule="evenodd" clip-rule="evenodd" d="M.392 11.494C.392 5.48 5.266.607 11.278.607c6.013 0 10.887 4.874 10.887 10.887 0 6.012-4.874 10.886-10.887 10.886C5.266 22.38.392 17.506.392 11.494Z" fill="#fff"/><path fill-rule="evenodd" clip-rule="evenodd" d="M17.085 11.485a5.809 5.809 0 0 1-.457 2.257 5.846 5.846 0 0 1-2.103 2.55c-.31.21-.642.39-.986.535a5.834 5.834 0 0 1-4.52 0 5.868 5.868 0 0 1-1.846-1.242 5.85 5.85 0 0 1-1.244-1.843 5.776 5.776 0 0 1-.339-3.424 5.765 5.765 0 0 1 .874-2.075 5.853 5.853 0 0 1 1.568-1.565 5.75 5.75 0 0 1 2.078-.873 5.851 5.851 0 0 1 3.428.338 5.828 5.828 0 0 1 3.428 4.175c.079.382.119.774.119 1.167ZM9.163 7.007a4.959 4.959 0 0 0-2.737 3.458c.131 0 2.197.027 4.578-.605a29.821 29.821 0 0 0-1.841-2.853Zm2.252 3.616c-2.553.763-5.003.708-5.091.705-.001.053-.004.104-.004.157 0 1.272.48 2.432 1.27 3.309-.001-.003 1.356-2.407 4.031-3.27.065-.022.13-.041.196-.06a16.63 16.63 0 0 0-.402-.841Zm3.138-2.854a4.938 4.938 0 0 0-3.275-1.234c-.402 0-.793.048-1.168.138.074.1 1.006 1.334 1.854 2.888 1.87-.7 2.577-1.773 2.589-1.792Zm-2.398 4.515-.033.011c-2.925 1.018-3.88 3.07-3.891 3.093a4.953 4.953 0 0 0 4.983.656 20.59 20.59 0 0 0-1.059-3.76Zm1.894 3.307a4.952 4.952 0 0 0 2.125-3.32 7.202 7.202 0 0 0-3.09-.216 21.41 21.41 0 0 1 .965 3.537ZM12.345 10.3a15.702 15.702 0 0 1 .437.975c1.703-.214 3.381.146 3.453.16a4.921 4.921 0 0 0-1.127-3.094c-.01.013-.805 1.16-2.763 1.96Z" fill="#fff"/></svg>