<svg width="24" height="24" viewBox="0 0 24 24" fill="none" xmlns="http://www.w3.org/2000/svg">
<path fill-rule="evenodd" clip-rule="evenodd" d="M22.5432 1.88769C22.8032 2.14759 22.8912 2.5334 22.7698 2.88033L16.0722 22.0163C15.9426 22.3866 15.6001 22.6402 15.2081 22.6562C14.8161 22.6722 14.4541 22.4473 14.2948 22.0888L10.617 13.8139L2.34214 10.1362C1.98364 9.97684 1.75873 9.61481 1.77473 9.22283C1.79072 8.83085 2.04437 8.48835 2.41465 8.35875L21.5506 1.66116C21.8975 1.53974 22.2833 1.62779 22.5432 1.88769ZM12.4831 13.3009L15.0633 19.1063L19.5785 6.20552L12.4831 13.3009ZM18.2254 4.8524L5.32468 9.36766L11.13 11.9478L18.2254 4.8524Z" fill="white"/>
</svg>
