<svg width="88" height="76" viewBox="0 0 88 76" fill="none" xmlns="http://www.w3.org/2000/svg">
<path d="M88.0031 51.2992C88.0031 64.6555 77.1756 75.4829 63.8193 75.4829L27.5438 75.4829C23.8337 75.4829 20.8261 72.4753 20.8261 68.7652L20.8261 23.0848C20.8261 15.6647 26.8413 9.64947 34.2615 9.64947L81.2854 9.64947C84.9954 9.64947 88.0031 12.6571 88.0031 16.3672L88.0031 51.2992Z" fill="#E8F5E9"/>
<path d="M38.5469 31.6958C38.5469 27.4318 42.0036 23.9751 46.2676 23.9751H53.9883H57.9708C59.1164 23.9751 60.2029 24.484 60.9364 25.3641L68.535 34.4825C69.1131 35.1762 69.4298 36.0507 69.4298 36.9538V43.2769V54.858C69.4298 59.122 65.9731 62.5787 61.709 62.5787H46.2676C42.0036 62.5787 38.5469 59.122 38.5469 54.858V31.6958Z" stroke="#717171" stroke-width="2.89527"/>
<path d="M59.7789 24.9402V31.6958C59.7789 33.8278 61.5073 35.5562 63.6393 35.5562H68.4647" stroke="#717171" stroke-width="2.89527" stroke-linecap="round"/>
<path d="M46.2676 43.2769H61.709" stroke="#717171" stroke-width="2.89527" stroke-linecap="round"/>
<path d="M46.2676 52.9277H53.9883" stroke="#717171" stroke-width="2.89527" stroke-linecap="round"/>
</svg>
