<svg width="88" height="76" viewBox="0 0 88 76" fill="none" xmlns="http://www.w3.org/2000/svg">
<path d="M88.0031 51.3329C88.0031 64.6892 77.1756 75.5166 63.8193 75.5166L27.5438 75.5166C23.8337 75.5166 20.8261 72.509 20.8261 68.7989L20.8261 23.1185C20.8261 15.6984 26.8413 9.68316 34.2615 9.68316L81.2854 9.68317C84.9954 9.68317 88.0031 12.6908 88.0031 16.4009L88.0031 51.3329Z" fill="#E8F5E9"/>
<circle cx="6.57083" cy="6.57083" r="6.57083" transform="matrix(-1 0 0 1 60.97 29.7993)" stroke="#717171" stroke-width="2.89527"/>
<path d="M42.9001 52.6901C42.9001 51.2768 43.7886 50.016 45.1196 49.5407V49.5407C51.1203 47.3976 57.6779 47.3976 63.6786 49.5407V49.5407C65.0096 50.016 65.898 51.2768 65.898 52.6901V54.8511C65.898 56.8017 64.1704 58.3001 62.2394 58.0242L61.5956 57.9322C56.8222 57.2503 51.976 57.2503 47.2026 57.9322L46.5588 58.0242C44.6278 58.3001 42.9001 56.8017 42.9001 54.8511V52.6901Z" stroke="#717171" stroke-width="2.89527"/>
<path d="M64.2553 43.1227C67.1066 43.1227 69.4181 40.8112 69.4181 37.9599C69.4181 35.1086 67.1066 32.7971 64.2553 32.7971" stroke="#717171" stroke-width="2.89527" stroke-linecap="round"/>
<path d="M69.9097 54.9015L70.4155 54.9738C71.9327 55.1905 73.2902 54.0132 73.2902 52.4806V50.7827C73.2902 49.6722 72.5921 48.6816 71.5463 48.3081C70.5032 47.9356 69.4386 47.6454 68.3621 47.4377" stroke="#717171" stroke-width="2.89527" stroke-linecap="round"/>
<path d="M43.7214 43.1227C40.8701 43.1227 38.5586 40.8112 38.5586 37.9599C38.5586 35.1086 40.8701 32.7971 43.7214 32.7971" stroke="#717171" stroke-width="2.89527" stroke-linecap="round"/>
<path d="M38.067 54.9015L37.5612 54.9738C36.0439 55.1905 34.6865 54.0132 34.6865 52.4806V50.7827C34.6865 49.6722 35.3846 48.6816 36.4304 48.3081C37.4735 47.9356 38.5381 47.6454 39.6146 47.4377" stroke="#717171" stroke-width="2.89527" stroke-linecap="round"/>
</svg>
