<svg width="42" height="42" viewBox="0 0 42 42" fill="none" xmlns="http://www.w3.org/2000/svg">
<path opacity="0.1" fill-rule="evenodd" clip-rule="evenodd" d="M0.469971 20.676C0.469971 9.40291 9.60859 0.264282 20.8817 0.264282C32.1547 0.264282 41.2934 9.40291 41.2934 20.676C41.2934 31.949 32.1547 41.0877 20.8817 41.0877C9.60859 41.0877 0.469971 31.949 0.469971 20.676Z" fill="white"/>
<path fill-rule="evenodd" clip-rule="evenodd" d="M20.2703 16.8551L20.3131 17.5614L19.5993 17.4749C17.0007 17.1434 14.7306 16.0191 12.8031 14.1308L11.8608 13.1939L11.6181 13.8858C11.1041 15.4281 11.4325 17.0569 12.5033 18.1524C13.0744 18.7578 12.9459 18.8442 11.9608 18.4839C11.6181 18.3686 11.3183 18.2821 11.2897 18.3253C11.1898 18.4262 11.5324 19.7379 11.8037 20.2568C12.1749 20.9775 12.9316 21.6838 13.7597 22.1018L14.4593 22.4333L13.6312 22.4478C12.8317 22.4478 12.8031 22.4622 12.8888 22.7649C13.1744 23.7018 14.3023 24.6964 15.5587 25.1288L16.4439 25.4315L15.6729 25.8927C14.5307 26.5558 13.1886 26.9305 11.8465 26.9594C11.2041 26.9738 10.6758 27.0314 10.6758 27.0747C10.6758 27.2188 12.4176 28.026 13.4313 28.3431C16.4725 29.28 20.0847 28.8764 22.7974 27.2765C24.7249 26.1378 26.6524 23.8748 27.5519 21.6838C28.0373 20.5163 28.5227 18.383 28.5227 17.3596C28.5227 16.6965 28.5656 16.6101 29.3651 15.8173C29.8363 15.356 30.2789 14.8515 30.3645 14.7074C30.5073 14.4335 30.493 14.4335 29.7649 14.6786C28.5513 15.111 28.3799 15.0533 28.9796 14.4047C29.4222 13.9434 29.9505 13.1074 29.9505 12.8624C29.9505 12.8191 29.7363 12.8912 29.4936 13.0209C29.2366 13.1651 28.6655 13.3813 28.2372 13.511L27.4662 13.7561L26.7666 13.2804C26.3811 13.0209 25.8385 12.7327 25.553 12.6462C24.8248 12.4444 23.7112 12.4732 23.0544 12.7038C21.2697 13.3525 20.1418 15.0245 20.2703 16.8551Z" fill="white"/>
</svg>
