<svg width="48" height="47" viewBox="0 0 48 47" fill="none" xmlns="http://www.w3.org/2000/svg">
<path d="M34.9706 18.6076L39.0728 20.8267L39.9316 21.3092C41.7612 22.3371 41.7612 24.9873 39.9316 26.0152L28.2798 32.5615C25.5775 34.0798 22.2868 34.0798 19.5845 32.5615L7.93276 26.0152C6.10314 24.9873 6.10314 22.3371 7.93276 21.3092L8.79154 20.8267L12.6664 18.6076M35.8628 28.4878L39.5915 30.3648C41.5146 31.3329 41.5763 34.0732 39.6989 35.128L28.2798 41.5435C25.5775 43.0618 22.2868 43.0618 19.5845 41.5435L8.33206 35.2216C6.42234 34.1486 6.52757 31.3477 8.51234 30.4231L12.6664 28.4878M28.2798 23.0159L39.9316 16.4696C41.7612 15.4417 41.7612 12.7915 39.9316 11.7636L28.2798 5.21728C25.5775 3.69906 22.2868 3.69906 19.5845 5.21728L7.93276 11.7636C6.10315 12.7915 6.10314 15.4417 7.93276 16.4696L19.5845 23.0159C22.2868 24.5342 25.5775 24.5342 28.2798 23.0159Z" stroke="#717171" stroke-width="2.89527"></path>
</svg>
