<svg width="39" height="37" viewBox="0 0 39 37" fill="none" xmlns="http://www.w3.org/2000/svg">
<path fill-rule="evenodd" clip-rule="evenodd" d="M12.3568 4.1518C13.7278 1.59151 16.3984 -0.00469108 19.3027 0.0002256C22.2583 -0.0219396 24.9844 1.59066 26.3883 4.19172L37.6454 25.0294C38.9809 27.5035 38.9166 30.4977 37.4761 32.9122C36.0356 35.3267 33.4313 36.8055 30.6197 36.8055H7.98564C5.16568 36.8062 2.55453 35.3191 1.11635 32.8935C-0.32184 30.4678 -0.37372 27.4634 0.979864 24.9895L12.3568 4.1518ZM23.6938 5.60884C22.828 3.99064 21.1379 2.98429 19.3027 2.99415C17.4944 3.00669 15.8356 4.00042 14.9715 5.58888L3.61452 26.3867C2.76626 27.9289 2.79699 29.8047 3.69531 31.3183C4.59364 32.832 6.22554 33.7575 7.98564 33.7517H30.6197C32.3735 33.741 33.9941 32.8139 34.8922 31.3075C35.7904 29.801 35.8353 27.9346 35.0108 26.3867L23.6938 5.60884Z" fill="#717171"></path>
<path d="M19.3027 23.9518C18.4759 23.9518 17.8057 24.622 17.8057 25.4488C17.8057 26.2755 18.4759 26.9457 19.3027 26.9457C19.7013 26.9512 20.0852 26.7952 20.3672 26.5133C20.6491 26.2314 20.8051 25.8474 20.7996 25.4488C20.7997 25.0536 20.6413 24.6748 20.36 24.3973C20.0787 24.1197 19.6978 23.9664 19.3027 23.9718V23.9518Z" fill="#717171"></path>
<path d="M19.3027 21.2174C18.4804 21.2066 17.8165 20.5427 17.8057 19.7204V13.533C17.8057 12.7062 18.4759 12.036 19.3027 12.036C20.1294 12.036 20.7996 12.7062 20.7996 13.533V19.7204C20.7996 20.5472 20.1294 21.2174 19.3027 21.2174Z" fill="#717171"></path>
</svg>
