<svg width="107" height="97" viewBox="0 0 107 97" fill="none" xmlns="http://www.w3.org/2000/svg">
<path d="M101.947 66.2992C101.947 79.6555 91.1195 90.4829 77.7632 90.4829L41.4876 90.4829C37.7775 90.4829 34.7699 87.4753 34.7699 83.7652L34.7699 38.0848C34.7699 30.6647 40.7852 24.6495 48.2053 24.6495L95.2292 24.6495C98.9393 24.6495 101.947 27.6571 101.947 31.3672L101.947 66.2992Z" fill="#E8F5E9"></path>
<path d="M83.3737 55.2208C83.3737 65.6974 71.0206 76.6136 67.9323 76.6136C64.844 76.6136 52.4908 65.6974 52.4908 55.2208C52.4908 46.7815 59.4042 39.9402 67.9323 39.9402C76.4604 39.9402 83.3737 46.7815 83.3737 55.2208Z" stroke="#717171" stroke-width="2.89527"></path>
<circle cx="5.79054" cy="5.79054" r="5.79054" transform="matrix(-1 0 0 1 73.7229 48.626)" stroke="#717171" stroke-width="2.89527"></circle>
</svg>
