<svg width="769" height="573" viewBox="0 0 769 573" fill="none" xmlns="http://www.w3.org/2000/svg">
<path d="M384.5 572.811C549.137 572.811 682.602 565.019 682.602 555.406C682.602 545.794 549.137 538.002 384.5 538.002C219.862 538.002 86.3972 545.794 86.3972 555.406C86.3972 565.019 219.862 572.811 384.5 572.811Z" fill="#F5F5F5"></path>
<path d="M537.095 166.716L521.843 160.566C521.843 160.566 501.717 197.266 495.952 199.126C488.111 201.647 471.875 208.658 462.25 209.888C460.943 211.426 458.806 216.207 459.006 217.945C471.936 222.265 500.349 216.53 506.438 212.01C520.29 201.755 537.095 166.716 537.095 166.716Z" fill="#E58A7B"></path>
<path d="M541.784 158.367C544.629 168.868 529.223 189.993 529.223 189.993L509.036 178.677C509.036 178.677 512.818 169.991 517.431 161.15C524.826 146.867 538.54 146.39 541.784 158.367Z" fill="#4CAF4F"></path>
<path opacity="0.2" d="M541.784 158.367C544.629 168.868 529.223 189.993 529.223 189.993L509.036 178.677C509.036 178.677 512.818 169.991 517.431 161.15C524.826 146.867 538.54 146.39 541.784 158.367Z" fill="black"></path>
<path opacity="0.2" d="M517.046 183.197L524.994 187.656L526.394 163.256C521.766 166.808 518.506 177.509 517.046 183.197Z" fill="black"></path>
<path d="M528.5 150.465C528.5 150.465 512.786 185.427 521.95 250.524H583.864C584.848 241.022 581.589 194.652 593.381 149.88C586.589 148.553 579.717 147.675 572.81 147.251C564.048 146.744 555.265 146.744 546.503 147.251C540.43 147.868 534.411 148.942 528.5 150.465Z" fill="#4CAF4F"></path>
<path opacity="0.2" d="M528.5 150.465C528.5 150.465 512.786 185.427 521.95 250.524H583.864C584.848 241.022 581.589 194.652 593.381 149.88C586.589 148.553 579.717 147.675 572.81 147.251C564.048 146.744 555.265 146.744 546.503 147.251C540.43 147.868 534.411 148.942 528.5 150.465Z" fill="black"></path>
<g style="mix-blend-mode: multiply">
<path d="M514.14 556.79C514.048 558.451 537.526 559.788 566.569 559.788C595.612 559.788 619.258 558.451 619.35 556.79C619.443 555.13 595.981 553.808 566.922 553.808C537.864 553.808 514.248 555.145 514.14 556.79Z" fill="#E8ECF1"></path>
</g>
<path d="M555.468 513.161L544.487 517.412L553.946 541.848L564.927 537.597L555.468 513.161Z" fill="#E58A7B"></path>
<path d="M604.437 544.967H592.859L588.616 518.169H600.193L604.437 544.967Z" fill="#E58A7B"></path>
<path d="M592.059 543.629H605.066C605.292 543.63 605.51 543.711 605.682 543.857C605.854 544.004 605.968 544.206 606.004 544.429L607.68 554.715C607.715 554.973 607.695 555.235 607.62 555.485C607.544 555.734 607.416 555.964 607.244 556.16C607.072 556.355 606.86 556.511 606.622 556.617C606.384 556.724 606.126 556.777 605.866 556.775C601.33 556.698 599.147 556.421 593.428 556.421C589.907 556.421 582.665 556.79 577.776 556.79C572.887 556.79 572.564 551.993 574.578 551.547C583.618 549.595 587.124 546.935 590.137 544.352C590.669 543.885 591.352 543.628 592.059 543.629Z" fill="#263238"></path>
<path d="M553.622 539.663L565.922 536.065C566.141 536.003 566.375 536.018 566.585 536.108C566.795 536.197 566.968 536.356 567.075 536.557L571.687 545.782C571.794 546.016 571.849 546.271 571.848 546.528C571.846 546.785 571.789 547.039 571.679 547.272C571.569 547.505 571.41 547.711 571.212 547.876C571.014 548.041 570.783 548.16 570.534 548.227C566.06 549.457 563.062 550.21 557.466 551.84C553.607 552.962 549.671 554.792 545.858 556.006C543.213 556.852 537.002 556.883 533.788 556.883C529.038 556.883 527.977 551.87 530.022 551.64C535.172 551.071 535.864 551.332 538.708 549.902C543.362 547.868 547.58 544.955 551.131 541.323C551.801 540.56 552.66 539.987 553.622 539.663Z" fill="#263238"></path>
<path d="M464.187 209.827L451.457 204.492L446.214 218.606C451.432 219.401 456.74 219.401 461.958 218.606L464.187 209.827Z" fill="#E58A7B"></path>
<path d="M441.986 204.123L441.648 213.501L446.214 218.575L451.457 204.461L441.986 204.123Z" fill="#E58A7B"></path>
<path d="M556.975 515.236L545.959 519.489L550.838 532.125L561.853 527.872L556.975 515.236Z" fill="#CF6F64"></path>
<path d="M600.193 518.169H588.616L590.815 531.991H602.392L600.193 518.169Z" fill="#CF6F64"></path>
<path opacity="0.2" d="M519.983 232.92C520.214 235.703 520.475 238.547 520.813 241.468L566.845 226.524C574.034 224.393 580.282 219.876 584.557 213.717C584.742 209.612 584.972 205.291 585.326 200.787C585.48 198.603 585.664 196.359 585.864 194.083C586.064 191.808 586.341 189.286 586.633 186.857L519.983 232.92Z" fill="black"></path>
<path d="M535.019 182.49L533.481 182.306C534.388 174.618 540.123 168.561 546.165 168.714V170.252C540.876 170.144 535.834 175.602 535.019 182.49Z" fill="white"></path>
<path d="M543.214 196.681H542.953V195.144C548.242 195.344 553.208 189.824 554.023 182.952L555.56 183.136C554.745 190.654 549.195 196.681 543.214 196.681Z" fill="white"></path>
<path d="M571.949 117.624C569.781 126.096 567.229 141.609 572.81 147.251C572.81 147.251 568.905 155.846 553.177 155.846C538.801 155.846 546.504 147.251 546.504 147.251C556.067 145.007 556.236 138.026 554.975 131.415L571.949 117.624Z" fill="#E58A7B"></path>
<path d="M565.031 123.251L554.991 131.415C555.302 132.934 555.482 134.477 555.529 136.027C558.466 138.949 564.354 131.553 564.954 127.771C565.259 126.282 565.285 124.75 565.031 123.251Z" fill="#CF6F64"></path>
<path d="M537.724 117.516C538.423 118.727 539.364 119.781 540.488 120.611C541.613 121.442 542.896 122.032 544.259 122.344C547.949 123.159 549.794 119.761 548.779 116.348C547.872 113.273 544.843 109.137 541.092 109.844C540.288 110.01 539.536 110.365 538.898 110.881C538.26 111.397 537.755 112.059 537.425 112.81C537.096 113.561 536.951 114.381 537.003 115.199C537.055 116.018 537.302 116.813 537.724 117.516Z" fill="#CF6F64"></path>
<path d="M543.829 90.4105C538.079 93.0396 536.05 115.887 543.276 119.269C550.502 122.651 554.715 85.4137 543.829 90.4105Z" fill="#263238"></path>
<path d="M573.703 104.878C572.319 116.348 572.165 123.098 566.015 128.971C564.109 130.92 561.702 132.304 559.059 132.971C556.416 133.638 553.64 133.562 551.038 132.751C548.436 131.939 546.108 130.425 544.312 128.374C542.517 126.323 541.323 123.816 540.862 121.13C539.002 110.828 541.569 93.8085 553.07 89.2422C555.486 88.1764 558.143 87.7763 560.766 88.0833C563.389 88.3904 565.883 89.3935 567.987 90.9886C570.092 92.5836 571.732 94.7127 572.737 97.155C573.742 99.5972 574.075 102.264 573.703 104.878Z" fill="#E58A7B"></path>
<path d="M554.806 96.3452C563.324 94.1773 569.581 92.7014 567.337 99.7891C564.369 109.26 560.802 118.423 565.584 118.839C568.505 119.1 581.42 113.626 579.775 108.076C578.345 103.248 584.387 101.926 585.464 99.4816C589.446 90.6257 578.053 91.7942 580.082 86.413C582.112 81.0319 570.858 72.3605 564.708 76.6808C554.699 83.661 537.525 83.5533 546.55 72.0683C553.023 63.8736 541.476 65.5494 541.476 65.5494C541.476 65.5494 548.456 69.6852 536.71 76.0812C524.287 82.9076 535.68 101.25 554.806 96.3452Z" fill="#263238"></path>
<path d="M578.223 117.516C576.541 119.949 574.015 121.67 571.135 122.344C567.337 123.159 565.877 119.761 567.307 116.348C568.583 113.273 572.088 109.137 575.717 109.844C579.345 110.551 580.175 114.503 578.223 117.516Z" fill="#E58A7B"></path>
<path d="M521.95 250.524C521.95 250.524 511.557 343.542 510.742 378.842C509.912 415.557 545.966 530.115 545.966 530.115L564.415 522.428C564.415 522.428 542.891 417.756 545.966 381.702C549.225 342.389 562.693 250.585 562.693 250.585L521.95 250.524Z" fill="#4CAF4F"></path>
<path opacity="0.2" d="M547.781 276.061C539.493 293.251 545.074 327.244 549.564 347.385C551.271 333.164 553.3 317.727 555.222 303.444C555.037 281.489 553.331 264.53 547.781 276.061Z" fill="black"></path>
<path d="M563.601 516.339C563.693 516.339 565.784 522.213 565.784 522.213L544.505 531.161L541.154 524.919L563.601 516.339Z" fill="#4CAF4F"></path>
<path d="M543.921 250.524C543.921 250.524 551.87 338.991 557.128 372.123C562.909 408.423 585.572 529.316 585.572 529.316H606.773C606.773 529.316 594.074 411.36 591.675 375.414C589.062 336.423 583.865 250.524 583.865 250.524H543.921Z" fill="#4CAF4F"></path>
<path d="M607.097 523.796C607.189 523.796 607.804 529.715 607.804 529.715H584.496L582.835 522.92L607.097 523.796Z" fill="#4CAF4F"></path>
<path opacity="0.2" d="M598.978 516.785C598.93 516.786 598.883 516.769 598.846 516.738C598.81 516.707 598.785 516.664 598.778 516.616C598.655 515.54 587.201 408.992 585.048 376.705C582.711 341.681 578.006 263.992 577.96 263.208C577.958 263.183 577.961 263.157 577.97 263.133C577.978 263.109 577.991 263.086 578.009 263.068C578.026 263.049 578.047 263.034 578.071 263.024C578.094 263.013 578.119 263.008 578.145 263.008C578.195 263.008 578.244 263.027 578.281 263.061C578.318 263.096 578.341 263.142 578.345 263.193C578.345 263.977 583.096 341.604 585.433 376.69C587.585 408.977 599.039 515.447 599.147 516.601C599.151 516.626 599.15 516.652 599.144 516.677C599.138 516.702 599.126 516.725 599.11 516.746C599.094 516.766 599.074 516.783 599.051 516.795C599.029 516.807 599.003 516.814 598.978 516.816V516.785Z" fill="black"></path>
<path d="M556.113 108.076C556.113 109.014 555.529 109.767 554.914 109.767C554.299 109.767 553.853 109.014 553.915 108.076C553.976 107.138 554.499 106.385 555.114 106.385C555.729 106.385 556.175 107.154 556.113 108.076Z" fill="#263238"></path>
<path d="M545.567 108.076C545.567 109.014 544.967 109.767 544.368 109.767C543.768 109.767 543.307 109.014 543.353 108.076C543.399 107.138 543.952 106.385 544.567 106.385C545.182 106.385 545.628 107.154 545.567 108.076Z" fill="#263238"></path>
<path d="M548.887 108.553C547.604 111.417 545.95 114.099 543.968 116.532C545.505 118.07 548.38 117.363 548.38 117.363L548.887 108.553Z" fill="#DF5753"></path>
<path d="M549.164 121.283C549.128 121.283 549.093 121.276 549.06 121.262C549.027 121.248 548.998 121.227 548.973 121.201C548.949 121.175 548.93 121.145 548.918 121.111C548.905 121.078 548.9 121.042 548.902 121.006C548.906 120.932 548.939 120.861 548.993 120.81C549.048 120.758 549.12 120.73 549.194 120.73C550.37 120.738 551.533 120.482 552.597 119.982C553.662 119.482 554.6 118.75 555.344 117.839C555.398 117.793 555.466 117.767 555.537 117.767C555.607 117.767 555.676 117.793 555.729 117.839C555.779 117.891 555.806 117.96 555.806 118.031C555.806 118.103 555.779 118.172 555.729 118.224C554.932 119.191 553.929 119.968 552.793 120.498C551.657 121.027 550.417 121.296 549.164 121.283Z" fill="#263238"></path>
<path d="M557.989 105.247C557.915 105.285 557.833 105.304 557.751 105.304C557.668 105.304 557.586 105.285 557.512 105.247C556.937 104.875 556.283 104.644 555.601 104.572C554.92 104.5 554.232 104.589 553.592 104.832C553.529 104.863 553.461 104.881 553.392 104.886C553.322 104.89 553.252 104.881 553.186 104.858C553.12 104.835 553.06 104.799 553.008 104.752C552.956 104.706 552.914 104.649 552.884 104.586C552.827 104.449 552.826 104.295 552.881 104.158C552.935 104.02 553.041 103.909 553.177 103.848C553.98 103.52 554.851 103.39 555.716 103.47C556.581 103.551 557.413 103.838 558.143 104.309C558.202 104.349 558.252 104.401 558.291 104.46C558.33 104.52 558.356 104.587 558.369 104.657C558.382 104.727 558.381 104.799 558.366 104.869C558.351 104.938 558.322 105.004 558.281 105.062C558.203 105.151 558.102 105.215 557.989 105.247Z" fill="#263238"></path>
<path d="M541.491 102.172C541.409 102.152 541.335 102.11 541.276 102.049C541.225 101.999 541.184 101.939 541.156 101.873C541.129 101.807 541.115 101.737 541.115 101.665C541.115 101.593 541.129 101.522 541.156 101.456C541.184 101.39 541.225 101.331 541.276 101.281C541.865 100.62 542.599 100.104 543.421 99.773C544.242 99.4423 545.129 99.3058 546.011 99.3741C546.082 99.385 546.15 99.4103 546.21 99.4484C546.271 99.4866 546.323 99.5368 546.363 99.5959C546.404 99.655 546.432 99.7217 546.445 99.792C546.459 99.8623 546.457 99.9346 546.442 100.004C546.409 100.147 546.325 100.272 546.206 100.357C546.087 100.442 545.942 100.481 545.796 100.466C545.098 100.422 544.398 100.537 543.751 100.804C543.104 101.07 542.525 101.48 542.06 102.003C541.99 102.081 541.9 102.138 541.799 102.168C541.699 102.198 541.592 102.199 541.491 102.172Z" fill="#263238"></path>
<path d="M599.332 165.009L583.342 160.75C583.342 160.75 567.659 199.357 562.109 201.863C554.575 205.307 535.495 217.238 527.377 222.88C526.931 224.802 527.285 229.891 528.3 231.29C542.137 228.769 568.628 218.575 574.163 213.394C586.786 201.571 599.332 165.009 599.332 165.009Z" fill="#E58A7B"></path>
<path d="M588.17 545.659C587.39 545.721 586.613 545.509 585.972 545.059C585.774 544.88 585.626 544.653 585.542 544.4C585.459 544.146 585.442 543.876 585.495 543.614C585.505 543.451 585.559 543.293 585.651 543.158C585.743 543.022 585.87 542.914 586.018 542.845C587.309 542.184 590.923 544.475 591.338 544.736C591.383 544.765 591.419 544.807 591.438 544.857C591.457 544.907 591.46 544.962 591.445 545.013C591.432 545.067 591.405 545.116 591.368 545.157C591.33 545.197 591.283 545.227 591.23 545.244C590.228 545.49 589.202 545.629 588.17 545.659ZM586.633 543.26C586.517 543.235 586.396 543.235 586.279 543.26C586.22 543.29 586.172 543.337 586.139 543.394C586.106 543.452 586.091 543.517 586.095 543.583C586.054 543.762 586.061 543.949 586.115 544.124C586.169 544.3 586.268 544.458 586.402 544.583C587.002 545.121 588.509 545.182 590.492 544.798C589.311 544.02 587.981 543.497 586.587 543.26H586.633Z" fill="#4CAF4F"></path>
<path d="M591.153 545.244C591.113 545.257 591.069 545.257 591.03 545.244C589.876 544.598 587.709 542.061 588.031 540.77C588.08 540.565 588.195 540.383 588.36 540.251C588.524 540.12 588.728 540.048 588.939 540.047C589.145 540.02 589.355 540.037 589.554 540.098C589.753 540.159 589.936 540.262 590.092 540.401C591.368 541.492 591.445 544.844 591.445 545.013C591.452 545.064 591.443 545.115 591.417 545.16C591.392 545.204 591.353 545.239 591.306 545.259C591.255 545.27 591.201 545.264 591.153 545.244ZM589.092 540.555H588.985C588.631 540.555 588.585 540.754 588.57 540.831C588.385 541.585 589.753 543.506 590.891 544.414C590.886 543.115 590.484 541.849 589.738 540.785C589.56 540.63 589.329 540.547 589.092 540.555Z" fill="#4CAF4F"></path>
<path d="M547.349 543.737C546.409 544.065 545.384 544.065 544.444 543.737C544.23 543.622 544.049 543.454 543.917 543.25C543.785 543.045 543.707 542.811 543.69 542.569C543.671 542.417 543.69 542.262 543.747 542.12C543.803 541.977 543.895 541.851 544.013 541.754C545.243 540.647 550.271 541.754 550.839 541.969C550.894 541.983 550.941 542.015 550.975 542.06C551.008 542.104 551.026 542.159 551.024 542.215C551.026 542.273 551.011 542.33 550.981 542.379C550.951 542.428 550.907 542.468 550.855 542.492C549.723 543.003 548.55 543.42 547.349 543.737ZM544.843 541.908C544.667 541.943 544.503 542.022 544.367 542.138C544.318 542.175 544.28 542.225 544.258 542.282C544.237 542.339 544.231 542.401 544.244 542.461C544.254 542.623 544.304 542.779 544.39 542.916C544.476 543.053 544.595 543.166 544.736 543.245C545.551 543.676 547.442 543.338 549.886 542.307C548.24 541.892 546.535 541.757 544.843 541.908Z" fill="#4CAF4F"></path>
<path d="M550.809 542.492H550.686C549.149 542.215 546.074 540.447 545.981 539.125C545.981 538.817 546.12 538.387 546.858 538.141C547.107 538.052 547.372 538.014 547.636 538.03C547.9 538.046 548.158 538.115 548.395 538.233C550.056 539.048 550.932 542 550.978 542.138C550.989 542.185 550.988 542.233 550.974 542.279C550.961 542.325 550.936 542.366 550.901 542.399C550.878 542.437 550.847 542.469 550.809 542.492ZM547.165 538.602H547.012C546.535 538.771 546.535 538.971 546.535 539.032C546.535 539.832 548.764 541.293 550.317 541.785C549.96 540.55 549.203 539.468 548.165 538.71C547.856 538.553 547.5 538.514 547.165 538.602Z" fill="#4CAF4F"></path>
<path d="M528.685 221.973L512.649 229.353L510.789 233.965L516.708 237.947C516.708 237.947 527.778 236.748 530.93 229.629L528.685 221.973Z" fill="#E58A7B"></path>
<path d="M529.361 231.552C529.002 228.47 527.985 225.502 526.378 222.849L528.915 220.943C530.823 224 532.04 227.437 532.482 231.013L529.361 231.552Z" fill="#263238"></path>
<path d="M532.098 224.156C532.437 224.689 532.603 225.314 532.575 225.945C532.546 226.576 532.324 227.183 531.938 227.684C531.552 228.184 531.021 228.554 530.418 228.742C529.815 228.93 529.169 228.927 528.567 228.735C527.965 228.543 527.437 228.169 527.055 227.666C526.672 227.163 526.454 226.555 526.43 225.923C526.406 225.292 526.577 224.668 526.92 224.138C527.263 223.607 527.761 223.195 528.346 222.957C529.003 222.622 529.766 222.56 530.469 222.785C531.171 223.009 531.757 223.502 532.098 224.156Z" fill="#263238"></path>
<path d="M501.81 235.318L503.947 237.47L518.338 231.321L512.649 229.353L501.81 235.318Z" fill="#E58A7B"></path>
<path opacity="0.2" d="M563.601 516.339C563.693 516.339 565.784 522.213 565.784 522.213L544.505 531.161L541.154 524.919L563.601 516.339Z" fill="black"></path>
<path opacity="0.2" d="M607.097 523.796C607.189 523.796 607.804 529.715 607.804 529.715H584.496L582.835 522.92L607.097 523.796Z" fill="black"></path>
<path d="M603.499 160.581C607.727 174.219 591.199 192.868 591.199 192.868L568.367 183.551C571.074 175.669 574.194 167.935 577.715 160.381C584.726 145.268 599.225 146.821 603.499 160.581Z" fill="#4CAF4F"></path>
<path opacity="0.2" d="M603.499 160.581C607.727 174.219 591.199 192.868 591.199 192.868L568.367 183.551C571.074 175.669 574.194 167.935 577.715 160.381C584.726 145.268 599.225 146.821 603.499 160.581Z" fill="black"></path>
<path d="M376.629 23.9448H366.805V25.5284H376.629V23.9448Z" fill="#4CAF4F"></path>
<path d="M503.806 86.6226L502.617 113.01L504.199 113.081L505.388 86.6939L503.806 86.6226Z" fill="#4CAF4F"></path>
<path d="M500.75 31.0479H319.327L302.445 408.838H483.868L500.75 31.0479Z" fill="#4CAF4F"></path>
<path opacity="0.56" d="M495.338 36.2446H313.915L297.033 414.035H478.456L495.338 36.2446Z" fill="#FAFAFA"></path>
<path opacity="0.07" d="M489.926 41.4258H308.503L291.606 419.216H473.029L489.926 41.4258Z" fill="#4CAF4F"></path>
<path d="M469.277 206.198H314.422L313.131 235.102H467.986L469.277 206.198Z" fill="white"></path>
<path d="M399.584 185.104H315.361L314.792 198.034H399.015L399.584 185.104Z" fill="#4CAF4F"></path>
<path d="M465.787 284.21H310.932L309.64 313.115H464.495L465.787 284.21Z" fill="white"></path>
<path opacity="0.47" d="M437.39 352.151H333.256L331.704 386.791H435.837L437.39 352.151Z" fill="#4CAF4F"></path>
<path d="M430.425 392.172H326.291C326.246 392.183 326.198 392.183 326.153 392.172C326.138 392.127 326.138 392.078 326.153 392.033L327.691 357.378C327.69 357.355 327.695 357.331 327.705 357.31C327.714 357.288 327.728 357.269 327.745 357.253C327.763 357.237 327.783 357.225 327.806 357.217C327.828 357.21 327.852 357.207 327.875 357.209H432.009C432.028 357.2 432.049 357.195 432.07 357.195C432.092 357.195 432.113 357.2 432.132 357.209C432.142 357.228 432.148 357.249 432.148 357.271C432.148 357.292 432.142 357.314 432.132 357.332L430.625 392.064C430.606 392.1 430.577 392.13 430.542 392.149C430.506 392.168 430.465 392.176 430.425 392.172ZM326.476 391.803H430.241L431.778 357.517H328.013L326.476 391.803Z" fill="white"></path>
<path d="M381.395 263.116H311.87L311.301 276.061H380.811L381.395 263.116Z" fill="#4CAF4F"></path>
<path d="M435.406 112.826C435.009 121.239 432.018 129.322 426.843 135.966C423.012 140.984 418.082 145.058 412.432 147.875C406.782 150.693 400.561 152.178 394.248 152.217C389.146 152.256 384.09 151.25 379.392 149.261C374.694 147.272 370.452 144.342 366.929 140.652C363.406 136.961 360.676 132.589 358.906 127.803C357.137 123.018 356.366 117.921 356.641 112.826C357.182 102.255 361.741 92.289 369.386 84.9671C377.031 77.6452 387.184 73.5204 397.769 73.4362C402.875 73.3886 407.936 74.3885 412.64 76.374C417.344 78.3596 421.591 81.2887 425.118 84.9804C428.646 88.672 431.379 93.0477 433.148 97.8372C434.918 102.627 435.686 107.728 435.406 112.826Z" fill="white"></path>
<path d="M439.112 81.6775C439.012 83.9142 438.216 86.064 436.837 87.8274C435.816 89.1603 434.504 90.2425 433.001 90.9912C431.498 91.7399 429.844 92.1355 428.165 92.1477C426.539 92.1576 424.934 91.769 423.492 91.0159C422.051 90.2628 420.815 89.1681 419.894 87.8274C418.674 86.0157 418.07 83.8592 418.172 81.6775C418.32 78.8706 419.534 76.2262 421.565 74.2835C423.597 72.3408 426.293 71.2461 429.103 71.2226C430.459 71.2102 431.803 71.4756 433.053 72.0024C434.302 72.5293 435.431 73.3064 436.368 74.2859C437.306 75.2654 438.033 76.4265 438.505 77.6977C438.977 78.969 439.184 80.3234 439.112 81.6775Z" fill="#4CAF4F"></path>
<path d="M331.104 220.65C331.03 221.889 330.489 223.054 329.59 223.91C328.692 224.766 327.502 225.249 326.261 225.263C325.661 225.27 325.067 225.154 324.514 224.922C323.962 224.691 323.463 224.348 323.047 223.916C322.632 223.483 322.311 222.971 322.102 222.409C321.893 221.847 321.801 221.249 321.833 220.65C321.899 219.409 322.438 218.24 323.338 217.382C324.239 216.525 325.433 216.044 326.676 216.038C327.274 216.033 327.868 216.15 328.419 216.383C328.971 216.615 329.469 216.958 329.884 217.39C330.298 217.821 330.621 218.333 330.83 218.894C331.04 219.455 331.133 220.052 331.104 220.65Z" fill="#263238"></path>
<path d="M351.829 220.65C351.759 221.891 351.219 223.058 350.32 223.914C349.42 224.771 348.228 225.253 346.986 225.263C346.388 225.268 345.795 225.15 345.245 224.918C344.694 224.685 344.196 224.342 343.783 223.91C343.37 223.478 343.049 222.966 342.841 222.405C342.633 221.845 342.542 221.247 342.573 220.65C342.64 219.412 343.176 218.245 344.073 217.388C344.97 216.531 346.161 216.048 347.401 216.038C348 216.031 348.595 216.147 349.147 216.378C349.7 216.61 350.199 216.953 350.614 217.385C351.029 217.817 351.351 218.33 351.56 218.892C351.769 219.453 351.861 220.052 351.829 220.65Z" fill="#263238"></path>
<path d="M372.57 220.65C372.499 221.891 371.96 223.058 371.06 223.914C370.161 224.771 368.969 225.253 367.727 225.263C367.128 225.268 366.535 225.15 365.983 224.918C365.431 224.685 364.933 224.343 364.519 223.911C364.104 223.479 363.782 222.967 363.572 222.407C363.362 221.846 363.269 221.248 363.299 220.65C363.369 219.41 363.909 218.243 364.808 217.387C365.708 216.53 366.9 216.048 368.142 216.038C368.741 216.031 369.335 216.147 369.888 216.378C370.441 216.61 370.94 216.953 371.355 217.385C371.77 217.817 372.092 218.33 372.301 218.892C372.51 219.453 372.601 220.052 372.57 220.65Z" fill="#263238"></path>
<path d="M327.614 298.662C327.54 299.901 326.999 301.066 326.1 301.922C325.202 302.778 324.012 303.261 322.771 303.274C322.172 303.279 321.579 303.162 321.027 302.929C320.475 302.697 319.977 302.354 319.563 301.923C319.148 301.491 318.826 300.979 318.616 300.418C318.406 299.857 318.313 299.26 318.343 298.662C318.413 297.422 318.953 296.255 319.852 295.398C320.752 294.541 321.944 294.059 323.186 294.049C323.784 294.045 324.378 294.162 324.929 294.394C325.481 294.627 325.979 294.969 326.394 295.401C326.808 295.833 327.13 296.345 327.34 296.906C327.55 297.466 327.643 298.064 327.614 298.662Z" fill="#263238"></path>
<path d="M348.338 298.662C348.268 299.899 347.731 301.064 346.834 301.921C345.938 302.777 344.75 303.261 343.511 303.274C342.911 303.282 342.317 303.166 341.764 302.934C341.212 302.702 340.713 302.36 340.297 301.927C339.882 301.495 339.561 300.982 339.352 300.421C339.143 299.859 339.051 299.26 339.083 298.662C339.153 297.422 339.693 296.255 340.592 295.398C341.492 294.541 342.684 294.059 343.926 294.049C344.524 294.044 345.116 294.162 345.667 294.394C346.218 294.627 346.716 294.97 347.129 295.402C347.542 295.834 347.863 296.346 348.071 296.907C348.279 297.468 348.37 298.065 348.338 298.662Z" fill="#263238"></path>
<path d="M369.126 298.662C369.056 299.902 368.516 301.069 367.616 301.926C366.717 302.783 365.525 303.265 364.283 303.275C363.685 303.277 363.093 303.158 362.542 302.925C361.991 302.692 361.494 302.349 361.08 301.918C360.666 301.486 360.344 300.975 360.133 300.416C359.922 299.856 359.828 299.259 359.855 298.662C359.929 297.423 360.47 296.258 361.368 295.402C362.267 294.546 363.457 294.063 364.698 294.05C365.297 294.042 365.891 294.158 366.444 294.39C366.997 294.622 367.496 294.964 367.911 295.397C368.326 295.829 368.648 296.342 368.857 296.903C369.066 297.465 369.157 298.064 369.126 298.662Z" fill="#263238"></path>
<path d="M389.82 298.662C389.746 299.901 389.206 301.066 388.307 301.922C387.408 302.778 386.218 303.261 384.977 303.274C384.379 303.277 383.787 303.158 383.236 302.925C382.686 302.692 382.188 302.349 381.774 301.918C381.36 301.486 381.038 300.975 380.827 300.416C380.617 299.856 380.522 299.259 380.549 298.662C380.623 297.423 381.164 296.258 382.063 295.402C382.961 294.546 384.151 294.063 385.392 294.049C385.991 294.045 386.584 294.162 387.136 294.394C387.687 294.627 388.186 294.969 388.6 295.401C389.015 295.833 389.337 296.345 389.547 296.906C389.757 297.466 389.85 298.064 389.82 298.662Z" fill="#263238"></path>
<path d="M410.638 298.662C410.564 299.901 410.024 301.066 409.125 301.922C408.226 302.778 407.036 303.261 405.795 303.274C405.196 303.281 404.602 303.166 404.049 302.934C403.496 302.702 402.997 302.36 402.582 301.927C402.167 301.495 401.845 300.982 401.636 300.421C401.427 299.859 401.336 299.26 401.367 298.662C401.437 297.422 401.977 296.255 402.877 295.398C403.776 294.541 404.968 294.059 406.21 294.049C406.809 294.045 407.402 294.162 407.954 294.394C408.505 294.627 409.004 294.969 409.418 295.401C409.833 295.833 410.155 296.345 410.365 296.906C410.574 297.466 410.668 298.064 410.638 298.662Z" fill="#263238"></path>
<path d="M407.491 110.775C413.926 104.482 414.268 94.3951 408.254 88.2452C402.24 82.0954 392.148 82.2114 385.712 88.5044C379.277 94.7974 378.936 104.884 384.95 111.034C390.964 117.184 401.056 117.068 407.491 110.775Z" fill="#4CAF4F"></path>
<path d="M426.843 135.966C423.012 140.984 418.083 145.059 412.432 147.876C406.782 150.693 400.562 152.178 394.248 152.217C388.126 152.269 382.085 150.814 376.658 147.98C371.232 145.146 366.585 141.02 363.13 135.966C370.602 128.524 382.425 123.666 395.524 123.666C408.624 123.666 420.032 128.524 426.843 135.966Z" fill="#4CAF4F"></path>
<path opacity="0.1" d="M407.491 110.775C413.926 104.482 414.268 94.3951 408.254 88.2452C402.24 82.0954 392.148 82.2114 385.712 88.5044C379.277 94.7974 378.936 104.884 384.95 111.034C390.964 117.184 401.056 117.068 407.491 110.775Z" fill="white"></path>
<path opacity="0.1" d="M426.843 135.966C423.012 140.984 418.083 145.059 412.432 147.876C406.782 150.693 400.562 152.178 394.248 152.217C388.126 152.269 382.085 150.814 376.658 147.98C371.232 145.146 366.585 141.02 363.13 135.966C370.602 128.524 382.425 123.666 395.524 123.666C408.624 123.666 420.032 128.524 426.843 135.966Z" fill="white"></path>
<path d="M200.633 242.067C199.172 245.265 197.634 248.786 196.297 252.199C194.959 255.613 193.591 259.133 192.407 262.639C189.99 269.547 188.149 276.644 186.903 283.856L186.565 286.116C186.532 286.504 186.569 286.894 186.672 287.269C187.035 288.544 187.606 289.749 188.363 290.836C190.338 293.651 192.628 296.23 195.19 298.524C197.891 301.036 200.724 303.402 203.677 305.612C206.629 307.887 209.734 310.101 212.794 312.192L209.919 317.589C202.613 314.405 195.679 310.43 189.24 305.735C185.805 303.229 182.704 300.294 180.015 297.002C178.421 295.042 177.177 292.82 176.34 290.437C175.854 288.947 175.604 287.391 175.602 285.824C175.602 285.455 175.602 284.917 175.602 284.656V283.902L175.756 282.365C176.637 274.355 178.322 266.453 180.784 258.78C181.983 254.998 183.259 251.231 184.72 247.556C186.18 243.882 187.687 240.284 189.547 236.548L200.633 242.067Z" fill="#E58A7B"></path>
<path d="M210.626 311.239L221.496 305.735L218.682 317.666C218.682 317.666 211.225 319.757 207.766 316.128L210.626 311.239Z" fill="#E58A7B"></path>
<path d="M231.444 307.687L228.553 317.558L218.683 317.666L221.496 305.735L231.444 307.687Z" fill="#E58A7B"></path>
<path d="M246.788 184.504C247.369 186.635 248.179 188.697 249.202 190.654C248.903 190.993 248.518 191.245 248.088 191.383C247.657 191.521 247.198 191.54 246.757 191.438L246.788 184.504Z" fill="#DF5753"></path>
<path d="M246.466 184.596C247.102 184.596 247.619 183.805 247.619 182.828C247.619 181.852 247.102 181.06 246.466 181.06C245.829 181.06 245.312 181.852 245.312 182.828C245.312 183.805 245.829 184.596 246.466 184.596Z" fill="#263238"></path>
<path d="M246.127 181.122L248.464 180.46C248.464 180.46 247.326 182.275 246.127 181.122Z" fill="#263238"></path>
<path d="M216.761 195.79C218.16 202.939 219.559 216.054 214.547 220.835C214.547 220.835 216.515 228.092 229.814 228.092C244.436 228.092 236.794 220.835 236.794 220.835C228.815 218.929 229.015 213.009 230.414 207.444L216.761 195.79Z" fill="#E58A7B"></path>
<path d="M212.871 179.492C213.609 191.438 213.67 196.512 219.697 202.646C228.784 211.871 243.298 208.366 246.142 196.496C248.71 185.734 247.08 168.022 235.38 163.271C232.811 162.213 230.016 161.828 227.257 162.152C224.498 162.476 221.868 163.498 219.614 165.122C217.361 166.746 215.559 168.918 214.379 171.432C213.199 173.947 212.68 176.721 212.871 179.492Z" fill="#E58A7B"></path>
<path d="M214.055 166.055C208.058 168.238 200.064 166.608 203.2 185.104C206.521 204.692 201.417 211.134 201.417 211.134C201.417 211.134 224.156 215.977 247.372 210.841C247.372 210.841 240.284 198.449 242.267 189.317C244.804 177.786 242.806 173.527 242.806 173.527C242.806 173.527 222.48 162.98 214.055 166.055Z" fill="#263238"></path>
<path d="M239.423 185.719C239.429 187.99 240.08 190.213 241.299 192.13C242.929 194.621 244.85 193.667 245.327 191.023C245.758 188.701 245.435 184.596 243.359 182.997C241.283 181.398 239.454 182.967 239.423 185.719Z" fill="#E58A7B"></path>
<path d="M208.843 168.069C207.121 163.226 215.331 155.769 232.705 158.844C250.078 161.919 250.832 176.386 250.832 176.386L247.326 172.204L247.48 176.602L229.63 180.03L208.843 168.069Z" fill="#263238"></path>
<path d="M210.319 221.65C210.217 220.948 210.392 220.233 210.809 219.659C211.225 219.085 211.85 218.696 212.549 218.575C217.961 217.683 230.26 215.869 236.441 216.73C241.054 217.376 242.253 220.051 242.453 222.249C242.484 222.634 242.433 223.022 242.302 223.385C242.171 223.748 241.964 224.08 241.694 224.356C241.425 224.633 241.099 224.849 240.74 224.989C240.38 225.13 239.994 225.192 239.608 225.171L212.887 223.971C212.257 223.94 211.657 223.691 211.189 223.268C210.722 222.845 210.414 222.273 210.319 221.65Z" fill="#4CAF4F"></path>
<path opacity="0.6" d="M210.319 221.65C210.217 220.948 210.392 220.233 210.809 219.659C211.225 219.085 211.85 218.696 212.549 218.575C217.961 217.683 230.26 215.869 236.441 216.73C241.054 217.376 242.253 220.051 242.453 222.249C242.484 222.634 242.433 223.022 242.302 223.385C242.171 223.748 241.964 224.08 241.694 224.356C241.425 224.633 241.099 224.849 240.74 224.989C240.38 225.13 239.994 225.192 239.608 225.171L212.887 223.971C212.257 223.94 211.657 223.691 211.189 223.268C210.722 222.845 210.414 222.273 210.319 221.65Z" fill="black"></path>
<path d="M225.77 490.248L235.687 497.136L252.276 474.643L242.359 467.77L225.77 490.248Z" fill="#E58A7B"></path>
<path d="M202.646 489.802L213.117 495.767L227.8 471.983L217.329 466.017L202.646 489.802Z" fill="#E58A7B"></path>
<path d="M252.262 474.643L243.713 486.235L233.797 479.363L242.345 467.77L252.262 474.643Z" fill="#CF6F64"></path>
<path d="M217.314 466.017L227.8 471.998L220.235 484.252L209.75 478.271L217.314 466.017Z" fill="#CF6F64"></path>
<path d="M234.134 296.74C234.134 296.74 272.848 345.525 265.576 392.187C259.718 429.871 225.74 480.9 225.74 480.9L209.765 472.966C221.025 450.404 230.634 427.055 238.516 403.103C240.947 395.667 241.656 387.776 240.591 380.025C239.526 372.274 236.713 364.867 232.366 358.363C212.748 329.719 181.322 346.77 202.462 296.74H234.134Z" fill="#4CAF4F"></path>
<path opacity="0.6" d="M234.134 296.74C234.134 296.74 272.848 345.525 265.576 392.187C259.718 429.871 225.74 480.9 225.74 480.9L209.765 472.966C221.025 450.404 230.634 427.055 238.516 403.103C240.947 395.667 241.656 387.776 240.591 380.025C239.526 372.274 236.713 364.867 232.366 358.363C212.748 329.719 181.322 346.77 202.462 296.74H234.134Z" fill="black"></path>
<path opacity="0.4" d="M253.122 328.074L247.495 322.478C247.495 322.924 258.396 390.22 261.455 409.131C263.261 403.606 264.644 397.952 265.591 392.218C269.189 369.325 261.671 345.94 253.122 328.074Z" fill="black"></path>
<path d="M251.415 296.74C251.415 296.74 298.032 358.055 299.354 394.816C300.445 425.566 248.617 485.143 248.617 485.143L233.55 475.396C233.55 475.396 263.884 433.084 271.525 398.522C268.573 364.266 206.152 296.74 206.152 296.74H251.415Z" fill="#4CAF4F"></path>
<path opacity="0.6" d="M251.415 296.74C251.415 296.74 298.032 358.055 299.354 394.816C300.445 425.566 248.617 485.143 248.617 485.143L233.55 475.396C233.55 475.396 263.884 433.084 271.525 398.522C268.573 364.266 206.152 296.74 206.152 296.74H251.415Z" fill="black"></path>
<path d="M193.745 223.572C188.764 224.756 183.982 242.867 183.982 242.867L203.462 255.874C203.462 255.874 209.95 241.545 207.675 235.272C205.322 228.738 200.002 222.081 193.745 223.572Z" fill="#4CAF4F"></path>
<path opacity="0.2" d="M197.558 235.241L196.205 251.031L203.447 255.89C205.446 251.388 206.927 246.674 207.859 241.837L197.558 235.241Z" fill="black"></path>
<path d="M257.182 223.925C257.182 223.925 262.932 225.939 251.416 296.725H202.432C203.262 276.738 203.278 264.438 193.745 223.572C200.604 222.158 207.556 221.243 214.548 220.835C221.954 220.304 229.389 220.304 236.795 220.835C246.358 221.711 257.182 223.925 257.182 223.925Z" fill="#4CAF4F"></path>
<path d="M262.162 235.241C263.269 238.316 264.438 241.622 265.668 244.804C266.898 247.987 268.066 251.262 269.311 254.49L273.078 264.146L274.032 266.559L274.524 267.759L274.754 268.358C274.754 268.466 274.754 268.466 274.754 268.451C274.473 268.055 274.105 267.728 273.678 267.497C273.07 267.139 272.384 266.934 271.679 266.898C271.094 266.879 270.511 266.99 269.973 267.221C269.265 267.543 269.265 267.682 269.281 267.666C269.409 267.564 269.522 267.445 269.619 267.313C270.47 266.195 271.207 264.995 271.818 263.731C272.54 262.316 273.232 260.809 273.924 259.287C275.277 256.212 276.522 253.03 277.768 249.816C279.013 246.603 280.197 243.359 281.35 240.084L284.855 230.275L290.775 231.812C289.606 238.823 288.099 245.65 286.285 252.599C285.409 256.058 284.379 259.487 283.21 262.946C282.626 264.684 281.98 266.406 281.242 268.174C280.473 270.093 279.526 271.936 278.413 273.678C278.004 274.264 277.552 274.82 277.06 275.339C276.275 276.186 275.322 276.862 274.262 277.322C273.321 277.726 272.302 277.915 271.279 277.875C270.133 277.833 269.017 277.499 268.035 276.907C266.877 276.184 265.916 275.186 265.237 274.001C265.006 273.601 264.807 273.201 264.668 272.909L264.376 272.325L263.792 271.126L262.623 268.743C261.086 265.545 259.548 262.316 258.211 259.072C256.873 255.828 255.459 252.538 254.137 249.232C252.814 245.926 251.63 242.621 250.508 239.054L262.162 235.241Z" fill="#E58A7B"></path>
<path d="M257.181 223.926C263.07 225.325 269.696 242.729 269.696 242.729L252.184 257.627C252.184 257.627 240.853 238.655 243.144 232.397C245.527 225.878 249.494 222.096 257.181 223.926Z" fill="#4CAF4F"></path>
<path d="M287.639 224.771L293.789 219.636L298.063 226.293L294.911 231.843C294.911 231.843 289.899 236.456 285.471 234.103C284.768 232.524 284.6 230.758 284.991 229.074C285.382 227.39 286.312 225.879 287.639 224.771Z" fill="#E58A7B"></path>
<path d="M304.889 219.651L304.427 221.327L294.695 222.957L293.742 219.636L304.889 219.651Z" fill="#E58A7B"></path>
<path d="M249.817 485.927L232.259 474.581L235.411 469.107L255.137 481.238L249.817 485.927Z" fill="#4CAF4F"></path>
<path d="M219.99 494.968C218.449 494.78 216.969 494.255 215.654 493.431C215.6 493.412 215.552 493.377 215.519 493.33C215.486 493.283 215.468 493.227 215.468 493.169C215.468 493.112 215.486 493.056 215.519 493.009C215.552 492.962 215.6 492.927 215.654 492.908C216.13 492.754 220.266 491.478 221.466 492.462C221.6 492.574 221.703 492.72 221.762 492.885C221.822 493.05 221.836 493.228 221.804 493.4C221.782 493.677 221.691 493.944 221.537 494.175C221.384 494.406 221.174 494.595 220.927 494.722C220.639 494.879 220.317 494.964 219.99 494.968ZM216.53 493.277C218.452 494.261 219.99 494.615 220.727 494.246C220.888 494.157 221.023 494.028 221.12 493.872C221.217 493.716 221.273 493.537 221.281 493.354C221.281 493.108 221.281 493 221.143 492.939C220.497 492.416 218.191 492.816 216.499 493.277H216.53Z" fill="#263238"></path>
<path d="M215.762 493.538C215.681 493.537 215.604 493.504 215.547 493.446C215.524 493.404 215.512 493.356 215.512 493.308C215.512 493.26 215.524 493.212 215.547 493.169C215.547 493.031 216.546 489.695 218.114 488.941C218.315 488.85 218.532 488.803 218.752 488.803C218.973 488.803 219.19 488.85 219.391 488.941C219.606 489.01 219.793 489.148 219.922 489.335C220.05 489.521 220.112 489.745 220.098 489.971C219.99 491.355 217.177 493.262 215.885 493.585L215.762 493.538ZM218.745 489.341C218.595 489.346 218.448 489.382 218.314 489.449C217.361 489.91 216.577 491.709 216.193 492.8C217.546 492.232 219.406 490.725 219.467 489.879C219.467 489.741 219.467 489.572 219.114 489.418C218.999 489.356 218.874 489.314 218.745 489.295V489.341Z" fill="#263238"></path>
<path d="M241.929 501.61C240.192 501.61 237.778 499.381 236.456 498.012C236.422 497.965 236.404 497.909 236.404 497.851C236.404 497.793 236.422 497.736 236.456 497.689C236.486 497.64 236.53 497.599 236.581 497.572C236.632 497.545 236.69 497.533 236.748 497.536C237.363 497.536 242.698 498.335 243.452 499.842C243.531 499.977 243.573 500.131 243.573 500.288C243.573 500.445 243.531 500.599 243.452 500.734C243.339 500.968 243.168 501.17 242.955 501.321C242.743 501.471 242.496 501.566 242.237 501.595L241.929 501.61ZM237.471 498.227C239.408 500.103 241.115 501.149 242.083 501.026C242.253 501.003 242.414 500.94 242.554 500.841C242.693 500.742 242.806 500.61 242.883 500.457C242.917 500.404 242.935 500.343 242.935 500.28C242.935 500.217 242.917 500.156 242.883 500.103C242.483 499.273 239.639 498.566 237.471 498.227Z" fill="#263238"></path>
<path d="M237.64 498.151C237.295 498.16 236.95 498.135 236.61 498.074C236.563 498.067 236.518 498.047 236.48 498.018C236.443 497.988 236.413 497.949 236.395 497.905C236.372 497.859 236.36 497.809 236.36 497.759C236.36 497.708 236.372 497.658 236.395 497.613C236.487 497.505 238.563 494.999 240.531 494.83C241.088 494.786 241.64 494.963 242.068 495.322C242.668 495.844 242.637 496.306 242.483 496.598C242.099 497.643 239.439 498.151 237.64 498.151ZM237.241 497.582C238.963 497.674 241.715 497.105 242.068 496.352C242.068 496.352 242.191 496.106 241.792 495.768C241.633 495.629 241.447 495.525 241.246 495.462C241.045 495.398 240.833 495.377 240.623 495.399C239.297 495.769 238.117 496.536 237.241 497.597V497.582Z" fill="#263238"></path>
<path d="M216.176 491.878L203.139 488.188C202.914 488.12 202.672 488.137 202.459 488.236C202.246 488.336 202.078 488.51 201.985 488.726L197.588 498.612C197.485 498.865 197.437 499.137 197.446 499.411C197.455 499.684 197.523 499.952 197.643 500.198C197.764 500.443 197.935 500.66 198.145 500.835C198.356 501.009 198.601 501.137 198.864 501.21C203.477 502.41 205.691 502.748 211.426 504.393C214.962 505.377 220.005 507.207 224.879 508.59C229.752 509.974 231.382 505.223 229.491 504.208C220.943 499.688 220.266 496.521 217.929 493.139C217.511 492.526 216.89 492.08 216.176 491.878Z" fill="#4CAF4F"></path>
<path d="M236.81 496.213L225.679 488.526C225.49 488.389 225.257 488.325 225.025 488.348C224.793 488.37 224.577 488.478 224.418 488.649L217.038 496.582C216.858 496.787 216.724 497.028 216.645 497.289C216.565 497.55 216.542 497.825 216.577 498.096C216.612 498.366 216.704 498.626 216.847 498.858C216.99 499.09 217.181 499.289 217.407 499.442C221.328 502.071 223.357 503.132 228.262 506.53C231.337 508.621 237.287 513.264 241.438 516.155C245.589 519.045 248.679 515.078 247.203 513.51C240.592 506.453 239.147 502.025 238.055 498.012C237.866 497.284 237.425 496.647 236.81 496.213Z" fill="#4CAF4F"></path>
<path d="M227.785 481.915L207.721 471.936L209.797 466.494L231.229 477.01L227.785 481.915Z" fill="#4CAF4F"></path>
<path d="M201.694 293.85L200.002 298.278C199.833 298.616 200.233 298.97 200.802 298.97H251.662C252.108 298.97 252.477 298.755 252.507 298.478L252.938 294.081C252.938 293.788 252.584 293.527 252.108 293.527H202.493C202.344 293.513 202.193 293.535 202.054 293.591C201.915 293.647 201.791 293.736 201.694 293.85Z" fill="#4CAF4F"></path>
<path opacity="0.4" d="M201.694 293.85L200.002 298.278C199.833 298.616 200.233 298.97 200.802 298.97H251.662C252.108 298.97 252.477 298.755 252.507 298.478L252.938 294.081C252.938 293.788 252.584 293.527 252.108 293.527H202.493C202.344 293.513 202.193 293.535 202.054 293.591C201.915 293.647 201.791 293.736 201.694 293.85Z" fill="white"></path>
<path d="M209.703 299.4H208.366C208.104 299.4 207.904 299.262 207.92 299.093L208.55 293.389C208.55 293.235 208.796 293.097 209.058 293.097H210.395C210.656 293.097 210.856 293.235 210.841 293.389L210.211 299.093C210.195 299.262 209.965 299.4 209.703 299.4Z" fill="#4CAF4F"></path>
<path d="M241.069 299.4H239.747C239.485 299.4 239.285 299.262 239.301 299.093L239.916 293.389C239.916 293.235 240.177 293.097 240.438 293.097H241.761C242.022 293.097 242.237 293.235 242.206 293.389L241.591 299.093C241.515 299.262 241.346 299.4 241.069 299.4Z" fill="#4CAF4F"></path>
<g style="mix-blend-mode: multiply">
<path d="M208.535 559.773C231.283 559.773 249.724 558.438 249.724 556.79C249.724 555.143 231.283 553.808 208.535 553.808C185.787 553.808 167.346 555.143 167.346 556.79C167.346 558.438 185.787 559.773 208.535 559.773Z" fill="#F5F5F5"></path>
</g>
<path d="M233.626 552.577C226.339 550.456 218.252 547.734 213.362 544.89C213.224 544.798 213.07 544.752 212.932 544.675V511.68H227.676C228.796 511.614 229.847 511.123 230.616 510.307C231.385 509.491 231.814 508.412 231.814 507.291C231.814 506.17 231.385 505.091 230.616 504.275C229.847 503.459 228.796 502.968 227.676 502.901H213.009V352.505H204.153V502.901H189.501C188.902 502.866 188.303 502.953 187.74 503.158C187.177 503.362 186.661 503.68 186.225 504.091C185.789 504.502 185.441 504.998 185.204 505.548C184.966 506.099 184.844 506.692 184.844 507.291C184.844 507.89 184.966 508.483 185.204 509.034C185.441 509.584 185.789 510.08 186.225 510.491C186.661 510.902 187.177 511.219 187.74 511.424C188.303 511.629 188.902 511.716 189.501 511.68H204.153V544.629C204.015 544.629 203.876 544.752 203.738 544.844C198.772 547.734 190.746 550.456 183.458 552.531C182.966 552.68 182.543 553 182.267 553.434C181.99 553.868 181.878 554.386 181.95 554.895C182.023 555.404 182.275 555.871 182.662 556.21C183.049 556.549 183.544 556.738 184.058 556.744H233.027C233.518 556.711 233.983 556.51 234.345 556.174C234.706 555.839 234.941 555.391 235.011 554.903C235.081 554.416 234.982 553.919 234.73 553.495C234.478 553.072 234.089 552.748 233.626 552.577Z" fill="#E0E0E0"></path>
<path d="M235.887 337.191H181.214C176.816 337.191 173.25 340.757 173.25 345.156V361.407C173.25 365.805 176.816 369.371 181.214 369.371H235.887C240.286 369.371 243.851 365.805 243.851 361.407V345.156C243.851 340.757 240.286 337.191 235.887 337.191Z" fill="#4CAF4F"></path>
<path d="M180.706 369.387V372.185C180.706 374.491 183.212 376.367 186.287 376.367H230.874C233.949 376.367 236.455 374.491 236.455 372.185V369.387H180.706Z" fill="#4CAF4F"></path>
<path opacity="0.3" d="M180.706 369.387V372.185C180.706 374.491 183.212 376.367 186.287 376.367H230.874C233.949 376.367 236.455 374.491 236.455 372.185V369.387H180.706Z" fill="white"></path>
</svg>
