<svg width="42" height="42" viewBox="0 0 42 42" fill="none" xmlns="http://www.w3.org/2000/svg">
<path opacity="0.1" fill-rule="evenodd" clip-rule="evenodd" d="M0.235107 20.676C0.235107 9.40291 9.37373 0.264282 20.6468 0.264282C31.9199 0.264282 41.0585 9.40291 41.0585 20.676C41.0585 31.949 31.9199 41.0877 20.6468 41.0877C9.37373 41.0877 0.235107 31.949 0.235107 20.676Z" fill="white"></path>
<path fill-rule="evenodd" clip-rule="evenodd" d="M31.533 20.6609C31.533 21.3972 31.458 22.1323 31.3108 22.849C31.1672 23.5486 30.9546 24.2355 30.6761 24.8921C30.4039 25.5371 30.0664 26.1586 29.6719 26.7382C29.2834 27.3142 28.8358 27.8546 28.344 28.3472C27.8513 28.8376 27.3091 29.284 26.7334 29.6742C26.1518 30.0659 25.5294 30.403 24.884 30.6764C24.2264 30.9535 23.538 31.1658 22.839 31.3091C22.1214 31.4567 21.3835 31.532 20.6462 31.532C19.9084 31.532 19.1706 31.4567 18.454 31.3091C17.7539 31.1658 17.0655 30.9535 16.4085 30.6764C15.7632 30.403 15.1401 30.0659 14.5586 29.6742C13.9829 29.284 13.4407 28.8376 12.9489 28.3472C12.4567 27.8546 12.0091 27.3142 11.62 26.7382C11.2277 26.1586 10.8896 25.537 10.6164 24.8921C10.3378 24.2355 10.1246 23.5486 9.98058 22.849C9.83494 22.1323 9.7605 21.3972 9.7605 20.6609C9.7605 19.9242 9.83489 19.1874 9.98062 18.4723C10.1247 17.7727 10.3378 17.0848 10.6164 16.4292C10.8896 15.7838 11.2277 15.1617 11.62 14.582C12.0091 14.0056 12.4568 13.4662 12.949 12.9731C13.4407 12.4826 13.9829 12.0373 14.5586 11.6477C15.1402 11.2543 15.7632 10.9173 16.4085 10.6434C17.0656 10.3657 17.7539 10.1529 18.4541 10.0106C19.1706 9.86413 19.9085 9.78979 20.6463 9.78979C21.3836 9.78979 22.1214 9.86413 22.839 10.0106C23.538 10.1529 24.2264 10.3657 24.884 10.6434C25.5294 10.9172 26.1519 11.2543 26.7334 11.6477C27.3091 12.0373 27.8514 12.4826 28.3441 12.9731C28.8358 13.4662 29.2834 14.0056 29.672 14.582C30.0664 15.1617 30.4039 15.7838 30.6761 16.4292C30.9546 17.0848 31.1672 17.7727 31.3108 18.4723C31.458 19.1874 31.533 19.9242 31.533 20.6609ZM16.6795 12.2639C14.087 13.4864 12.152 15.8719 11.5487 18.7468C11.7938 18.7489 15.6679 18.7978 20.1316 17.6135C18.5225 14.7587 16.8034 12.4291 16.6795 12.2639ZM20.9019 19.043C16.115 20.4741 11.5216 20.3711 11.3568 20.3647C11.3541 20.4645 11.3493 20.5611 11.3493 20.6609C11.3493 23.0458 12.2504 25.2201 13.7314 26.864C13.7282 26.8592 16.2723 22.3521 21.2894 20.7321C21.4106 20.6917 21.5339 20.6556 21.6562 20.6206C21.4229 20.093 21.1682 19.5643 20.9019 19.043ZM26.786 13.6934C25.1492 12.2522 23.0001 11.378 20.6462 11.378C19.8908 11.378 19.1578 11.4693 18.4556 11.6381C18.5948 11.825 20.3411 14.1383 21.931 17.0535C25.439 15.7403 26.7631 13.7274 26.786 13.6934ZM22.2899 22.1589C22.2692 22.1657 22.2485 22.1717 22.2282 22.1791C16.7429 24.0886 14.9516 27.9367 14.9323 27.9788C16.5106 29.2044 18.4902 29.9438 20.6463 29.9438C21.9337 29.9438 23.1601 29.6821 24.2759 29.2081C24.1382 28.397 23.5981 25.554 22.2899 22.1589ZM25.8414 28.3599C27.9289 26.9532 29.4114 24.7196 29.825 22.1323C29.6336 22.0707 27.0326 21.2485 24.0318 21.7289C25.2513 25.0752 25.7467 27.8004 25.8414 28.3599ZM22.6466 18.4368C22.8624 18.8795 23.0713 19.3301 23.2643 19.7829C23.3329 19.9454 23.3999 20.1046 23.4652 20.2639C26.659 19.8625 29.8054 20.5377 29.9399 20.5653C29.9187 18.3646 29.1303 16.3448 27.8258 14.7636C27.8083 14.7884 26.3172 16.9399 22.6466 18.4368Z" fill="white"></path>
</svg>
