<svg width="41" height="42" viewBox="0 0 41 42" fill="none" xmlns="http://www.w3.org/2000/svg">
<path opacity="0.1" fill-rule="evenodd" clip-rule="evenodd" d="M0 20.676C0 9.40291 9.13862 0.264282 20.4117 0.264282C31.6848 0.264282 40.8234 9.40291 40.8234 20.676C40.8234 31.949 31.6848 41.0877 20.4117 41.0877C9.13862 41.0877 0 31.949 0 20.676Z" fill="white"></path>
<path fill-rule="evenodd" clip-rule="evenodd" d="M20.4126 9.78979C17.4561 9.78979 17.0851 9.80272 15.9238 9.85557C14.7649 9.90864 13.9738 10.0921 13.2816 10.3613C12.5656 10.6394 11.9583 11.0113 11.3532 11.6167C10.7476 12.2218 10.3757 12.8291 10.0967 13.5449C9.82681 14.2373 9.6431 15.0286 9.59094 16.1871C9.539 17.3483 9.52539 17.7196 9.52539 20.6761C9.52539 23.6327 9.53854 24.0026 9.59116 25.1638C9.64446 26.3228 9.82794 27.1138 10.0969 27.806C10.3752 28.522 10.7472 29.1294 11.3525 29.7345C11.9574 30.34 12.5647 30.7129 13.2803 30.991C13.9729 31.2602 14.7642 31.4436 15.9229 31.4967C17.0841 31.5496 17.455 31.5625 20.4113 31.5625C23.3681 31.5625 23.738 31.5496 24.8992 31.4967C26.0581 31.4436 26.8501 31.2602 27.5428 30.991C28.2585 30.7129 28.865 30.34 29.4699 29.7345C30.0754 29.1294 30.4474 28.522 30.7263 27.8062C30.9939 27.1138 31.1777 26.3225 31.2321 25.164C31.2843 24.0028 31.2979 23.6327 31.2979 20.6761C31.2979 17.7196 31.2843 17.3485 31.2321 16.1873C31.1777 15.0284 30.9939 14.2373 30.7263 13.5451C30.4474 12.8291 30.0754 12.2218 29.4699 11.6167C28.8643 11.0111 28.2588 10.6392 27.5421 10.3613C26.8481 10.0921 26.0565 9.90864 24.8976 9.85557C23.7364 9.80272 23.3667 9.78979 20.4092 9.78979H20.4126ZM19.436 11.7516C19.7259 11.7511 20.0493 11.7516 20.4126 11.7516C23.3193 11.7516 23.6638 11.762 24.8116 11.8142C25.873 11.8627 26.4491 12.0401 26.8328 12.1891C27.3409 12.3864 27.7031 12.6223 28.0838 13.0033C28.4649 13.3843 28.7007 13.7472 28.8985 14.2552C29.0475 14.6385 29.2251 15.2146 29.2734 16.276C29.3256 17.4236 29.3369 17.7683 29.3369 20.6736C29.3369 23.5789 29.3256 23.9236 29.2734 25.0712C29.2249 26.1327 29.0475 26.7087 28.8985 27.092C28.7012 27.6001 28.4649 27.9618 28.0838 28.3426C27.7028 28.7236 27.3411 28.9595 26.8328 29.1568C26.4495 29.3065 25.873 29.4834 24.8116 29.5319C23.664 29.5841 23.3193 29.5954 20.4126 29.5954C17.5057 29.5954 17.1612 29.5841 16.0136 29.5319C14.9522 29.4829 14.3761 29.3056 13.9921 29.1566C13.4841 28.9593 13.1212 28.7234 12.7402 28.3424C12.3592 27.9613 12.1233 27.5994 11.9256 27.0911C11.7766 26.7078 11.599 26.1318 11.5507 25.0703C11.4985 23.9227 11.4881 23.578 11.4881 20.6709C11.4881 17.7638 11.4985 17.4209 11.5507 16.2733C11.5992 15.2118 11.7766 14.6358 11.9256 14.252C12.1229 13.744 12.3592 13.3811 12.7402 13.0001C13.1212 12.6191 13.4841 12.3832 13.9921 12.1854C14.3759 12.0358 14.9522 11.8589 16.0136 11.8101C17.0179 11.7647 17.4071 11.7511 19.436 11.7489V11.7516ZM26.2236 13.5592C25.5024 13.5592 24.9173 14.1436 24.9173 14.8651C24.9173 15.5863 25.5024 16.1714 26.2236 16.1714C26.9449 16.1714 27.53 15.5863 27.53 14.8651C27.53 14.1439 26.9449 13.5592 26.2236 13.5592ZM20.4127 15.0855C17.3253 15.0855 14.8221 17.5887 14.8221 20.6761C14.8221 23.7635 17.3253 26.2656 20.4127 26.2656C23.5001 26.2656 26.0023 23.7635 26.0023 20.6761C26.0023 17.5887 23.5001 15.0855 20.4127 15.0855ZM20.4126 17.0473C22.4166 17.0473 24.0414 18.6719 24.0414 20.6761C24.0414 22.6801 22.4166 24.3049 20.4126 24.3049C18.4084 24.3049 16.7838 22.6801 16.7838 20.6761C16.7838 18.6719 18.4084 17.0473 20.4126 17.0473Z" fill="white"></path>
</svg>
