<svg width="42" height="42" viewBox="0 0 42 42" fill="none" xmlns="http://www.w3.org/2000/svg">
<path opacity="0.1" fill-rule="evenodd" clip-rule="evenodd" d="M0.705078 20.676C0.705078 9.40291 9.8437 0.264282 21.1168 0.264282C32.3898 0.264282 41.5285 9.40291 41.5285 20.676C41.5285 31.949 32.3898 41.0877 21.1168 41.0877C9.8437 41.0877 0.705078 31.949 0.705078 20.676Z" fill="white"></path>
<path fill-rule="evenodd" clip-rule="evenodd" d="M29.6232 13.6588C30.56 13.9159 31.2978 14.6734 31.5482 15.6353C32.0032 17.3786 32.0032 21.0161 32.0032 21.0161C32.0032 21.0161 32.0032 24.6535 31.5482 26.397C31.2978 27.3589 30.56 28.1163 29.6232 28.3735C27.9254 28.8406 21.1169 28.8406 21.1169 28.8406C21.1169 28.8406 14.3085 28.8406 12.6106 28.3735C11.6738 28.1163 10.936 27.3589 10.6856 26.397C10.2307 24.6535 10.2307 21.0161 10.2307 21.0161C10.2307 21.0161 10.2307 17.3786 10.6856 15.6353C10.936 14.6734 11.6738 13.9159 12.6106 13.6588C14.3085 13.1917 21.1169 13.1917 21.1169 13.1917C21.1169 13.1917 27.9254 13.1917 29.6232 13.6588ZM19.0758 17.9543V24.7582L24.5189 21.3564L19.0758 17.9543Z" fill="white"></path>
</svg>
